<svg xmlns="http://www.w3.org/2000/svg" xmlns:xlink="http://www.w3.org/1999/xlink" width="600" zoomAndPan="magnify" viewBox="0 0 450 299.999988" height="400" preserveAspectRatio="xMidYMid meet" version="1.0"><defs><g/><clipPath id="9b1d4db18d"><path d="M 172.59375 242.128906 L 244 242.128906 L 244 286.652344 L 172.59375 286.652344 Z M 172.59375 242.128906 " clip-rule="nonzero"/></clipPath><clipPath id="3ea9876f0d"><path d="M 234.609375 153.003906 L 312.441406 153.003906 L 312.441406 286.652344 L 234.609375 286.652344 Z M 234.609375 153.003906 " clip-rule="nonzero"/></clipPath><clipPath id="dfda2f3726"><path d="M 204.222656 228.464844 L 302.519531 228.464844 L 302.519531 286.652344 L 204.222656 286.652344 Z M 204.222656 228.464844 " clip-rule="nonzero"/></clipPath><clipPath id="fd46adf7c6"><path d="M 158.640625 152.382812 L 313.101562 152.382812 L 313.101562 286.652344 L 158.640625 286.652344 Z M 158.640625 152.382812 " clip-rule="nonzero"/></clipPath><clipPath id="dbc3e40ab0"><path d="M 268 282 L 273 282 L 273 286.699219 L 268 286.699219 Z M 268 282 " clip-rule="nonzero"/></clipPath><clipPath id="3444a28d69"><path d="M 235.542969 255.480469 L 282.984375 255.480469 L 282.984375 286.652344 L 235.542969 286.652344 Z M 235.542969 255.480469 " clip-rule="nonzero"/></clipPath><clipPath id="364b600995"><path d="M 234.609375 248.027344 L 283.914062 248.027344 L 283.914062 286.652344 L 234.609375 286.652344 Z M 234.609375 248.027344 " clip-rule="nonzero"/></clipPath><clipPath id="8a125a8260"><path d="M 219 145.699219 L 225 145.699219 L 225 155 L 219 155 Z M 219 145.699219 " clip-rule="nonzero"/></clipPath></defs><rect x="-45" width="540" fill="#ffffff" y="-29.999999" height="359.999986" fill-opacity="1"/><rect x="-45" width="540" fill="#ffffff" y="-29.999999" height="359.999986" fill-opacity="1"/><g clip-path="url(#9b1d4db18d)"><path fill="#b04c43" d="M 231.277344 274.5 C 234.046875 277.101562 238.75 281.550781 243.988281 286.652344 L 172.625 286.652344 C 173.988281 284.8125 176.292969 282.679688 180.101562 280.359375 C 180.101562 280.359375 189.847656 271.476562 194.839844 263.953125 C 195.050781 263.636719 195.253906 263.324219 195.445312 263.011719 C 195.554688 262.839844 195.660156 262.667969 195.757812 262.492188 C 196.40625 261.398438 196.921875 260.351562 197.265625 259.382812 L 197.296875 258.246094 L 197.316406 257.542969 L 197.324219 257.3125 L 197.523438 250.632812 L 204.207031 242.277344 C 204.207031 242.277344 204.234375 242.832031 204.367188 243.761719 C 204.730469 246.324219 205.871094 251.726562 209.316406 256.164062 C 209.484375 256.378906 209.65625 256.589844 209.832031 256.800781 C 209.917969 256.898438 210.003906 256.996094 210.089844 257.09375 C 210.535156 257.597656 211.011719 258.085938 211.527344 258.546875 C 212.144531 259.105469 212.792969 259.671875 213.460938 260.242188 C 213.667969 260.421875 213.878906 260.601562 214.089844 260.78125 C 214.148438 260.828125 214.207031 260.878906 214.265625 260.925781 C 215.265625 261.765625 216.292969 262.613281 217.320312 263.4375 C 221.164062 266.527344 224.988281 269.375 227.070312 270.902344 C 228.074219 271.636719 228.675781 272.066406 228.675781 272.066406 C 228.675781 272.066406 229.640625 272.960938 231.277344 274.5 " fill-opacity="1" fill-rule="nonzero"/></g><g clip-path="url(#3ea9876f0d)"><path fill="#b04c43" d="M 309.648438 286.652344 L 303.636719 286.652344 C 302.886719 286 301.707031 284.800781 300.175781 283.207031 C 300.171875 283.207031 300.171875 283.207031 300.171875 283.203125 C 296.777344 279.671875 291.65625 274.199219 285.65625 268.4375 L 285.652344 268.4375 C 285.53125 268.316406 285.402344 268.195312 285.277344 268.078125 C 284.851562 267.671875 284.421875 267.261719 283.988281 266.851562 C 280.070312 263.160156 275.828125 259.40625 271.480469 256.027344 C 268.382812 253.621094 265.234375 251.402344 262.109375 249.523438 C 262.109375 249.523438 262.109375 249.523438 262.109375 249.519531 C 255.78125 245.71875 250.640625 241.890625 246.589844 238.464844 C 246.585938 238.464844 246.585938 238.460938 246.585938 238.460938 C 243.453125 235.8125 240.972656 233.40625 239.101562 231.441406 C 239.101562 231.441406 239.101562 231.441406 239.097656 231.4375 C 236.089844 228.277344 234.660156 226.261719 234.636719 226.226562 L 234.632812 226.222656 C 234.632812 226.222656 236.261719 224.121094 240.914062 223.785156 L 254.070312 209.554688 C 254.070312 209.554688 259.921875 212.414062 266.839844 207.921875 C 274.140625 203.183594 281.726562 190.09375 281.726562 190.09375 L 257.574219 196.292969 C 257.574219 196.292969 260.742188 190.175781 262.902344 184.539062 C 264.058594 181.519531 264.921875 178.636719 264.855469 176.90625 C 264.804688 175.628906 264.605469 174.824219 264.335938 174.332031 C 263.566406 172.917969 262.226562 174.113281 262.226562 174.113281 L 252.109375 179.507812 L 249.785156 180.746094 L 245.894531 182.820312 L 252.144531 173.371094 L 257.894531 168.535156 L 267.25 168.242188 C 267.25 168.242188 282.511719 158.53125 289.980469 157.015625 C 297.449219 155.5 308.285156 149.992188 310.140625 155.792969 C 311.996094 161.597656 313.566406 177.875 310.523438 187.050781 C 307.476562 196.222656 307.078125 213.542969 292.359375 229.109375 C 292.359375 229.109375 288.929688 237.808594 289.316406 246.347656 C 289.699219 254.886719 304.835938 277.144531 304.835938 277.144531 L 309.648438 286.652344 " fill-opacity="1" fill-rule="nonzero"/></g><g clip-path="url(#dfda2f3726)"><path fill="#e7cac8" d="M 244.667969 286.652344 C 240.492188 282.597656 235.585938 278.222656 231.277344 274.5 C 229.785156 273.207031 228.363281 271.996094 227.070312 270.902344 C 223.132812 267.566406 220.378906 265.332031 220.378906 265.332031 C 220.378906 265.332031 219.125 264.667969 217.320312 263.4375 C 216.449219 262.84375 215.453125 262.117188 214.402344 261.269531 C 214.34375 261.21875 214.28125 261.167969 214.214844 261.121094 C 214.152344 261.066406 214.089844 261.015625 214.023438 260.960938 C 213.96875 260.914062 213.917969 260.871094 213.863281 260.824219 C 213.769531 260.746094 213.675781 260.667969 213.582031 260.585938 C 213.457031 260.484375 213.335938 260.378906 213.214844 260.273438 C 212.238281 259.421875 211.246094 258.472656 210.292969 257.433594 C 210.199219 257.332031 210.105469 257.226562 210.007812 257.121094 C 210.003906 257.113281 209.996094 257.105469 209.992188 257.101562 C 209.90625 257.003906 209.824219 256.910156 209.738281 256.816406 C 209.648438 256.710938 209.558594 256.605469 209.46875 256.5 C 209.378906 256.394531 209.289062 256.285156 209.199219 256.175781 C 206.402344 252.773438 204.222656 248.558594 204.367188 243.761719 C 204.386719 243.09375 204.453125 242.417969 204.566406 241.730469 C 204.566406 241.730469 205.015625 242.613281 206.367188 243.75 C 206.367188 243.75 206.371094 243.75 206.375 243.753906 C 208.234375 245.320312 211.796875 247.359375 218.222656 248.257812 L 218.234375 248.261719 C 218.234375 248.261719 218.234375 248.261719 218.238281 248.261719 C 221.890625 248.769531 226.472656 248.910156 232.195312 248.382812 C 232.414062 248.363281 232.632812 248.34375 232.855469 248.320312 C 232.855469 248.320312 232.859375 248.320312 232.859375 248.320312 C 232.949219 248.3125 233.035156 248.300781 233.125 248.292969 C 233.125 248.292969 233.191406 248.25 233.304688 248.15625 C 233.722656 247.816406 234.785156 246.832031 235.6875 245.027344 C 235.6875 245.027344 235.6875 245.023438 235.6875 245.023438 C 237.175781 242.035156 238.207031 236.800781 235.09375 228.519531 L 239.097656 231.4375 L 239.097656 231.441406 L 239.101562 231.441406 L 264.820312 250.199219 L 271.472656 256.019531 L 271.480469 256.027344 L 285.371094 268.1875 L 285.652344 268.4375 L 285.65625 268.4375 L 285.660156 268.441406 L 287.285156 269.867188 L 293.773438 275.542969 C 293.773438 275.542969 296.703125 278.261719 300.171875 283.203125 C 300.171875 283.207031 300.171875 283.207031 300.175781 283.207031 C 300.910156 284.257812 301.671875 285.40625 302.4375 286.652344 L 244.667969 286.652344 " fill-opacity="1" fill-rule="nonzero"/></g><path fill="#ff3b29" d="M 237.699219 246.828125 C 237.699219 246.828125 233.671875 248.710938 231.488281 249.042969 C 229.304688 249.371094 226.3125 257.535156 226.3125 257.535156 C 226.3125 257.535156 226.785156 258.871094 234.917969 257.222656 C 243.050781 255.574219 240.238281 246.585938 240.238281 246.585938 L 237.699219 246.828125 " fill-opacity="1" fill-rule="nonzero"/><path fill="#f5a97b" d="M 245.894531 182.820312 C 245.894531 182.820312 242.046875 186.644531 233.210938 183.507812 C 224.375 180.371094 213.671875 176.898438 210.800781 176.519531 C 207.929688 176.140625 202.238281 178.761719 201.0625 179.894531 C 199.886719 181.03125 193.917969 175.371094 185.769531 181.414062 C 177.617188 187.457031 183.636719 219.710938 184.835938 222.851562 C 186.035156 225.996094 189.382812 228.949219 193.238281 229.308594 C 197.097656 229.671875 200.414062 229.90625 200.414062 229.90625 L 206.367188 243.75 C 206.367188 243.75 218.203125 251.265625 232.195312 248.382812 C 232.195312 248.382812 236.808594 249.117188 236.785156 236.667969 L 233.921875 228.023438 C 233.921875 228.023438 231.199219 221.527344 233.199219 218.808594 C 235.199219 216.089844 237.203125 208.285156 235.128906 205.308594 C 233.050781 202.332031 230.511719 201.941406 230.511719 201.941406 L 229.921875 199.007812 C 229.921875 199.007812 238.285156 202.269531 241.445312 200.511719 C 244.605469 198.75 255.910156 196.640625 255.910156 196.640625 C 255.910156 196.640625 255.695312 184.09375 245.894531 182.820312 " fill-opacity="1" fill-rule="nonzero"/><path fill="#78533c" d="M 193.238281 229.308594 C 191 229.109375 187.824219 228.222656 185.53125 223.757812 C 183.238281 219.296875 188.628906 216.195312 191.890625 216.027344 C 195.15625 215.859375 199.398438 216.003906 199.398438 216.003906 L 199.25 212.871094 C 199.25 212.871094 194.777344 211.273438 192.695312 209.414062 C 190.617188 207.554688 188.722656 202.773438 188.722656 202.773438 C 185.871094 199.964844 184.082031 193.757812 184.082031 193.757812 C 182.589844 182.859375 192.835938 181.910156 195.0625 181.800781 C 197.292969 181.691406 200.761719 180.039062 200.761719 180.039062 L 200.480469 179.40625 C 200.480469 179.40625 201.679688 176.308594 201.574219 174.433594 C 201.46875 172.558594 197.421875 168.816406 198.847656 171.285156 C 200.273438 173.753906 196.753906 176.703125 196.753906 176.703125 L 196.296875 174.425781 C 192.847656 165.066406 182.609375 170.011719 182.609375 170.011719 L 186.480469 173.921875 C 183.691406 173.378906 176.011719 175.394531 176.011719 175.394531 C 176.011719 175.394531 170.105469 177.636719 173.613281 177.082031 C 177.121094 176.53125 181.585938 178.324219 181.585938 178.324219 C 169.039062 181.417969 167.71875 189.164062 167.71875 189.164062 C 167.71875 189.164062 163.953125 193.257812 160.53125 201.773438 C 157.113281 210.289062 165.378906 225.128906 165.378906 225.128906 C 165.378906 225.128906 171.074219 234.839844 181.761719 240.769531 C 192.449219 246.699219 203.863281 240.570312 203.863281 240.570312 C 205.269531 239.367188 199.15625 229.019531 199.15625 229.019531 C 199.15625 229.019531 195.476562 229.511719 193.238281 229.308594 " fill-opacity="1" fill-rule="nonzero"/><path fill="#e7cac8" d="M 246.875 182.992188 C 246.875 182.992188 256.324219 186.894531 255.917969 195.476562 L 257.496094 195.898438 C 257.496094 195.898438 267.300781 177.746094 265.15625 174.03125 C 265.15625 174.03125 248.839844 179.953125 246.875 182.992188 " fill-opacity="1" fill-rule="nonzero"/><g clip-path="url(#fd46adf7c6)"><path fill="#000000" d="M 234.398438 225.144531 C 233.742188 223.796875 233.210938 222.703125 232.601562 221.449219 C 234.769531 218.453125 235.746094 214.917969 236.183594 211.1875 C 236.203125 211.035156 236.242188 210.886719 236.28125 210.734375 C 237.464844 206.121094 236.183594 203.59375 231.730469 201.699219 C 231.375 201.550781 231.089844 201.210938 230.910156 200.609375 C 231.378906 200.671875 231.882812 200.644531 232.316406 200.8125 C 236.308594 202.339844 240.300781 201.847656 244.101562 200.382812 C 248.820312 198.566406 253.636719 197.386719 258.601562 196.546875 C 261.566406 196.042969 264.476562 195.066406 267.324219 194.039062 C 270.847656 192.757812 274.488281 192.210938 278.125 191.550781 C 278.21875 191.710938 278.3125 191.871094 278.40625 192.03125 C 276.457031 195.316406 274.625 198.683594 272.53125 201.863281 C 269.484375 206.496094 264.890625 208.785156 259.699219 209.949219 C 259.015625 210.101562 258.199219 209.902344 257.5 209.683594 C 253.484375 208.453125 252.332031 208.789062 249.65625 212.210938 C 247.011719 215.59375 244.4375 219.011719 241.269531 221.960938 C 239.210938 223.871094 236.652344 223.996094 234.398438 225.144531 Z M 224.976562 258.527344 C 224.960938 258.550781 224.949219 258.574219 224.933594 258.597656 C 224.871094 258.710938 224.808594 258.820312 224.746094 258.933594 C 224.730469 258.957031 224.71875 258.980469 224.703125 259.003906 C 224.652344 259.089844 224.601562 259.175781 224.554688 259.265625 C 224.476562 259.398438 224.398438 259.535156 224.320312 259.671875 C 223.324219 261.410156 222.332031 263.144531 221.335938 264.878906 C 219.277344 263.804688 217.324219 262.546875 215.503906 261.113281 C 215.417969 261.046875 215.332031 260.980469 215.246094 260.910156 C 215.203125 260.875 215.160156 260.839844 215.113281 260.804688 C 215.039062 260.742188 214.964844 260.683594 214.886719 260.621094 C 214.816406 260.5625 214.746094 260.5 214.671875 260.441406 C 214.546875 260.339844 214.425781 260.234375 214.300781 260.128906 C 213.289062 259.265625 212.320312 258.347656 211.398438 257.375 C 211.292969 257.261719 211.1875 257.152344 211.082031 257.039062 C 211.0625 257.015625 211.039062 256.992188 211.019531 256.96875 C 210.921875 256.867188 210.828125 256.765625 210.738281 256.660156 C 210.664062 256.578125 210.59375 256.5 210.523438 256.421875 C 210.425781 256.3125 210.332031 256.203125 210.234375 256.09375 C 209.25 254.964844 208.324219 253.769531 207.457031 252.511719 C 206.316406 250.863281 205.800781 248.746094 205.128906 246.792969 C 204.898438 246.125 205.066406 245.3125 205.042969 244.027344 C 209.164062 246.953125 213.355469 247.914062 217.613281 248.667969 C 221.765625 249.402344 225.929688 250 230.21875 249.375 C 228.984375 251.535156 227.769531 253.652344 226.566406 255.75 C 226.566406 255.753906 226.566406 255.753906 226.566406 255.753906 C 226.519531 255.832031 226.472656 255.914062 226.429688 255.988281 C 226.421875 256 226.417969 256.011719 226.410156 256.019531 C 226.394531 256.050781 226.378906 256.074219 226.363281 256.101562 C 226.363281 256.109375 226.359375 256.113281 226.359375 256.117188 C 226.351562 256.125 226.34375 256.136719 226.339844 256.144531 C 226.304688 256.207031 226.269531 256.269531 226.234375 256.328125 C 226.230469 256.339844 226.222656 256.347656 226.21875 256.355469 C 226.199219 256.390625 226.179688 256.425781 226.160156 256.460938 C 226.09375 256.574219 226.03125 256.6875 225.964844 256.800781 C 225.902344 256.910156 225.835938 257.027344 225.773438 257.136719 C 225.507812 257.601562 225.242188 258.0625 224.976562 258.527344 Z M 256.226562 176.507812 C 253.1875 178.492188 250.71875 180.453125 247.667969 181.46875 C 247.648438 181.28125 247.605469 181.179688 247.632812 181.136719 C 250.144531 177.496094 252.398438 173.652344 255.765625 170.710938 C 256.222656 170.316406 256.726562 169.855469 257.273438 169.71875 C 257.789062 169.589844 258.394531 169.855469 259.222656 169.992188 C 258.167969 171.09375 257.40625 171.886719 256.460938 172.867188 L 259.382812 172.257812 C 257.386719 173.859375 255.796875 175.136719 253.960938 176.609375 C 254.722656 176.574219 255.234375 176.550781 256.226562 176.507812 Z M 193.976562 230.722656 C 195.769531 231.996094 197.679688 233.085938 199.539062 234.257812 C 200.207031 234.675781 200.875 235.101562 201.539062 235.519531 C 196.71875 236.390625 194.308594 234.988281 190.597656 229.859375 C 191.910156 229.71875 192.929688 229.976562 193.976562 230.722656 Z M 198.800781 232.398438 C 197.203125 232.105469 195.972656 231.945312 195.164062 230.285156 C 195.878906 230.058594 196.425781 229.886719 197.097656 229.671875 C 197.628906 230.519531 198.121094 231.308594 198.800781 232.398438 Z M 219.679688 179.375 C 226.0625 182.402344 232.703125 184.480469 239.640625 185.59375 C 240.230469 185.6875 240.898438 185.457031 241.496094 185.261719 C 243.007812 184.769531 244.488281 184.175781 246.003906 183.707031 C 246.394531 183.585938 246.929688 183.648438 247.3125 183.820312 C 251.207031 185.578125 254.027344 188.308594 254.765625 192.78125 C 255.1875 195.308594 254.847656 195.632812 252.429688 196.265625 C 250.082031 196.882812 247.726562 197.535156 245.472656 198.421875 C 240.605469 200.34375 235.753906 200.808594 230.828125 198.773438 C 230.203125 198.519531 229.597656 198.191406 229.035156 197.8125 C 227.601562 196.839844 226.308594 195.65625 224.539062 195.226562 C 223.46875 194.960938 223.164062 193.929688 222.964844 192.882812 C 222.558594 190.722656 221.941406 190.1875 219.816406 189.945312 C 217.148438 189.636719 214.902344 191.003906 213.402344 193.824219 C 212.574219 195.386719 211.78125 196.976562 210.859375 198.480469 C 210.386719 199.253906 209.746094 199.976562 209.03125 200.523438 C 208.503906 200.929688 207.742188 201.015625 206.691406 201.382812 C 206.945312 200.183594 207.058594 199.453125 207.265625 198.75 C 207.542969 197.785156 208.085938 196.859375 208.167969 195.886719 C 208.449219 192.550781 210.285156 190.273438 212.730469 188.304688 C 213.738281 187.492188 214.652344 186.546875 215.511719 185.566406 C 216.558594 184.371094 217.789062 183.65625 219.351562 183.574219 C 217.921875 182.472656 216.554688 183.253906 215.542969 184.125 C 213.347656 186.019531 211.203125 188.03125 209.335938 190.257812 C 207.285156 192.691406 205.640625 195.480469 203.679688 198 C 202.613281 199.367188 201.320312 200.585938 199.992188 201.695312 C 199.453125 202.148438 198.535156 202.132812 197.367188 202.445312 C 197.679688 201.476562 197.769531 200.96875 198 200.539062 C 199.445312 197.828125 200.898438 195.121094 202.398438 192.441406 C 202.882812 191.578125 203.402344 190.679688 204.09375 189.996094 C 206.773438 187.371094 209.558594 184.863281 212.234375 182.238281 C 213.46875 181.027344 214.789062 180.757812 216.402344 181.148438 C 218.21875 181.585938 220.066406 181.890625 221.9375 182.042969 C 219.605469 180.878906 217.125 180.394531 214.578125 180.359375 C 212.980469 180.335938 211.695312 181.214844 210.558594 182.296875 C 208.234375 184.515625 205.765625 186.609375 203.648438 189.019531 C 202.15625 190.71875 201.117188 192.835938 199.925781 194.796875 C 199.007812 196.304688 198.1875 197.878906 197.28125 199.402344 C 195.914062 201.695312 194.609375 201.792969 192.695312 199.824219 C 194.296875 196.390625 195.925781 193 197.457031 189.558594 C 198.472656 187.273438 200.03125 185.621094 202.226562 184.476562 C 204.519531 183.277344 206.683594 181.808594 209.011719 180.699219 C 210.679688 179.90625 212.527344 179.507812 214.175781 178.96875 C 213.050781 178.269531 211.570312 178.171875 210.261719 178.882812 C 206.453125 180.953125 202.640625 183.039062 199.011719 185.414062 C 197.773438 186.222656 197.035156 187.875 196.160156 189.207031 C 195.660156 189.972656 195.421875 190.910156 194.933594 191.6875 C 194.667969 192.109375 194.128906 192.363281 193.644531 192.746094 C 193.457031 192.289062 193.324219 192.121094 193.359375 192.023438 C 194.507812 189.082031 195.6875 186.148438 196.828125 183.199219 C 197.128906 182.417969 197.636719 182.027344 198.398438 181.691406 C 200.476562 180.765625 202.613281 179.878906 204.503906 178.628906 C 207.1875 176.859375 210.035156 176.492188 212.992188 177.152344 C 215.277344 177.660156 217.566406 178.375 219.679688 179.375 Z M 173.183594 233.847656 C 171 230.917969 170.402344 228.058594 170.632812 224.957031 C 171.433594 227.757812 172.238281 230.558594 173.183594 233.847656 Z M 189.960938 242.195312 C 184.976562 242.132812 181.894531 239.003906 178.996094 235.289062 C 179.324219 236.261719 179.652344 237.238281 179.984375 238.210938 C 179.90625 238.285156 179.824219 238.359375 179.746094 238.433594 C 179.183594 237.902344 178.421875 237.476562 178.089844 236.820312 C 175.578125 231.878906 174.507812 226.605469 175.351562 221.085938 C 176.109375 216.121094 178.816406 212.339844 182.355469 209.144531 C 182.796875 208.746094 183.253906 208.355469 183.71875 207.976562 C 184.59375 207.257812 185.492188 206.578125 186.65625 205.664062 C 185.320312 205.945312 183.769531 206.816406 182.230469 208.039062 C 179.65625 210.09375 177.121094 213.140625 175.71875 216.117188 C 174.035156 219.691406 172.796875 221.960938 174.476562 231.699219 C 173.957031 230.96875 173.582031 230.609375 173.414062 230.167969 C 172.53125 227.863281 171.691406 225.539062 170.867188 223.210938 C 170.71875 222.785156 170.585938 222.28125 170.664062 221.855469 C 171.347656 218.140625 171.773438 214.320312 174.527344 211.394531 C 175.050781 210.839844 175.511719 210.226562 176.074219 209.554688 C 171.4375 211.917969 169.148438 217.851562 168.84375 226.980469 C 166.652344 223.53125 167.34375 219.53125 171.128906 212.011719 C 169.886719 213.886719 168.652344 215.757812 167.375 217.683594 C 167.269531 217.589844 167.074219 217.417969 166.777344 217.160156 C 165.574219 219.476562 166.199219 221.949219 166.289062 224.769531 C 164.234375 222.597656 163.609375 220.441406 164.003906 218.054688 C 164.144531 217.199219 164.875 216.464844 165.230469 215.625 C 166.707031 212.121094 168.90625 209.238281 172.054688 207.128906 C 175.5 204.824219 178.585938 202.070312 181.316406 198.933594 C 181.410156 198.824219 181.5 198.714844 181.585938 198.601562 C 182.265625 197.71875 182.769531 196.671875 183.367188 195.714844 C 183.222656 195.605469 183.078125 195.496094 182.933594 195.386719 C 182.472656 195.957031 182.027344 196.539062 181.570312 197.113281 C 181.265625 197.496094 180.957031 197.875 180.636719 198.242188 C 178.214844 201.039062 175.527344 203.542969 172.5 205.648438 C 169.085938 208.027344 165.972656 210.679688 164.53125 215.035156 C 164.230469 214.582031 164.078125 214.351562 163.851562 214.011719 C 163.535156 214.546875 163.242188 215.039062 162.953125 215.519531 C 162.773438 215.464844 162.585938 215.464844 162.53125 215.378906 C 160.195312 211.765625 159.488281 207.894531 160.570312 203.652344 C 161.921875 198.363281 164.277344 193.6875 168.246094 189.925781 C 168.855469 189.347656 169.398438 188.699219 169.964844 188.066406 C 170.0625 187.960938 170.105469 187.800781 170.242188 187.539062 C 169.835938 187.445312 169.46875 187.359375 168.914062 187.226562 C 170.414062 184.691406 172.140625 182.433594 174.847656 181.378906 C 178.167969 180.074219 181.570312 178.953125 184.996094 177.964844 C 187.214844 177.324219 187.539062 177.648438 188.332031 179.839844 C 188.335938 179.847656 188.335938 179.855469 188.339844 179.863281 C 188.523438 180.367188 188.710938 180.875 188.929688 181.363281 C 188.980469 181.476562 189.160156 181.523438 189.28125 181.597656 C 189.65625 180.816406 189.78125 179.996094 189.703125 179.261719 C 189.542969 177.765625 188.527344 176.621094 187.015625 176.828125 C 183.5 177.308594 180.070312 176.234375 176.59375 176.660156 C 175.921875 176.742188 175.238281 176.738281 174.523438 176.605469 C 176.796875 175.253906 179.308594 174.734375 181.886719 174.535156 C 183.097656 174.441406 184.316406 174.519531 185.53125 174.558594 C 188.691406 174.65625 190.972656 176.054688 192.4375 178.636719 C 192.664062 179.03125 192.875 179.457031 193.0625 179.910156 C 193.136719 180.089844 193.277344 180.242188 193.429688 180.460938 C 193.53125 179.8125 193.523438 179.183594 193.417969 178.578125 L 193.417969 178.574219 C 193.039062 176.398438 191.398438 174.574219 189.046875 173.761719 C 187.648438 173.277344 186.320312 172.578125 185.039062 171.792969 C 188.277344 170.8125 190.40625 172.890625 192.996094 174.847656 C 191.28125 170.6875 188.234375 169.816406 184.546875 170.113281 C 186.335938 169.03125 187.71875 168.757812 189.488281 169.253906 C 192.417969 170.078125 194.648438 171.902344 195.882812 174.738281 C 196.242188 175.570312 196.074219 176.679688 195.992188 177.648438 C 195.960938 178.019531 195.785156 178.378906 195.601562 178.738281 C 195.515625 178.910156 195.429688 179.078125 195.359375 179.253906 C 195.511719 179.332031 195.65625 179.414062 195.804688 179.496094 C 195.925781 179.273438 196.054688 179.058594 196.199219 178.847656 C 197.527344 176.878906 199.613281 175.394531 199.59375 172.527344 C 201.078125 174.082031 201.367188 175.3125 200.707031 177.035156 C 200.515625 177.539062 200.277344 178.03125 200.144531 178.546875 C 200.035156 178.980469 200.042969 179.449219 200 179.90625 C 199.976562 179.917969 199.957031 179.933594 199.9375 179.945312 C 199.660156 180.125 199.433594 180.34375 199.175781 180.398438 C 198.21875 180.585938 197.472656 180.964844 196.871094 181.484375 C 195.859375 182.363281 195.273438 183.644531 194.796875 185.109375 C 193.992188 187.589844 192.890625 189.96875 191.882812 192.492188 C 192.679688 192.960938 193.308594 193.328125 194.058594 193.765625 C 193.28125 195.332031 192.511719 196.824219 191.792969 198.34375 C 190.84375 200.355469 191.894531 202.09375 194.117188 202.046875 C 195.183594 202.023438 196.039062 202.140625 197.0625 202.621094 C 198 203.058594 199.433594 202.683594 200.558594 202.355469 C 202.21875 201.867188 203.378906 200.582031 204.375 199.179688 C 204.90625 198.433594 205.410156 197.667969 206.304688 197.027344 C 206.066406 197.9375 205.804688 198.84375 205.585938 199.757812 C 205.1875 201.394531 205.832031 202.175781 207.472656 201.878906 C 209.070312 201.585938 210.5625 200.898438 211.535156 199.523438 C 212.511719 198.152344 213.320312 196.65625 214.179688 195.203125 C 214.691406 194.339844 215.089844 193.402344 215.667969 192.601562 C 217.066406 190.683594 218.949219 190.300781 220.867188 191.574219 C 221.308594 191.863281 221.78125 192.566406 221.75 193.054688 C 221.597656 195.53125 223.203125 196.171875 225.074219 196.621094 C 225.585938 196.746094 226.089844 196.886719 227.015625 197.128906 C 226.40625 197.710938 226.046875 198.117188 225.628906 198.445312 C 222.710938 200.738281 221.378906 203.804688 221.328125 207.507812 C 221.324219 207.777344 221.429688 208.050781 221.855469 208.371094 C 222.199219 206.988281 222.5625 205.605469 222.875 204.214844 C 223.320312 202.25 224.308594 200.648438 225.835938 199.382812 C 226.664062 198.695312 226.667969 198.699219 228.355469 198.75 C 229.238281 200.105469 229.53125 201.324219 228.015625 202.566406 C 227.164062 203.265625 226.644531 204.34375 226.648438 205.738281 C 227.859375 204.613281 228.902344 203.636719 229.945312 202.664062 C 230.714844 203.019531 231.453125 203.371094 232.203125 203.699219 C 234.980469 204.914062 236.238281 207.285156 235.429688 210.277344 C 234.566406 213.476562 233.570312 216.644531 232.492188 219.773438 C 232 221.214844 231.640625 222.554688 232.246094 224.035156 C 232.761719 225.304688 232.613281 226.570312 232.253906 227.890625 C 231.222656 231.671875 231.886719 235.242188 233.808594 238.597656 C 233.9375 238.832031 234.167969 239.007812 234.679688 239.070312 L 232.960938 230.507812 C 234.332031 231.078125 234.507812 232.136719 234.859375 232.96875 C 235.425781 234.316406 235.886719 235.71875 236.257812 237.136719 C 236.46875 237.9375 236.601562 238.851562 236.4375 239.644531 C 236.003906 241.757812 235.367188 243.824219 234.859375 245.921875 C 234.5625 247.164062 233.726562 247.734375 232.601562 247.882812 C 230.648438 248.144531 228.675781 248.539062 226.726562 248.488281 C 221.078125 248.339844 215.570312 247.273438 210.207031 245.421875 C 208.03125 244.667969 206.675781 243.296875 205.890625 241.042969 C 205.113281 238.800781 203.949219 236.695312 202.933594 234.539062 C 202.445312 233.503906 201.902344 232.496094 201.511719 231.726562 C 202.558594 229.882812 203.457031 228.308594 204.449219 226.570312 C 206.457031 226.78125 208.628906 226.960938 210.789062 227.25 C 212.789062 227.519531 214.726562 227.316406 216.625 226.65625 C 218.488281 226.003906 220.394531 225.457031 222.203125 224.679688 C 224.546875 223.679688 226.585938 222.199219 228.042969 220.015625 C 228.226562 219.738281 228.324219 219.398438 228.535156 218.910156 C 226.539062 220.554688 224.875 222.277344 222.894531 223.457031 C 219.9375 225.222656 216.597656 226.324219 213.195312 226.429688 C 210.671875 226.511719 208.117188 225.667969 205.578125 225.222656 C 205 225.121094 204.425781 224.980469 204.003906 224.886719 C 203.328125 226.074219 202.894531 227.246094 202.117188 228.097656 C 201.167969 229.140625 199.839844 228.417969 198.65625 228.414062 C 197.152344 228.410156 195.644531 228.800781 194.140625 228.753906 C 190.257812 228.621094 187.625 226.546875 186.042969 222.984375 C 185.328125 221.375 185.632812 219.960938 186.765625 218.703125 C 188.550781 216.730469 190.683594 215.84375 193.328125 216.589844 C 194.054688 216.796875 194.804688 216.945312 195.558594 217.054688 C 197.089844 217.28125 198.5625 217.125 200.074219 216.253906 L 199.378906 212.804688 C 199.28125 212.808594 199.183594 212.808594 199.085938 212.8125 C 199.070312 212.8125 199.050781 212.8125 199.035156 212.8125 C 198.898438 213.792969 198.765625 214.773438 198.628906 215.75 C 198.503906 215.761719 198.378906 215.769531 198.257812 215.777344 L 197.769531 213.339844 C 197.660156 213.324219 197.550781 213.3125 197.4375 213.296875 C 197.164062 214.039062 196.894531 214.785156 196.539062 215.75 C 195.605469 215.574219 194.660156 215.390625 193.714844 215.222656 C 189.699219 214.519531 185.511719 217.253906 184.496094 221.285156 C 184.480469 221.351562 184.460938 221.421875 184.445312 221.488281 C 183.707031 224.484375 183.433594 227.519531 184.035156 230.621094 C 184.363281 228.820312 184.691406 227.015625 185.085938 224.847656 C 187.253906 227.488281 189.230469 229.785156 191.082031 232.1875 C 192.628906 234.199219 194.320312 235.839844 196.929688 236.269531 C 198.558594 236.542969 200.164062 237 201.769531 237.417969 C 202.152344 237.515625 202.484375 237.804688 203.183594 238.195312 C 199.902344 239.699219 196.925781 238.902344 193.972656 238.632812 C 190.605469 238.320312 188.804688 235.636719 186.5 233.675781 C 187.992188 236.175781 189.03125 239.152344 192.683594 239.25 C 193.347656 239.269531 194 239.601562 194.667969 239.753906 C 197.4375 240.40625 200.214844 240.523438 203.117188 239.664062 C 201.667969 241.53125 195.292969 242.046875 191.007812 240.96875 C 186.46875 239.824219 184.363281 236.121094 182.089844 232.535156 C 183.175781 237.074219 185.964844 240.128906 189.960938 242.195312 Z M 237.953125 254.8125 C 237.910156 254.867188 237.863281 254.925781 237.816406 254.984375 C 237.808594 254.992188 237.800781 255.003906 237.789062 255.011719 C 237.773438 255.035156 237.753906 255.058594 237.734375 255.082031 C 237.691406 255.128906 237.652344 255.175781 237.613281 255.226562 C 237.585938 255.253906 237.5625 255.277344 237.539062 255.304688 C 237.53125 255.3125 237.523438 255.320312 237.515625 255.328125 C 237.464844 255.375 237.410156 255.421875 237.351562 255.464844 C 237.347656 255.46875 237.34375 255.472656 237.335938 255.476562 C 237.332031 255.480469 237.328125 255.484375 237.324219 255.488281 C 237.269531 255.523438 237.214844 255.5625 237.160156 255.597656 C 237.082031 255.644531 237.003906 255.6875 236.917969 255.730469 C 236.765625 255.808594 236.605469 255.878906 236.445312 255.941406 C 236.382812 255.964844 236.320312 255.988281 236.257812 256.011719 C 234.796875 256.550781 233.324219 256.648438 231.8125 256.554688 C 231.511719 256.535156 231.210938 256.511719 230.90625 256.480469 C 230.757812 256.460938 230.609375 256.445312 230.457031 256.429688 C 230.335938 256.414062 230.210938 256.398438 230.085938 256.382812 C 230.082031 256.378906 230.074219 256.378906 230.070312 256.378906 C 229.804688 256.34375 229.535156 256.304688 229.265625 256.265625 C 229.175781 256.25 229.078125 256.238281 228.984375 256.222656 C 228.886719 256.210938 228.789062 256.195312 228.6875 256.179688 C 228.601562 256.164062 228.515625 256.152344 228.429688 256.140625 C 228.324219 256.125 228.21875 256.109375 228.113281 256.089844 L 228.113281 256.078125 C 228.113281 256.078125 228.113281 256.074219 228.113281 256.070312 C 228.113281 256 228.117188 255.925781 228.121094 255.851562 C 228.121094 255.84375 228.121094 255.835938 228.121094 255.828125 C 228.191406 254.371094 228.753906 252.988281 229.675781 251.769531 C 231.191406 249.773438 233.675781 248.222656 236.554688 247.554688 C 236.554688 247.554688 236.558594 247.554688 236.558594 247.554688 C 236.789062 247.5 237.023438 247.453125 237.257812 247.410156 C 238.003906 247.277344 238.777344 247.203125 239.558594 247.191406 C 240.445312 250.085938 239.71875 252.582031 237.953125 254.8125 Z M 261.191406 186.152344 C 259.96875 184.148438 258.558594 182.398438 255.992188 181.171875 C 257.359375 182.820312 258.4375 184.054688 259.453125 185.347656 C 260.628906 186.851562 260.980469 188.328125 259.742188 190.128906 C 258.648438 191.722656 257.929688 193.582031 256.835938 195.285156 C 256.226562 192.683594 256 190.085938 254.371094 187.925781 C 252.761719 185.796875 250.683594 184.300781 247.964844 182.824219 C 253.621094 179.820312 258.734375 176.71875 264.378906 174.542969 C 264.675781 177.25 262.878906 183.75 261.191406 186.152344 Z M 291.8125 252.738281 C 291.242188 251.402344 290.449219 249.996094 290.433594 248.617188 C 290.378906 244.371094 290.617188 240.121094 290.839844 235.878906 C 290.882812 234.996094 291.171875 234.035156 291.625 233.289062 C 294.902344 227.894531 298.429688 222.652344 301.519531 217.152344 C 304.460938 211.921875 307.15625 206.507812 308.519531 200.566406 C 309.695312 195.449219 310.886719 190.324219 311.796875 185.152344 C 312.71875 179.894531 313.34375 174.585938 313.007812 169.214844 C 312.730469 164.796875 311.820312 160.5 310.871094 156.191406 C 310.476562 154.402344 309.621094 153.394531 308.0625 152.980469 C 306.917969 152.675781 305.660156 152.519531 304.488281 152.636719 C 302.757812 152.808594 301.03125 153.179688 299.347656 153.648438 C 295.246094 154.785156 291.140625 155.933594 287.09375 157.257812 C 283.125 158.554688 279.105469 159.804688 275.332031 161.574219 C 272.042969 163.113281 269.042969 165.300781 265.96875 167.292969 C 265.007812 167.917969 264.089844 168.164062 262.972656 168.023438 C 261.542969 167.839844 260.101562 167.75 258.664062 167.691406 C 258.15625 167.667969 257.503906 167.679688 257.148438 167.972656 C 255.558594 169.277344 253.832031 170.503906 252.554688 172.09375 C 250.203125 175.023438 248.097656 178.160156 245.957031 181.257812 C 244.113281 183.921875 241.492188 184.703125 238.597656 184.140625 C 235.546875 183.554688 232.558594 182.609375 229.59375 181.65625 C 224.527344 180.027344 219.496094 178.28125 214.457031 176.5625 C 210.757812 175.296875 207.28125 175.753906 203.960938 177.804688 C 203.074219 178.351562 202.132812 178.820312 201.21875 179.320312 C 201.085938 179.25 200.949219 179.175781 200.8125 179.101562 C 202.109375 176.9375 203.058594 174.667969 201.65625 172.375 C 200.371094 170.261719 198.164062 169.386719 195.546875 168.394531 C 196.691406 169.609375 197.75 170.339844 198.246094 171.359375 C 198.785156 172.472656 198.808594 173.855469 197.804688 175.199219 C 197.480469 174.554688 197.234375 174.085938 197.003906 173.605469 C 195.320312 170.105469 191.117188 166.671875 185.835938 168.25 C 183.578125 168.921875 181.324219 169.59375 179.082031 170.324219 C 178.601562 170.480469 178.195312 170.886719 177.753906 171.175781 C 180.355469 170.769531 182.800781 170.460938 184.605469 173.066406 C 176.238281 174.105469 169.65625 176.800781 167.898438 179.871094 C 172.027344 177.796875 177.644531 176.988281 180.28125 178.175781 C 179.78125 178.390625 179.394531 178.617188 178.972656 178.730469 C 173.085938 180.308594 168.835938 183.816406 166.480469 189.621094 C 166.136719 190.464844 165.636719 191.292969 165.03125 191.960938 C 161.941406 195.367188 160.359375 199.511719 159.203125 203.890625 C 158.410156 206.894531 158.410156 209.835938 159.5 212.777344 C 160.621094 215.804688 161.734375 218.839844 162.699219 221.917969 C 163.851562 225.59375 165.84375 228.570312 168.980469 230.765625 C 169.511719 231.136719 169.953125 231.726562 170.269531 232.308594 C 171.21875 234.050781 172.53125 235.386719 174.164062 236.453125 C 175.765625 237.492188 177.308594 238.625 178.925781 239.628906 C 184.488281 243.09375 190.40625 244.890625 196.960938 243.414062 C 198.933594 242.96875 200.878906 242.40625 203 241.851562 C 202.671875 242.265625 202.394531 242.609375 202.128906 242.953125 C 200.808594 244.648438 199.488281 246.351562 198.167969 248.046875 C 196.15625 250.625 195.257812 253.429688 196.386719 256.691406 C 196.472656 256.933594 196.523438 257.171875 196.550781 257.410156 C 196.554688 257.472656 196.558594 257.535156 196.5625 257.597656 C 196.566406 257.652344 196.566406 257.703125 196.566406 257.757812 C 196.566406 257.824219 196.5625 257.886719 196.558594 257.953125 C 196.550781 258.078125 196.53125 258.207031 196.507812 258.335938 C 196.488281 258.457031 196.457031 258.578125 196.421875 258.703125 C 196.34375 258.980469 196.238281 259.265625 196.101562 259.5625 C 195.617188 260.617188 195.09375 261.644531 194.539062 262.644531 C 194.46875 262.777344 194.390625 262.914062 194.316406 263.042969 C 194.28125 263.109375 194.242188 263.175781 194.207031 263.238281 C 194.125 263.378906 194.042969 263.519531 193.964844 263.65625 C 193.863281 263.824219 193.765625 263.988281 193.664062 264.15625 C 193.578125 264.296875 193.496094 264.4375 193.40625 264.574219 C 190.386719 269.441406 186.539062 273.617188 182.132812 277.359375 C 178.929688 280.078125 175.796875 282.886719 172.6875 285.722656 C 172.371094 286.015625 172.089844 286.324219 171.839844 286.652344 L 173.417969 286.652344 C 174.074219 285.710938 174.929688 284.878906 175.984375 284.140625 C 177.988281 282.738281 179.960938 281.289062 181.984375 279.917969 C 187.589844 276.121094 191.90625 271.097656 195.484375 265.347656 C 195.753906 264.917969 196.039062 264.496094 196.339844 264.074219 C 196.441406 263.933594 196.542969 263.789062 196.644531 263.648438 C 196.773438 263.472656 196.902344 263.292969 197.035156 263.113281 C 197.136719 262.972656 197.238281 262.832031 197.339844 262.691406 C 197.347656 262.683594 197.355469 262.671875 197.363281 262.664062 C 197.460938 262.527344 197.558594 262.394531 197.65625 262.257812 C 197.6875 262.207031 197.722656 262.15625 197.757812 262.109375 C 197.796875 262.152344 197.832031 262.191406 197.863281 262.230469 C 197.976562 262.359375 198.078125 262.46875 198.167969 262.5625 C 198.28125 262.6875 198.375 262.785156 198.445312 262.890625 C 198.480469 262.941406 198.503906 262.988281 198.527344 263.042969 C 198.5625 263.136719 198.601562 263.226562 198.636719 263.320312 C 198.683594 263.433594 198.726562 263.550781 198.777344 263.667969 C 199.992188 266.746094 201.226562 269.820312 202.375 272.929688 C 203.230469 275.246094 203.945312 275.886719 206.335938 275.980469 C 207.09375 276.011719 207.855469 275.953125 208.613281 275.933594 C 210.5 275.886719 212.390625 275.839844 214.59375 275.785156 C 214.164062 276.792969 213.816406 277.539062 213.523438 278.304688 C 212.941406 279.816406 212.394531 281.34375 211.824219 282.859375 C 211.378906 284.042969 211.6875 284.949219 212.71875 285.664062 C 213.171875 285.980469 213.617188 286.316406 214.058594 286.652344 L 217.464844 286.652344 C 216.417969 286.078125 215.371094 285.503906 214.324219 284.925781 C 213.667969 284.5625 213.089844 284.054688 212.386719 283.550781 C 213.742188 279.816406 216.042969 276.59375 217.203125 272.824219 C 212.878906 273.363281 208.785156 273.871094 204.585938 274.394531 C 204.261719 273.609375 203.96875 272.992188 203.75 272.347656 C 202.730469 269.351562 201.710938 266.355469 200.695312 263.355469 C 200.65625 263.238281 200.617188 263.121094 200.578125 263.003906 C 200.53125 262.871094 200.484375 262.734375 200.441406 262.601562 C 200.40625 262.496094 200.371094 262.394531 200.335938 262.289062 C 200.332031 262.273438 200.324219 262.261719 200.320312 262.246094 C 200.285156 262.144531 200.25 262.039062 200.21875 261.9375 C 199.820312 260.761719 199.421875 259.582031 199.03125 258.40625 C 198.992188 258.289062 198.953125 258.175781 198.914062 258.0625 C 198.886719 257.976562 198.859375 257.890625 198.828125 257.804688 C 198.792969 257.703125 198.757812 257.601562 198.726562 257.5 C 198.722656 257.488281 198.71875 257.472656 198.710938 257.457031 C 198.683594 257.375 198.65625 257.289062 198.625 257.203125 C 198.621094 257.1875 198.617188 257.175781 198.613281 257.160156 C 197.5625 253.980469 197.683594 250.964844 199.917969 248.253906 C 200.933594 247.023438 201.875 245.726562 203.050781 244.199219 C 203.273438 244.792969 203.476562 245.101562 203.488281 245.414062 C 203.679688 249.746094 205.667969 253.191406 208.480469 256.230469 C 208.550781 256.308594 208.621094 256.386719 208.691406 256.460938 C 208.722656 256.492188 208.753906 256.523438 208.785156 256.554688 C 208.898438 256.675781 209.015625 256.800781 209.132812 256.917969 C 209.203125 256.992188 209.273438 257.066406 209.34375 257.136719 C 209.367188 257.167969 209.394531 257.191406 209.421875 257.21875 C 209.503906 257.304688 209.585938 257.386719 209.667969 257.472656 C 210.648438 258.464844 211.65625 259.425781 212.699219 260.339844 C 212.820312 260.445312 212.941406 260.550781 213.0625 260.65625 C 213.167969 260.746094 213.269531 260.835938 213.375 260.925781 C 213.417969 260.960938 213.460938 261 213.503906 261.035156 C 213.578125 261.097656 213.652344 261.15625 213.722656 261.21875 C 213.777344 261.261719 213.828125 261.304688 213.878906 261.347656 C 215.046875 262.316406 216.257812 263.234375 217.527344 264.101562 C 220.542969 266.164062 223.378906 268.535156 226.136719 270.953125 C 231.773438 275.898438 237.390625 280.875 242.847656 286.019531 C 243.070312 286.230469 243.292969 286.441406 243.515625 286.652344 L 245.570312 286.652344 C 244.804688 285.878906 244.039062 285.109375 243.269531 284.347656 C 238.054688 279.171875 232.351562 274.515625 226.851562 269.640625 C 225.324219 268.289062 223.753906 266.980469 222.039062 265.515625 C 223.203125 263.972656 224.28125 262.597656 225.3125 261.175781 C 225.992188 260.238281 226.75 259.496094 227.59375 258.960938 C 228.746094 258.222656 230.058594 257.867188 231.546875 257.894531 C 231.902344 257.898438 232.265625 257.929688 232.640625 257.976562 C 233.492188 258.089844 234.417969 258.027344 235.261719 257.816406 C 235.347656 257.792969 235.433594 257.769531 235.519531 257.742188 C 235.714844 257.6875 235.910156 257.625 236.09375 257.554688 C 236.265625 257.492188 236.433594 257.429688 236.59375 257.355469 C 237.089844 257.144531 237.542969 256.894531 237.960938 256.613281 C 238.054688 256.546875 238.144531 256.480469 238.234375 256.414062 C 238.367188 256.316406 238.496094 256.210938 238.621094 256.105469 C 238.652344 256.078125 238.683594 256.050781 238.714844 256.019531 C 238.75 255.992188 238.785156 255.957031 238.820312 255.925781 C 238.878906 255.867188 238.941406 255.808594 239 255.75 C 239.097656 255.65625 239.1875 255.558594 239.277344 255.460938 C 240.472656 254.125 241.140625 252.363281 241.359375 250.289062 C 241.492188 249.019531 241.941406 248.253906 243.011719 247.816406 C 244.765625 247.097656 246.535156 246.402344 248.3125 245.746094 C 249.429688 245.335938 250.582031 245.011719 251.714844 244.648438 C 251.691406 244.566406 251.667969 244.484375 251.644531 244.398438 C 246.488281 245.085938 241.335938 245.769531 236.066406 246.46875 C 236.59375 244.570312 237.292969 242.753906 237.550781 240.875 C 237.8125 238.992188 237.859375 237.011719 237.582031 235.140625 C 237.316406 233.34375 236.515625 231.628906 235.84375 229.546875 C 236.425781 229.863281 236.65625 229.929688 236.800781 230.078125 C 239.84375 233.15625 243.15625 235.882812 246.585938 238.460938 C 246.585938 238.460938 246.585938 238.464844 246.589844 238.464844 C 249.015625 240.289062 251.5 242.039062 253.984375 243.789062 C 256.695312 245.695312 259.449219 247.542969 262.109375 249.519531 C 262.109375 249.519531 262.109375 249.523438 262.109375 249.523438 C 262.761719 250.003906 263.40625 250.5 264.042969 251 C 270.121094 255.769531 276.070312 260.707031 282.085938 265.5625 C 282.34375 265.769531 284.058594 267.257812 285.488281 268.46875 C 285.523438 268.535156 285.5625 268.59375 285.617188 268.648438 C 289.152344 272.261719 292.613281 275.957031 296.277344 279.4375 C 298.570312 281.613281 300.6875 283.855469 302.09375 286.652344 L 305.679688 286.652344 C 305.585938 286.5625 305.492188 286.472656 305.398438 286.382812 C 301.605469 282.707031 297.796875 279.050781 293.949219 275.441406 C 291.710938 273.34375 289.394531 271.34375 287.089844 269.332031 C 286.792969 269.074219 286.464844 268.855469 286.128906 268.640625 C 284.773438 267.25 282.832031 265.332031 282.578125 265.089844 C 276.351562 259.183594 270.011719 253.40625 263.109375 248.320312 C 259.050781 245.328125 254.785156 242.628906 250.730469 239.636719 C 245.933594 236.101562 241.1875 232.484375 236.949219 228.238281 C 236.3125 227.601562 235.589844 227.050781 234.636719 226.226562 L 234.632812 226.222656 C 235.75 225.804688 236.679688 225.199219 237.648438 225.136719 C 242.035156 224.855469 246.433594 224.667969 250.832031 224.582031 C 252.257812 224.554688 253.691406 224.914062 255.113281 225.128906 C 256.148438 225.285156 256.691406 225.902344 256.804688 226.992188 C 256.953125 228.378906 257.160156 229.761719 257.417969 231.128906 C 257.582031 232.011719 257.886719 232.867188 258.148438 233.800781 L 263.011719 232.789062 C 263.53125 232.679688 264.078125 232.640625 264.570312 232.449219 C 266.664062 231.65625 268.035156 232.621094 269.175781 234.300781 C 271.800781 238.1875 274.484375 242.035156 277.082031 245.9375 C 281.429688 252.460938 285.734375 259.015625 290.039062 265.570312 C 290.960938 266.972656 291.8125 268.425781 292.984375 269.753906 C 292.9375 269.449219 292.960938 269.113281 292.839844 268.839844 C 291.398438 265.597656 289.925781 262.398438 287.917969 259.445312 C 282.421875 251.378906 277.164062 243.144531 271.617188 235.113281 C 268.429688 230.5 268.410156 230.347656 262.75 231.773438 C 261.289062 232.140625 259.855469 232.589844 258.253906 233.042969 C 258.253906 231.128906 258.289062 229.371094 258.25 227.617188 C 258.1875 224.910156 257.640625 224.085938 254.996094 223.773438 C 252.222656 223.453125 249.402344 223.496094 246.605469 223.429688 C 245.644531 223.40625 244.683594 223.527344 243.742188 223.582031 C 243.703125 223.324219 243.65625 223.203125 243.6875 223.175781 C 246.785156 220.441406 248.714844 216.804688 250.9375 213.40625 C 252.699219 210.703125 255.152344 209.984375 258.0625 210.714844 C 259.941406 211.191406 261.667969 210.664062 263.394531 210.214844 C 268.222656 208.964844 272.023438 206.128906 274.988281 202.089844 C 275.574219 201.289062 276.179688 200.507812 277.003906 199.421875 C 277.457031 201.949219 276.59375 204.058594 276.589844 206.210938 C 276.589844 208.371094 276.34375 210.53125 276.316406 212.691406 C 276.289062 214.921875 276.390625 217.15625 276.679688 219.410156 C 278.054688 210.75 277.796875 201.832031 280.695312 193.4375 C 281.867188 205.554688 281.132812 217.777344 283.265625 229.800781 C 284.121094 227.886719 283.875 225.898438 283.816406 223.929688 C 283.5625 215.664062 283.230469 207.394531 283.09375 199.125 C 283.042969 196.050781 283.460938 192.96875 283.683594 189.578125 C 284.566406 189.5625 285.433594 189.484375 286.289062 189.546875 C 290.015625 189.824219 293.726562 189.789062 297.398438 189.007812 C 298.261719 188.824219 299.089844 188.460938 299.898438 188.023438 C 295.738281 188.511719 291.601562 188.917969 287.335938 188.472656 C 291.691406 185.707031 296.328125 183.382812 299.449219 179.023438 C 292.566406 183.699219 285.585938 188.152344 277.425781 190.160156 C 276.054688 190.496094 274.660156 190.742188 273.277344 191.03125 C 273.21875 190.882812 273.164062 190.738281 273.109375 190.585938 C 273.679688 190.1875 274.25 189.789062 274.824219 189.390625 C 274.769531 189.273438 274.710938 189.15625 274.65625 189.039062 C 272.078125 190.246094 269.523438 191.5 266.917969 192.644531 C 264.359375 193.769531 261.746094 194.753906 258.675781 194.976562 C 259.933594 192.628906 261.1875 190.558594 262.1875 188.363281 C 263.917969 184.570312 265.359375 180.660156 265.980469 176.488281 C 266.363281 173.917969 266.21875 173.605469 264.019531 172.5 C 261.644531 171.300781 261.085938 170.824219 259.992188 169.097656 C 264.070312 168.988281 268.203125 169.027344 272.316406 168.726562 C 276.347656 168.429688 280.367188 167.839844 284.125 166.03125 C 279.378906 166.675781 274.632812 167.324219 269.4375 168.03125 C 269.953125 167.390625 270.09375 167.09375 270.324219 166.949219 C 274.777344 164.140625 279.210938 161.371094 284.367188 159.917969 C 289.332031 158.511719 294.140625 156.527344 299.070312 154.976562 C 301.300781 154.273438 303.652344 153.929688 305.972656 153.589844 C 306.738281 153.476562 307.605469 153.796875 308.378906 154.070312 C 309.136719 154.335938 309.503906 154.921875 309.5625 155.84375 C 309.652344 157.300781 309.84375 158.777344 310.191406 160.195312 C 312.136719 168.160156 312.082031 176.144531 310.417969 184.125 C 309.394531 189.042969 308.359375 193.96875 307.054688 198.8125 C 304.964844 206.570312 301.101562 213.515625 296.953125 220.292969 C 295.675781 222.378906 294.296875 224.402344 292.832031 226.648438 C 292.277344 225.667969 292.410156 224.753906 292.460938 223.902344 C 292.804688 218.265625 293.1875 212.628906 293.5625 206.996094 C 293.585938 206.621094 293.609375 206.246094 293.636719 205.871094 C 292.546875 208.070312 292.324219 210.457031 291.980469 212.816406 C 291.621094 215.265625 291.25 217.707031 290.957031 220.164062 C 290.675781 222.546875 290.519531 224.945312 290.253906 227.328125 C 289.984375 229.78125 289.585938 232.226562 289.351562 234.6875 C 289.121094 237.121094 289.027344 239.566406 288.523438 242.027344 L 285.976562 229.339844 C 286.082031 236.007812 286.601562 242.609375 288.71875 248.953125 C 290.960938 255.664062 294.324219 261.808594 298.148438 267.683594 C 302.140625 273.8125 305.703125 280.183594 309.105469 286.652344 L 310.859375 286.652344 C 308.261719 281.53125 305.472656 276.515625 302.429688 271.636719 C 298.609375 265.503906 294.675781 259.429688 291.8125 252.738281 Z M 226.339844 256.144531 C 226.304688 256.207031 226.269531 256.269531 226.234375 256.328125 C 226.230469 256.339844 226.222656 256.347656 226.21875 256.355469 C 226.375 256.371094 226.558594 256.378906 226.761719 256.386719 C 226.769531 256.367188 226.777344 256.347656 226.785156 256.328125 C 226.800781 256.285156 226.820312 256.25 226.835938 256.207031 C 226.664062 256.191406 226.496094 256.171875 226.339844 256.144531 Z M 230.535156 257.472656 L 230.417969 257.277344 L 230.363281 257.191406 L 230.003906 256.59375 L 229.980469 256.550781 C 229.980469 256.550781 229.867188 256.542969 229.652344 256.523438 C 229.394531 256.503906 228.992188 256.472656 228.46875 256.441406 C 228.425781 256.4375 228.378906 256.4375 228.332031 256.433594 C 227.792969 256.417969 227.230469 256.40625 226.761719 256.386719 C 226.558594 256.378906 226.375 256.371094 226.21875 256.355469 C 226.199219 256.390625 226.179688 256.425781 226.160156 256.460938 C 226.09375 256.574219 226.03125 256.6875 225.964844 256.800781 C 225.902344 256.910156 225.835938 257.027344 225.773438 257.136719 C 226 257.152344 226.222656 257.164062 226.449219 257.179688 C 227.667969 257.257812 228.832031 257.347656 229.664062 257.445312 C 229.890625 257.472656 230.097656 257.5 230.269531 257.527344 C 230.398438 257.546875 230.511719 257.566406 230.601562 257.589844 L 230.535156 257.472656 " fill-opacity="1" fill-rule="nonzero"/></g><path fill="#000000" d="M 283.558594 266.542969 C 284.128906 267.058594 284.695312 267.574219 285.265625 268.089844 L 285.308594 268.042969 C 284.734375 267.527344 284.160156 267.007812 283.589844 266.488281 L 283.558594 266.542969 " fill-opacity="1" fill-rule="nonzero"/><path fill="#000000" d="M 263.917969 213.425781 C 263.359375 212.878906 262.84375 212.121094 261.578125 212.527344 C 266.015625 217.863281 270.320312 223.039062 274.625 228.210938 C 274.75 228.132812 274.871094 228.050781 274.992188 227.972656 C 274.453125 227.070312 273.949219 226.152344 273.375 225.277344 C 270.597656 221.015625 267.550781 216.972656 263.917969 213.425781 " fill-opacity="1" fill-rule="nonzero"/><path fill="#000000" d="M 178.421875 183.019531 C 180.199219 182.960938 182.003906 181.460938 183.792969 183.386719 C 182.332031 183.777344 181.140625 184.015625 180.003906 184.414062 C 175.507812 185.992188 171.925781 188.90625 168.703125 192.398438 C 165.945312 195.382812 164.359375 199.089844 162.371094 202.550781 C 161.699219 203.722656 161.371094 205.089844 161.488281 206.535156 C 161.699219 206.492188 161.8125 206.5 161.832031 206.457031 C 161.960938 206.1875 162.101562 205.914062 162.1875 205.625 C 163.453125 201.496094 166.125 198.484375 169.632812 196.261719 C 172.527344 194.429688 175.5625 192.816406 178.570312 191.175781 C 180.632812 190.054688 182.804688 189.132812 184.394531 187.128906 C 181.425781 188.644531 178.417969 190.089844 175.496094 191.699219 C 172.589844 193.296875 169.769531 195.058594 166.550781 196.960938 C 168.621094 193.738281 170.863281 191.210938 173.496094 189.113281 C 177.160156 186.199219 181.171875 184.082031 186.078125 184.726562 C 186.433594 184.773438 186.820312 184.585938 187.402344 184.464844 C 184.515625 182.113281 181.898438 180.039062 178.421875 183.019531 " fill-opacity="1" fill-rule="nonzero"/><path fill="#000000" d="M 167.171875 202.140625 C 164.125 204.417969 162.589844 207.570312 162.644531 211.511719 C 162.75 211.3125 162.90625 211.128906 162.953125 210.917969 C 163.996094 206.351562 166.691406 203.136719 170.617188 200.785156 C 174.070312 198.714844 177.417969 196.453125 180.738281 194.175781 C 181.613281 193.574219 182.230469 192.589844 182.96875 191.78125 C 179.621094 193.824219 176.421875 195.945312 173.230469 198.066406 C 171.203125 199.414062 169.117188 200.679688 167.171875 202.140625 " fill-opacity="1" fill-rule="nonzero"/><path fill="#000000" d="M 199.539062 223.5 C 198.597656 222.902344 197.527344 222.460938 196.457031 222.144531 C 195.394531 221.824219 194.523438 221.472656 194.019531 220.320312 C 193.367188 218.832031 192.355469 218.371094 190.949219 218.636719 C 189.496094 218.910156 188.054688 220.214844 187.914062 221.433594 C 187.816406 222.28125 188.070312 222.953125 189.109375 223.238281 C 189.085938 222.8125 189.066406 222.449219 189.050781 222.085938 C 188.976562 220.460938 189.785156 219.632812 191.378906 219.890625 C 192.515625 220.074219 193.523438 220.585938 194.054688 221.761719 C 194.628906 223.03125 196.472656 224.765625 197.683594 225.238281 C 197.898438 225.320312 198.117188 225.535156 198.304688 225.507812 C 198.84375 225.417969 199.621094 225.394531 199.835938 225.046875 C 200.042969 224.703125 199.859375 223.703125 199.539062 223.5 " fill-opacity="1" fill-rule="nonzero"/><path fill="#000000" d="M 176.65625 228.773438 C 177.347656 224.328125 178.949219 220.527344 180.933594 216.851562 C 182.964844 213.089844 186.296875 210.753906 189.695312 208.460938 C 182.949219 209.71875 175.203125 221.738281 176.65625 228.773438 " fill-opacity="1" fill-rule="nonzero"/><path fill="#000000" d="M 179.597656 229.992188 C 181.699219 223.234375 183.898438 216.824219 189.386719 212.289062 C 184.335938 214.480469 179.378906 223.554688 179.597656 229.992188 " fill-opacity="1" fill-rule="nonzero"/><path fill="#000000" d="M 188.132812 202.09375 C 188.164062 202.121094 188.199219 202.152344 188.234375 202.179688 C 188.214844 202.128906 188.195312 202.078125 188.175781 202.027344 L 188.132812 202.09375 " fill-opacity="1" fill-rule="nonzero"/><path fill="#000000" d="M 191.101562 206.457031 C 190.597656 205.34375 189.992188 204.265625 189.339844 203.230469 C 189.074219 202.8125 188.621094 202.519531 188.234375 202.179688 C 188.558594 203.066406 188.898438 203.945312 189.210938 204.835938 C 190.183594 207.617188 191.878906 209.832031 194.300781 211.433594 C 194.734375 211.71875 195.378906 211.675781 195.925781 211.785156 C 193.828125 210.308594 192.140625 208.734375 191.101562 206.457031 " fill-opacity="1" fill-rule="nonzero"/><path fill="#000000" d="M 190.917969 220.644531 C 190.070312 223.503906 190.421875 224.757812 192.011719 225.839844 C 193.132812 226.605469 193.75 226.554688 195.171875 225.402344 C 192.441406 225.207031 191.5 223.378906 190.917969 220.644531 " fill-opacity="1" fill-rule="nonzero"/><path fill="#000000" d="M 209.710938 228.949219 C 209.746094 229.152344 209.78125 229.355469 209.816406 229.558594 C 211.246094 229.445312 212.679688 229.332031 214.109375 229.222656 C 212.625 228.484375 211.15625 228.066406 209.710938 228.949219 " fill-opacity="1" fill-rule="nonzero"/><path fill="#000000" d="M 218.203125 201.933594 C 217.007812 201.828125 216.074219 201.652344 215.136719 200.070312 C 215.625 202.007812 216.058594 202.304688 218.203125 201.933594 " fill-opacity="1" fill-rule="nonzero"/><path fill="#000000" d="M 219.355469 199.183594 C 219.335938 198.152344 219.457031 196.785156 219.382812 195.898438 C 217.757812 198.46875 217.8125 199.261719 218.84375 199.574219 C 219.101562 199.65625 219.359375 199.457031 219.355469 199.183594 " fill-opacity="1" fill-rule="nonzero"/><path fill="#000000" d="M 212.546875 230.730469 C 212.546875 230.933594 212.546875 231.136719 212.550781 231.339844 C 213.480469 231.324219 215.339844 230.925781 215.339844 230.738281 C 214.40625 230.734375 213.476562 230.734375 212.546875 230.730469 " fill-opacity="1" fill-rule="nonzero"/><path fill="#000000" d="M 188.132812 202.089844 C 188.132812 202.09375 188.175781 202.027344 188.175781 202.027344 C 188.140625 202.011719 188.109375 201.992188 188.074219 201.972656 C 188.09375 202.011719 188.113281 202.046875 188.132812 202.089844 " fill-opacity="1" fill-rule="nonzero"/><path fill="#000000" d="M 186.113281 200.859375 C 186.765625 201.230469 187.421875 201.601562 188.074219 201.972656 C 187.574219 200.960938 187.519531 200.953125 186.113281 200.859375 " fill-opacity="1" fill-rule="nonzero"/><path fill="#000000" d="M 215.035156 233.863281 C 215.613281 233.871094 216.765625 233.648438 216.769531 233.527344 C 216.203125 233.484375 215.636719 233.441406 215.070312 233.402344 C 215.058594 233.554688 215.046875 233.710938 215.035156 233.863281 " fill-opacity="1" fill-rule="nonzero"/><path fill="#000000" d="M 219.417969 183.625 C 219.445312 183.617188 219.472656 183.605469 219.5 183.59375 C 219.484375 183.585938 219.464844 183.578125 219.449219 183.570312 C 219.449219 183.570312 219.417969 183.625 219.417969 183.625 " fill-opacity="1" fill-rule="nonzero"/><path fill="#000000" d="M 219.5 183.59375 C 220.40625 184.027344 221.277344 184.660156 222.230469 184.832031 C 225.652344 185.441406 229.097656 185.894531 232.535156 186.386719 C 232.804688 186.425781 233.097656 186.324219 233.378906 186.285156 C 228.898438 185.082031 224.371094 184.285156 219.847656 183.5 C 219.738281 183.484375 219.617188 183.546875 219.5 183.59375 " fill-opacity="1" fill-rule="nonzero"/><path fill="#000000" d="M 229.121094 252.019531 C 229.121094 252.019531 236.710938 248.691406 237.394531 247.191406 C 238.078125 245.695312 230.640625 249.757812 229.121094 252.019531 " fill-opacity="1" fill-rule="nonzero"/><g clip-path="url(#dbc3e40ab0)"><path fill="#000000" d="M 271.527344 285.285156 C 271.007812 285.773438 270.382812 285.617188 269.789062 284.847656 C 269.734375 284.777344 269.679688 284.707031 269.636719 284.628906 C 269.375 284.152344 269.078125 283.660156 269.683594 283.132812 C 270.324219 282.574219 270.714844 283 271.101562 283.382812 C 271.167969 283.441406 271.222656 283.507812 271.285156 283.574219 C 271.882812 284.289062 271.964844 284.875 271.527344 285.285156 Z M 269.441406 282.792969 C 268.636719 283.492188 268.609375 284.664062 269.382812 285.566406 C 270.054688 286.351562 270.902344 286.402344 271.726562 285.703125 C 272.605469 284.953125 272.625 283.9375 271.78125 282.984375 C 271.066406 282.179688 270.230469 282.113281 269.441406 282.792969 " fill-opacity="1" fill-rule="nonzero"/></g><g clip-path="url(#3444a28d69)"><path fill="#ff3b29" d="M 269.734375 275.273438 C 274.480469 279.296875 280.171875 284.335938 282.777344 286.652344 L 271.171875 286.652344 C 271.03125 286.496094 270.886719 286.339844 270.738281 286.179688 C 270.125 285.515625 269.484375 284.839844 268.820312 284.152344 C 263.484375 278.636719 256.601562 272.589844 248.976562 268.484375 L 236.09375 257.554688 L 235.898438 257.386719 L 235.683594 257.207031 C 235.683594 257.207031 235.699219 257.125 235.765625 257.011719 C 235.796875 256.960938 235.84375 256.898438 235.898438 256.835938 C 235.953125 256.78125 236.023438 256.722656 236.105469 256.664062 C 236.289062 256.542969 236.550781 256.429688 236.921875 256.378906 C 236.992188 256.371094 237.0625 256.359375 237.140625 256.355469 C 237.21875 256.351562 237.300781 256.347656 237.382812 256.347656 C 237.574219 256.34375 237.789062 256.355469 238.023438 256.386719 C 238.09375 256.394531 238.777344 255.597656 238.847656 255.609375 C 241.3125 255.988281 245.515625 258.867188 254.910156 265.808594 C 255.0625 265.890625 264.734375 271.035156 269.734375 275.273438 " fill-opacity="1" fill-rule="nonzero"/></g><g clip-path="url(#364b600995)"><path fill="#000000" d="M 238.210938 255.609375 Z M 268.351562 274.066406 C 266.105469 272.195312 263.789062 270.402344 261.371094 268.75 C 257.363281 266.007812 253.339844 263.28125 249.152344 260.796875 C 246.808594 259.410156 242.402344 256.53125 239.328125 254.988281 C 239.175781 254.914062 239.484375 254.726562 239.34375 254.660156 C 239.160156 254.570312 238.824219 254.675781 238.515625 254.757812 L 239.171875 253.296875 C 239.171875 253.296875 237.761719 247.515625 237.90625 248.242188 C 238.414062 250.835938 237.957031 253.417969 237.542969 254.714844 C 237.476562 254.804688 237.414062 254.988281 237.253906 255.222656 C 237.253906 255.222656 237.253906 255.222656 237.25 255.222656 C 237.109375 255.433594 236.8125 255.746094 236.445312 255.941406 C 236.40625 255.960938 236.40625 256.019531 236.386719 256.058594 C 236.128906 256.214844 235.867188 256.367188 235.628906 256.511719 C 235.441406 256.574219 235.253906 256.640625 235.070312 256.707031 C 234.621094 256.871094 234.539062 256.996094 234.738281 257.160156 C 234.730469 257.179688 234.730469 257.195312 234.742188 257.207031 C 234.753906 257.222656 234.765625 257.234375 234.777344 257.25 C 234.9375 257.441406 235.097656 257.628906 235.261719 257.816406 C 239.789062 262.980469 244.660156 265.074219 250.109375 269.371094 C 255.816406 273.878906 261.480469 278.449219 266.957031 283.238281 C 267.746094 283.925781 268.503906 284.640625 269.238281 285.378906 C 269.414062 285.558594 269.589844 285.738281 269.761719 285.917969 C 269.992188 286.160156 270.226562 286.40625 270.453125 286.652344 L 272.683594 286.652344 C 272.386719 286.316406 272.085938 285.984375 271.78125 285.652344 C 271.679688 285.546875 271.582031 285.4375 271.480469 285.328125 C 270.839844 284.640625 270.183594 283.964844 269.519531 283.300781 C 269.421875 283.203125 269.324219 283.105469 269.226562 283.011719 C 266.964844 280.785156 264.5625 278.714844 261.988281 276.820312 C 255.144531 271.789062 248.296875 266.757812 241.558594 261.59375 C 239.476562 260 238.367188 259.007812 236.59375 257.355469 C 236.527344 257.296875 236.460938 257.234375 236.394531 257.171875 C 236.707031 257.019531 237.011719 256.84375 237.289062 256.707031 C 237.40625 256.652344 237.566406 256.59375 237.722656 256.53125 C 237.726562 256.53125 237.734375 256.527344 237.742188 256.523438 C 238.128906 256.359375 238.496094 256.152344 238.164062 255.796875 C 238.148438 255.785156 238.136719 255.769531 238.121094 255.757812 C 238.59375 255.925781 239.105469 256.101562 239.53125 256.25 C 241.296875 257.269531 243.316406 258.945312 244.011719 259.351562 C 247.664062 261.476562 251.351562 263.550781 254.910156 265.808594 C 258.171875 267.875 261.324219 270.101562 264.445312 272.359375 C 268.753906 275.46875 278.4375 282.226562 282.410156 286.652344 L 283.746094 286.652344 C 279.414062 282.261719 272.476562 277.5 268.351562 274.066406 " fill-opacity="1" fill-rule="nonzero"/></g><path fill="#ffffff" d="M 202.289062 157.335938 C 201.617188 155.746094 200.671875 154.914062 199.289062 153.773438 C 198.46875 153.097656 197.4375 151.355469 199.238281 150.980469 C 202.621094 150.273438 202.355469 156.941406 202.289062 157.335938 " fill-opacity="1" fill-rule="nonzero"/><path fill="#ffffff" d="M 220.132812 154.152344 C 221.023438 152.28125 220.941406 150.808594 220.75 148.710938 C 220.640625 147.460938 221.703125 145.78125 223.355469 146.371094 C 227.191406 147.738281 220.570312 153.886719 220.132812 154.152344 " fill-opacity="1" fill-rule="nonzero"/><path fill="#ffffff" d="M 230.171875 164.460938 C 232.132812 163.453125 233.761719 163.359375 236.089844 163.292969 C 237.46875 163.253906 239.199219 162.109375 238.375 160.699219 C 236.453125 157.414062 230.421875 164.039062 230.171875 164.460938 " fill-opacity="1" fill-rule="nonzero"/><g clip-path="url(#8a125a8260)"><path fill="#000000" d="M 220.679688 153.332031 C 220.714844 153.25 220.746094 153.167969 220.773438 153.085938 C 220.910156 152.714844 221.015625 152.3125 221.089844 151.890625 C 221.230469 151.046875 221.214844 150.1875 221.183594 149.460938 L 221.148438 148.859375 L 221.140625 148.710938 C 221.136719 148.691406 221.136719 148.671875 221.136719 148.65625 L 221.132812 148.582031 C 221.136719 148.5 221.136719 148.414062 221.152344 148.324219 C 221.195312 147.984375 221.320312 147.644531 221.511719 147.351562 C 221.609375 147.203125 221.726562 147.074219 221.847656 146.964844 C 221.96875 146.859375 222.109375 146.773438 222.265625 146.714844 C 222.40625 146.660156 222.5625 146.636719 222.726562 146.640625 C 222.875 146.640625 223.039062 146.675781 223.21875 146.742188 C 223.394531 146.804688 223.550781 146.886719 223.679688 146.980469 C 223.804688 147.070312 223.90625 147.183594 223.980469 147.3125 C 224.054688 147.4375 224.097656 147.582031 224.113281 147.742188 C 224.128906 147.890625 224.125 148.054688 224.089844 148.242188 C 224.039062 148.546875 223.929688 148.878906 223.738281 149.289062 C 223.660156 149.453125 223.566406 149.628906 223.46875 149.804688 C 223.367188 149.980469 223.265625 150.152344 223.160156 150.3125 C 222.773438 150.914062 222.316406 151.53125 221.710938 152.253906 C 221.433594 152.589844 221.144531 152.910156 220.898438 153.183594 C 220.800781 153.292969 220.707031 153.394531 220.617188 153.492188 Z M 224.746094 146.964844 C 224.621094 146.742188 224.441406 146.539062 224.222656 146.375 C 224.027344 146.234375 223.796875 146.113281 223.542969 146.019531 C 223.269531 145.921875 223.003906 145.867188 222.753906 145.863281 C 222.464844 145.855469 222.179688 145.90625 221.929688 146.003906 C 221.679688 146.101562 221.449219 146.246094 221.257812 146.421875 C 221.078125 146.582031 220.921875 146.769531 220.792969 146.976562 C 220.542969 147.378906 220.398438 147.8125 220.363281 148.257812 C 220.351562 148.355469 220.351562 148.460938 220.355469 148.601562 L 220.359375 148.691406 C 220.363281 148.71875 220.367188 148.746094 220.367188 148.765625 L 220.449219 149.503906 C 220.527344 150.253906 220.589844 151.054688 220.53125 151.839844 C 220.507812 152.199219 220.449219 152.574219 220.355469 152.988281 C 220.339844 153.066406 220.316406 153.140625 220.292969 153.222656 L 220.242188 153.40625 L 220.132812 153.761719 L 220.105469 153.835938 C 220.09375 153.867188 220.082031 153.894531 220.074219 153.921875 C 220.050781 153.988281 220.03125 154.050781 220.007812 154.109375 L 219.78125 154.582031 L 220.214844 154.25 C 220.300781 154.199219 220.378906 154.140625 220.457031 154.085938 L 220.484375 154.0625 C 220.570312 153.996094 220.652344 153.929688 220.738281 153.863281 C 220.878906 153.746094 221.03125 153.613281 221.222656 153.449219 C 221.507812 153.195312 221.800781 152.917969 222.144531 152.578125 C 222.792969 151.921875 223.332031 151.292969 223.789062 150.660156 C 224.070312 150.261719 224.285156 149.921875 224.460938 149.582031 C 224.691406 149.140625 224.835938 148.753906 224.914062 148.363281 C 224.960938 148.128906 224.976562 147.898438 224.957031 147.675781 C 224.9375 147.417969 224.863281 147.179688 224.746094 146.964844 " fill-opacity="1" fill-rule="nonzero"/></g><path fill="#000000" d="M 199.582031 153.550781 C 199.5625 153.53125 199.542969 153.515625 199.527344 153.5 L 199.496094 153.46875 C 199.46875 153.445312 199.4375 153.417969 199.414062 153.390625 C 199.347656 153.324219 199.300781 153.269531 199.257812 153.21875 C 199.042969 152.960938 198.878906 152.703125 198.777344 152.453125 C 198.722656 152.308594 198.6875 152.179688 198.671875 152.058594 C 198.664062 152.003906 198.667969 151.953125 198.671875 151.890625 C 198.679688 151.835938 198.6875 151.789062 198.707031 151.75 L 198.707031 151.742188 C 198.722656 151.703125 198.746094 151.667969 198.777344 151.625 C 198.808594 151.59375 198.84375 151.558594 198.890625 151.53125 C 198.980469 151.46875 199.097656 151.417969 199.242188 151.382812 C 199.257812 151.378906 199.277344 151.375 199.292969 151.371094 C 199.3125 151.363281 199.332031 151.359375 199.351562 151.355469 L 199.464844 151.335938 L 199.574219 151.324219 C 199.59375 151.320312 199.617188 151.320312 199.636719 151.320312 C 199.652344 151.316406 199.667969 151.316406 199.683594 151.316406 C 199.828125 151.3125 199.960938 151.328125 200.089844 151.363281 C 200.335938 151.425781 200.566406 151.574219 200.777344 151.800781 C 200.960938 151.992188 201.121094 152.242188 201.277344 152.5625 C 201.339844 152.691406 201.398438 152.835938 201.460938 153 C 201.511719 153.136719 201.5625 153.285156 201.609375 153.453125 C 201.777344 154.003906 201.898438 154.613281 202 155.367188 C 202.039062 155.664062 202.070312 155.976562 202.101562 156.351562 C 202.109375 156.410156 202.113281 156.46875 202.117188 156.53125 C 201.9375 156.148438 201.71875 155.785156 201.460938 155.445312 C 201.019531 154.859375 200.488281 154.355469 199.980469 153.898438 C 199.851562 153.78125 199.714844 153.664062 199.582031 153.550781 Z M 202.328125 153.300781 C 202.246094 152.933594 202.140625 152.601562 202.011719 152.292969 C 201.851562 151.910156 201.660156 151.597656 201.425781 151.324219 C 201.285156 151.164062 201.128906 151.023438 200.953125 150.910156 C 200.761719 150.777344 200.554688 150.683594 200.339844 150.621094 C 200.125 150.5625 199.898438 150.535156 199.652344 150.539062 L 199.605469 150.542969 C 199.566406 150.542969 199.527344 150.546875 199.488281 150.550781 L 199.332031 150.566406 L 199.167969 150.59375 C 199.128906 150.601562 199.089844 150.613281 199.050781 150.621094 L 199.007812 150.632812 C 198.753906 150.699219 198.546875 150.789062 198.375 150.910156 C 198.277344 150.96875 198.1875 151.054688 198.09375 151.15625 L 198.089844 151.164062 C 198 151.277344 197.941406 151.378906 197.902344 151.480469 C 197.855469 151.601562 197.835938 151.71875 197.824219 151.820312 L 197.824219 151.824219 C 197.816406 151.945312 197.820312 152.050781 197.832031 152.144531 C 197.859375 152.335938 197.914062 152.523438 198 152.722656 C 198.152344 153.050781 198.367188 153.371094 198.636719 153.664062 C 198.695312 153.730469 198.761719 153.792969 198.84375 153.871094 C 198.878906 153.902344 198.914062 153.9375 198.957031 153.972656 C 198.992188 154.003906 199.035156 154.035156 199.066406 154.058594 C 199.203125 154.167969 199.34375 154.277344 199.480469 154.386719 C 199.972656 154.777344 200.535156 155.234375 201.015625 155.75 C 201.234375 155.988281 201.449219 156.25 201.644531 156.535156 C 201.6875 156.59375 201.726562 156.652344 201.765625 156.714844 L 201.847656 156.839844 L 201.980469 157.058594 L 202.046875 157.171875 C 202.058594 157.195312 202.074219 157.21875 202.085938 157.242188 C 202.113281 157.289062 202.140625 157.335938 202.160156 157.375 L 202.410156 158.160156 L 202.425781 157.347656 C 202.488281 157.027344 202.515625 156.71875 202.539062 156.34375 C 202.558594 156.027344 202.566406 155.695312 202.5625 155.332031 C 202.542969 154.585938 202.46875 153.921875 202.328125 153.300781 " fill-opacity="1" fill-rule="nonzero"/><path fill="#000000" d="M 232.085938 162.835938 C 232.816406 162.210938 233.445312 161.730469 234.0625 161.316406 C 234.226562 161.207031 234.402344 161.09375 234.585938 160.984375 C 234.765625 160.875 234.945312 160.777344 235.121094 160.6875 C 235.546875 160.46875 235.902344 160.332031 236.234375 160.25 C 236.4375 160.199219 236.617188 160.175781 236.78125 160.171875 C 236.792969 160.171875 236.804688 160.171875 236.816406 160.171875 C 236.976562 160.171875 237.128906 160.195312 237.269531 160.242188 C 237.417969 160.292969 237.550781 160.371094 237.667969 160.472656 C 237.785156 160.578125 237.890625 160.707031 237.976562 160.859375 C 238.070312 161.011719 238.125 161.152344 238.148438 161.289062 C 238.167969 161.433594 238.15625 161.578125 238.113281 161.710938 C 238.066406 161.855469 237.988281 161.988281 237.882812 162.109375 C 237.777344 162.234375 237.648438 162.351562 237.496094 162.457031 C 237.195312 162.664062 236.839844 162.8125 236.464844 162.890625 C 236.371094 162.910156 236.277344 162.925781 236.1875 162.933594 L 236.101562 162.941406 C 236.082031 162.941406 236.066406 162.941406 236.042969 162.945312 L 235.214844 162.988281 C 234.410156 163.042969 233.464844 163.125 232.550781 163.347656 L 232.230469 163.433594 L 231.902344 163.53125 C 231.832031 163.554688 231.761719 163.578125 231.695312 163.601562 C 231.660156 163.617188 231.625 163.628906 231.589844 163.640625 L 231.507812 163.667969 L 231.277344 163.761719 C 231.1875 163.796875 231.101562 163.835938 231.015625 163.875 L 230.851562 163.949219 C 230.949219 163.855469 231.050781 163.761719 231.15625 163.664062 C 231.425781 163.414062 231.75 163.121094 232.085938 162.835938 Z M 239 161.179688 C 238.964844 160.953125 238.878906 160.722656 238.738281 160.488281 C 238.609375 160.269531 238.449219 160.078125 238.269531 159.917969 C 238.066406 159.738281 237.820312 159.601562 237.5625 159.515625 C 237.316406 159.433594 237.035156 159.398438 236.753906 159.40625 C 236.511719 159.417969 236.257812 159.457031 236.003906 159.527344 C 235.585938 159.640625 235.175781 159.8125 234.71875 160.070312 C 234.363281 160.265625 234.011719 160.496094 233.609375 160.792969 C 232.960938 161.273438 232.332031 161.824219 231.683594 162.480469 C 231.34375 162.828125 231.074219 163.121094 230.828125 163.40625 C 230.667969 163.59375 230.539062 163.746094 230.425781 163.886719 C 230.363281 163.964844 230.296875 164.050781 230.234375 164.136719 L 230.214844 164.164062 C 230.160156 164.238281 230.101562 164.3125 230.054688 164.398438 L 229.738281 164.824219 L 230.238281 164.566406 C 230.296875 164.539062 230.363281 164.515625 230.433594 164.484375 C 230.460938 164.472656 230.496094 164.460938 230.527344 164.449219 L 230.601562 164.417969 L 230.976562 164.277344 L 231.179688 164.207031 C 231.265625 164.179688 231.347656 164.152344 231.433594 164.128906 C 231.875 163.996094 232.28125 163.902344 232.675781 163.839844 C 233.53125 163.703125 234.417969 163.667969 235.25 163.652344 L 236.066406 163.644531 C 236.089844 163.644531 236.117188 163.640625 236.144531 163.640625 L 236.257812 163.636719 C 236.410156 163.625 236.523438 163.609375 236.628906 163.589844 C 237.117188 163.507812 237.574219 163.328125 237.992188 163.058594 C 238.203125 162.921875 238.390625 162.761719 238.550781 162.582031 C 238.71875 162.390625 238.851562 162.167969 238.933594 161.933594 C 239.015625 161.699219 239.035156 161.4375 239 161.179688 " fill-opacity="1" fill-rule="nonzero"/><path stroke-linecap="butt" transform="matrix(1.367649, 0, 0, 1.367649, 102.517025, 30.951208)" fill="none" stroke-linejoin="miter" d="M 62.463586 10.483574 L 62.463586 19.034971 L 38.057546 19.034971 C 37.343502 19.034971 36.746561 18.775059 36.241017 18.269515 C 35.732617 17.803958 35.475561 17.175599 35.475561 16.452986 L 35.475561 10.483574 L 32.059573 10.483574 L 32.059573 16.452986 C 32.059573 18.146699 32.647945 19.540514 33.833259 20.685842 C 34.970018 21.862587 36.363833 22.462384 38.057546 22.462384 L 62.463586 22.462384 L 62.463586 25.032944 C 62.463586 25.755557 62.20653 26.34393 61.700987 26.860898 C 61.195443 27.366442 60.595646 27.612073 59.884457 27.612073 L 38.057546 27.612073 C 37.343502 27.612073 36.746561 27.366442 36.241017 26.860898 C 35.732617 26.34393 35.475561 25.755557 35.475561 25.032944 L 32.059573 25.032944 C 32.059573 26.683815 32.647945 28.07763 33.833259 29.2658 C 35.010004 30.45397 36.363833 30.9995 38.057546 30.9995 L 59.924444 30.9995 C 61.618157 30.9995 62.96913 30.45397 64.105888 29.2658 C 65.294058 28.037643 65.882431 26.726658 65.882431 25.124342 L 65.882431 10.483574 Z M 104.695032 12.22013 C 103.518287 11.043385 102.167315 10.483574 100.473601 10.483574 L 78.606703 10.483574 C 76.91299 10.483574 75.559162 11.043385 74.425259 12.22013 C 73.237089 13.448287 72.648716 14.759272 72.648716 16.370157 L 72.648716 25.032944 C 72.648716 26.683815 73.237089 28.07763 74.425259 29.2658 C 75.559162 30.45397 76.952976 30.9995 78.64669 30.9995 L 100.513588 30.9995 C 102.207301 30.9995 103.56113 30.45397 104.695032 29.2658 C 105.883202 28.037643 106.471575 26.683815 106.471575 25.032944 L 106.471575 16.452986 C 106.471575 14.799259 105.883202 13.405444 104.695032 12.22013 Z M 102.29013 26.809487 C 101.784587 27.323599 101.18479 27.572086 100.473601 27.572086 L 78.141146 27.572086 C 77.675589 27.489257 77.212889 27.232201 76.830161 26.860898 C 76.324617 26.34393 76.064705 25.755557 76.064705 25.032944 L 76.064705 16.452986 C 76.064705 15.730373 76.324617 15.142 76.830161 14.636457 C 77.335704 14.128057 77.935502 13.871001 78.64669 13.871001 L 100.473601 13.871001 C 101.18479 13.871001 101.784587 14.128057 102.29013 14.636457 C 102.795674 15.142 103.055586 15.730373 103.055586 16.452986 L 103.055586 25.032944 C 103.055586 25.712715 102.795674 26.301087 102.29013 26.809487 Z M 143.64473 10.483574 L 143.64473 25.032944 C 143.64473 25.712715 143.387674 26.301087 142.879274 26.809487 C 142.373731 27.323599 141.776789 27.572086 141.062745 27.572086 L 118.73029 27.572086 C 118.267589 27.489257 117.802032 27.232201 117.419305 26.860898 C 116.913761 26.34393 116.656705 25.755557 116.656705 25.032944 L 116.656705 10.483574 L 113.23786 10.483574 L 113.23786 25.032944 C 113.23786 26.683815 113.826233 28.07763 115.014403 29.2658 C 116.151162 30.45397 117.544976 30.9995 119.235834 30.9995 L 141.105588 30.9995 C 142.796445 30.9995 144.150273 30.45397 145.287032 29.2658 C 146.472346 28.037643 147.060719 26.683815 147.060719 25.032944 L 147.060719 10.483574 Z M 143.64473 10.483574 " stroke="#780017" stroke-width="3.172282" stroke-opacity="1" stroke-miterlimit="4"/><path stroke-linecap="butt" transform="matrix(1.367649, 0, 0, 1.367649, 102.517025, 30.951208)" fill="none" stroke-linejoin="miter" d="M 21.994402 52.572211 C 20.092187 52.572211 18.484159 51.901009 17.170317 50.590024 C 15.819345 49.236196 15.179561 47.625311 15.179561 45.768796 L 15.179561 35.483699 L 11.760717 35.483699 L 11.760717 45.768796 C 11.760717 48.556425 12.77466 50.972752 14.756847 52.994926 C 16.747603 54.988538 19.155361 55.999625 21.994402 55.999625 L 45.586431 55.999625 L 45.586431 52.572211 Z M 84.399032 37.220255 C 83.222287 36.04351 81.868459 35.483699 80.177601 35.483699 L 58.307847 35.483699 C 56.614134 35.483699 55.263162 36.04351 54.126403 37.220255 C 52.941089 38.448412 52.352716 39.759397 52.352716 41.370282 L 52.352716 50.033069 C 52.352716 51.68394 52.941089 53.077755 54.126403 54.265925 C 55.263162 55.454095 56.656976 55.999625 58.35069 55.999625 L 80.217588 55.999625 C 81.911301 55.999625 83.262273 55.454095 84.399032 54.265925 C 85.587202 53.037768 86.175575 51.68394 86.175575 50.033069 L 86.175575 41.453111 C 86.175575 39.799384 85.587202 38.405569 84.399032 37.220255 Z M 81.99413 51.806756 C 81.488587 52.323724 80.88879 52.572211 80.177601 52.572211 L 57.845146 52.572211 C 57.379589 52.489382 56.914032 52.232326 56.534161 51.861023 C 56.025761 51.344055 55.768705 50.755682 55.768705 50.033069 L 55.768705 41.453111 C 55.768705 40.730498 56.025761 40.142125 56.534161 39.636582 C 57.039704 39.128182 57.636645 38.871126 58.35069 38.871126 L 80.177601 38.871126 C 80.88879 38.871126 81.488587 39.128182 81.99413 39.636582 C 82.499674 40.142125 82.75673 40.730498 82.75673 41.453111 L 82.75673 50.033069 C 82.75673 50.712839 82.499674 51.301212 81.99413 51.806756 Z M 124.988176 45.851625 C 123.854273 44.663455 122.460458 44.075082 120.766745 44.075082 L 98.899847 44.075082 C 98.185803 44.075082 97.586005 43.818026 97.080462 43.309626 C 96.574918 42.804083 96.357849 42.21571 96.357849 41.493097 C 96.357849 40.821896 96.574918 40.224954 97.080462 39.716555 C 97.586005 39.211011 98.185803 38.953955 98.899847 38.953955 L 125.927858 38.953955 L 125.927858 35.53511 L 98.899847 35.53511 C 97.24612 35.53511 95.852305 36.126339 94.67556 37.311653 C 93.530233 38.448412 92.94186 39.882213 92.94186 41.493097 C 92.94186 43.146824 93.530233 44.580626 94.67556 45.725953 C 95.852305 46.902698 97.24612 47.502496 98.899847 47.502496 L 120.766745 47.502496 C 121.477933 47.502496 122.077731 47.750983 122.583274 48.21654 C 123.088818 48.722084 123.34873 49.361867 123.34873 50.033069 C 123.34873 50.755682 123.088818 51.344055 122.583274 51.861023 C 122.077731 52.366566 121.477933 52.612198 120.766745 52.612198 L 93.787289 52.612198 L 93.787289 55.999625 L 120.766745 55.999625 C 122.460458 55.999625 123.854273 55.454095 124.988176 54.265925 C 126.176346 53.077755 126.764719 51.68394 126.764719 50.033069 C 126.764719 48.390767 126.176346 46.996952 124.988176 45.851625 Z M 137.712448 39.636582 C 138.095176 39.253854 138.560733 38.993942 139.023434 38.913969 L 167.353862 38.913969 L 167.353862 35.483699 L 139.528977 35.483699 C 137.835264 35.483699 136.441449 36.04351 135.307547 37.220255 C 134.119377 38.448412 133.531004 39.799384 133.531004 41.453111 L 133.531004 50.033069 C 133.531004 51.68394 134.119377 53.037768 135.307547 54.265925 C 136.441449 55.454095 137.835264 55.999625 139.528977 55.999625 L 167.353862 55.999625 L 167.353862 52.572211 L 139.023434 52.572211 C 138.560733 52.489382 138.095176 52.232326 137.712448 51.861023 C 137.206905 51.344055 136.949849 50.755682 136.949849 50.033069 L 136.949849 47.462509 L 163.760791 47.462509 L 163.760791 44.032239 L 136.949849 44.032239 L 136.949849 41.453111 C 136.949849 40.730498 137.206905 40.142125 137.712448 39.636582 Z M 137.712448 39.636582 " stroke="#780017" stroke-width="3.172282" stroke-opacity="1" stroke-miterlimit="4"/><g fill="#ef3a5d" fill-opacity="1"><g transform="translate(141.730099, 73.34834)"><g><path d="M 46.210938 -28.050781 L 46.210938 -16.367188 L 12.839844 -16.367188 C 11.855469 -16.367188 11.046875 -16.714844 10.351562 -17.410156 C 9.660156 -18.046875 9.3125 -18.914062 9.3125 -19.894531 L 9.3125 -28.050781 L 4.628906 -28.050781 L 4.628906 -19.894531 C 4.628906 -17.582031 5.4375 -15.675781 7.054688 -14.113281 C 8.617188 -12.492188 10.527344 -11.683594 12.839844 -11.683594 L 46.210938 -11.683594 L 46.210938 -8.15625 C 46.210938 -7.171875 45.867188 -6.363281 45.171875 -5.667969 C 44.476562 -4.972656 43.667969 -4.628906 42.683594 -4.628906 L 12.839844 -4.628906 C 11.855469 -4.628906 11.046875 -4.972656 10.351562 -5.667969 C 9.660156 -6.363281 9.3125 -7.171875 9.3125 -8.15625 L 4.628906 -8.15625 C 4.628906 -5.898438 5.4375 -3.992188 7.054688 -2.371094 C 8.675781 -0.75 10.527344 0 12.839844 0 L 42.742188 0 C 45.054688 0 46.90625 -0.75 48.46875 -2.371094 C 50.085938 -4.046875 50.898438 -5.839844 50.898438 -8.039062 L 50.898438 -28.050781 Z M 46.210938 -28.050781 "/></g></g></g><g fill="#ef3a5d" fill-opacity="1"><g transform="translate(197.242858, 73.34834)"><g><path d="M 48.46875 -25.679688 C 46.847656 -27.300781 44.996094 -28.050781 42.683594 -28.050781 L 12.78125 -28.050781 C 10.46875 -28.050781 8.617188 -27.300781 7.054688 -25.679688 C 5.4375 -24.003906 4.628906 -22.210938 4.628906 -20.011719 L 4.628906 -8.15625 C 4.628906 -5.898438 5.4375 -3.992188 7.054688 -2.371094 C 8.617188 -0.75 10.527344 0 12.839844 0 L 42.742188 0 C 45.054688 0 46.90625 -0.75 48.46875 -2.371094 C 50.085938 -4.046875 50.898438 -5.898438 50.898438 -8.15625 L 50.898438 -19.894531 C 50.898438 -22.152344 50.085938 -24.0625 48.46875 -25.679688 Z M 45.171875 -5.726562 C 44.476562 -5.03125 43.667969 -4.683594 42.683594 -4.683594 L 12.144531 -4.683594 C 11.507812 -4.800781 10.875 -5.148438 10.351562 -5.667969 C 9.660156 -6.363281 9.3125 -7.171875 9.3125 -8.15625 L 9.3125 -19.894531 C 9.3125 -20.878906 9.660156 -21.6875 10.351562 -22.382812 C 11.046875 -23.078125 11.855469 -23.425781 12.839844 -23.425781 L 42.683594 -23.425781 C 43.667969 -23.425781 44.476562 -23.078125 45.171875 -22.382812 C 45.867188 -21.6875 46.210938 -20.878906 46.210938 -19.894531 L 46.210938 -8.15625 C 46.210938 -7.230469 45.867188 -6.421875 45.171875 -5.726562 Z M 45.171875 -5.726562 "/></g></g></g><g fill="#ef3a5d" fill-opacity="1"><g transform="translate(252.755618, 73.34834)"><g><path d="M 46.210938 -28.050781 L 46.210938 -8.15625 C 46.210938 -7.230469 45.867188 -6.421875 45.171875 -5.726562 C 44.476562 -5.03125 43.667969 -4.683594 42.683594 -4.683594 L 12.144531 -4.683594 C 11.507812 -4.800781 10.875 -5.148438 10.351562 -5.667969 C 9.660156 -6.363281 9.3125 -7.171875 9.3125 -8.15625 L 9.3125 -28.050781 L 4.628906 -28.050781 L 4.628906 -8.15625 C 4.628906 -5.898438 5.4375 -3.992188 7.054688 -2.371094 C 8.617188 -0.75 10.527344 0 12.839844 0 L 42.742188 0 C 45.054688 0 46.90625 -0.75 48.46875 -2.371094 C 50.085938 -4.046875 50.898438 -5.898438 50.898438 -8.15625 L 50.898438 -28.050781 Z M 46.210938 -28.050781 "/></g></g></g><g fill="#ef3a5d" fill-opacity="1"><g transform="translate(308.262784, 73.34834)"><g/></g></g><g fill="#ef3a5d" fill-opacity="1"><g transform="translate(113.971089, 107.539576)"><g><path d="M 18.625 -4.683594 C 16.019531 -4.683594 13.824219 -5.609375 12.03125 -7.402344 C 10.179688 -9.253906 9.3125 -11.453125 9.3125 -13.996094 L 9.3125 -28.050781 L 4.628906 -28.050781 L 4.628906 -13.996094 C 4.628906 -10.179688 6.015625 -6.882812 8.734375 -4.105469 C 11.453125 -1.386719 14.75 0 18.625 0 L 50.898438 0 L 50.898438 -4.683594 Z M 18.625 -4.683594 "/></g></g></g><g fill="#ef3a5d" fill-opacity="1"><g transform="translate(169.483849, 107.539576)"><g><path d="M 48.46875 -25.679688 C 46.847656 -27.300781 44.996094 -28.050781 42.683594 -28.050781 L 12.78125 -28.050781 C 10.46875 -28.050781 8.617188 -27.300781 7.054688 -25.679688 C 5.4375 -24.003906 4.628906 -22.210938 4.628906 -20.011719 L 4.628906 -8.15625 C 4.628906 -5.898438 5.4375 -3.992188 7.054688 -2.371094 C 8.617188 -0.75 10.527344 0 12.839844 0 L 42.742188 0 C 45.054688 0 46.90625 -0.75 48.46875 -2.371094 C 50.085938 -4.046875 50.898438 -5.898438 50.898438 -8.15625 L 50.898438 -19.894531 C 50.898438 -22.152344 50.085938 -24.0625 48.46875 -25.679688 Z M 45.171875 -5.726562 C 44.476562 -5.03125 43.667969 -4.683594 42.683594 -4.683594 L 12.144531 -4.683594 C 11.507812 -4.800781 10.875 -5.148438 10.351562 -5.667969 C 9.660156 -6.363281 9.3125 -7.171875 9.3125 -8.15625 L 9.3125 -19.894531 C 9.3125 -20.878906 9.660156 -21.6875 10.351562 -22.382812 C 11.046875 -23.078125 11.855469 -23.425781 12.839844 -23.425781 L 42.683594 -23.425781 C 43.667969 -23.425781 44.476562 -23.078125 45.171875 -22.382812 C 45.867188 -21.6875 46.210938 -20.878906 46.210938 -19.894531 L 46.210938 -8.15625 C 46.210938 -7.230469 45.867188 -6.421875 45.171875 -5.726562 Z M 45.171875 -5.726562 "/></g></g></g><g fill="#ef3a5d" fill-opacity="1"><g transform="translate(224.996609, 107.539576)"><g><path d="M 48.46875 -13.882812 C 46.90625 -15.5 44.996094 -16.308594 42.683594 -16.308594 L 12.78125 -16.308594 C 11.800781 -16.308594 10.988281 -16.65625 10.296875 -17.351562 C 9.601562 -18.046875 9.3125 -18.855469 9.3125 -19.839844 C 9.3125 -20.765625 9.601562 -21.574219 10.296875 -22.269531 C 10.988281 -22.960938 11.800781 -23.308594 12.78125 -23.308594 L 49.742188 -23.308594 L 49.742188 -27.992188 L 12.78125 -27.992188 C 10.527344 -27.992188 8.617188 -27.183594 7 -25.5625 C 5.4375 -24.003906 4.628906 -22.035156 4.628906 -19.839844 C 4.628906 -17.582031 5.4375 -15.617188 7 -14.054688 C 8.617188 -12.433594 10.527344 -11.625 12.78125 -11.625 L 42.683594 -11.625 C 43.667969 -11.625 44.476562 -11.277344 45.171875 -10.640625 C 45.867188 -9.949219 46.210938 -9.082031 46.210938 -8.15625 C 46.210938 -7.171875 45.867188 -6.363281 45.171875 -5.667969 C 44.476562 -4.972656 43.667969 -4.628906 42.683594 -4.628906 L 5.785156 -4.628906 L 5.785156 0 L 42.683594 0 C 44.996094 0 46.90625 -0.75 48.46875 -2.371094 C 50.085938 -3.992188 50.898438 -5.898438 50.898438 -8.15625 C 50.898438 -10.410156 50.085938 -12.320312 48.46875 -13.882812 Z M 48.46875 -13.882812 "/></g></g></g><g fill="#ef3a5d" fill-opacity="1"><g transform="translate(280.509369, 107.539576)"><g><path d="M 10.351562 -22.382812 C 10.875 -22.902344 11.507812 -23.25 12.144531 -23.367188 L 50.898438 -23.367188 L 50.898438 -28.050781 L 12.839844 -28.050781 C 10.527344 -28.050781 8.617188 -27.300781 7.054688 -25.679688 C 5.4375 -24.003906 4.628906 -22.152344 4.628906 -19.894531 L 4.628906 -8.15625 C 4.628906 -5.898438 5.4375 -4.046875 7.054688 -2.371094 C 8.617188 -0.75 10.527344 0 12.839844 0 L 50.898438 0 L 50.898438 -4.683594 L 12.144531 -4.683594 C 11.507812 -4.800781 10.875 -5.148438 10.351562 -5.667969 C 9.660156 -6.363281 9.3125 -7.171875 9.3125 -8.15625 L 9.3125 -11.683594 L 45.980469 -11.683594 L 45.980469 -16.367188 L 9.3125 -16.367188 L 9.3125 -19.894531 C 9.3125 -20.878906 9.660156 -21.6875 10.351562 -22.382812 Z M 10.351562 -22.382812 "/></g></g></g></svg>