<svg xmlns="http://www.w3.org/2000/svg" xmlns:xlink="http://www.w3.org/1999/xlink" width="288" zoomAndPan="magnify" viewBox="0 0 216 215.999996" height="288" preserveAspectRatio="xMidYMid meet" version="1.0"><defs><g/><clipPath id="3748d49919"><path d="M 63.183594 177.160156 L 125.859375 177.160156 L 125.859375 216 L 63.183594 216 Z M 63.183594 177.160156 " clip-rule="nonzero"/></clipPath><clipPath id="e7f8e602a5"><path d="M 117.445312 99.410156 L 185.546875 99.410156 L 185.546875 216 L 117.445312 216 Z M 117.445312 99.410156 " clip-rule="nonzero"/></clipPath><clipPath id="d487baf663"><path d="M 90.859375 165.238281 L 176.867188 165.238281 L 176.867188 216 L 90.859375 216 Z M 90.859375 165.238281 " clip-rule="nonzero"/></clipPath><clipPath id="a9c9207c6d"><path d="M 50.972656 99 L 186.125 99 L 186.125 216 L 50.972656 216 Z M 50.972656 99 " clip-rule="nonzero"/></clipPath><clipPath id="b681be2436"><path d="M 118.261719 188.808594 L 159.773438 188.808594 L 159.773438 216 L 118.261719 216 Z M 118.261719 188.808594 " clip-rule="nonzero"/></clipPath><clipPath id="528ed7e11c"><path d="M 117.445312 182.304688 L 160.585938 182.304688 L 160.585938 216 L 117.445312 216 Z M 117.445312 182.304688 " clip-rule="nonzero"/></clipPath><clipPath id="8ba431c2dd"><path d="M 104 93.039062 L 109 93.039062 L 109 101 L 104 101 Z M 104 93.039062 " clip-rule="nonzero"/></clipPath><clipPath id="64e747f01d"><path d="M 104 93.039062 L 110 93.039062 L 110 101 L 104 101 Z M 104 93.039062 " clip-rule="nonzero"/></clipPath></defs><g clip-path="url(#3748d49919)"><path fill="#b04c43" d="M 114.527344 205.398438 C 116.953125 207.667969 121.066406 211.550781 125.652344 216 L 63.207031 216 C 64.402344 214.394531 66.417969 212.535156 69.753906 210.511719 C 69.753906 210.511719 78.277344 202.761719 82.648438 196.199219 C 82.832031 195.921875 83.007812 195.648438 83.175781 195.378906 C 83.269531 195.226562 83.363281 195.074219 83.453125 194.925781 C 84.015625 193.972656 84.46875 193.058594 84.769531 192.210938 L 84.796875 191.21875 L 84.816406 190.605469 L 84.820312 190.40625 L 84.996094 184.578125 L 90.84375 177.289062 C 90.84375 177.289062 90.867188 177.773438 90.984375 178.582031 C 91.300781 180.820312 92.296875 185.535156 95.316406 189.40625 C 95.460938 189.589844 95.609375 189.777344 95.765625 189.957031 C 95.839844 190.042969 95.914062 190.128906 95.988281 190.214844 C 96.378906 190.65625 96.796875 191.082031 97.25 191.484375 C 97.789062 191.96875 98.355469 192.460938 98.9375 192.960938 C 99.121094 193.117188 99.304688 193.273438 99.492188 193.429688 C 99.542969 193.472656 99.59375 193.515625 99.644531 193.558594 C 100.519531 194.289062 101.417969 195.027344 102.320312 195.75 C 105.679688 198.445312 109.027344 200.929688 110.847656 202.261719 C 111.726562 202.902344 112.253906 203.277344 112.253906 203.277344 C 112.253906 203.277344 113.097656 204.054688 114.527344 205.398438 " fill-opacity="1" fill-rule="nonzero"/></g><g clip-path="url(#e7f8e602a5)"><path fill="#b04c43" d="M 183.105469 216 L 177.847656 216 C 177.1875 215.433594 176.15625 214.386719 174.816406 212.996094 C 174.8125 212.996094 174.8125 212.992188 174.8125 212.992188 C 171.839844 209.910156 167.359375 205.136719 162.113281 200.109375 L 162.109375 200.109375 C 162 200.003906 161.890625 199.902344 161.78125 199.796875 C 161.410156 199.441406 161.03125 199.085938 160.652344 198.726562 C 157.222656 195.503906 153.511719 192.234375 149.707031 189.285156 C 147 187.183594 144.242188 185.25 141.507812 183.609375 C 135.96875 180.292969 131.472656 176.949219 127.925781 173.960938 C 127.925781 173.960938 127.925781 173.960938 127.921875 173.960938 C 125.183594 171.648438 123.011719 169.550781 121.375 167.835938 C 121.375 167.835938 121.375 167.835938 121.375 167.832031 C 118.742188 165.074219 117.492188 163.320312 117.46875 163.285156 C 117.46875 163.285156 118.890625 161.449219 122.960938 161.15625 L 134.472656 148.742188 C 134.472656 148.742188 139.59375 151.234375 145.648438 147.320312 C 152.035156 143.183594 158.675781 131.765625 158.675781 131.765625 L 137.539062 137.171875 C 137.539062 137.171875 140.3125 131.839844 142.199219 126.921875 C 143.210938 124.285156 143.96875 121.769531 143.910156 120.261719 C 143.867188 119.144531 143.691406 118.445312 143.457031 118.015625 C 142.78125 116.78125 141.609375 117.824219 141.609375 117.824219 L 132.757812 122.527344 L 130.722656 123.609375 L 127.320312 125.417969 L 132.789062 117.175781 L 137.820312 112.957031 L 146.007812 112.703125 C 146.007812 112.703125 159.359375 104.230469 165.894531 102.910156 C 172.429688 101.585938 181.910156 96.78125 183.535156 101.84375 C 185.160156 106.90625 186.535156 121.105469 183.871094 129.109375 C 181.203125 137.113281 180.855469 152.222656 167.976562 165.800781 C 167.976562 165.800781 164.976562 173.390625 165.3125 180.839844 C 165.648438 188.289062 178.894531 207.707031 178.894531 207.707031 L 183.105469 216 " fill-opacity="1" fill-rule="nonzero"/></g><g clip-path="url(#d487baf663)"><path fill="#e7cac8" d="M 126.246094 216 C 122.59375 212.460938 118.300781 208.648438 114.527344 205.398438 C 113.222656 204.273438 111.980469 203.214844 110.847656 202.261719 C 107.402344 199.351562 104.992188 197.402344 104.992188 197.402344 C 104.992188 197.402344 103.898438 196.824219 102.320312 195.75 C 101.558594 195.230469 100.683594 194.597656 99.765625 193.859375 C 99.710938 193.816406 99.65625 193.769531 99.601562 193.726562 C 99.546875 193.679688 99.488281 193.632812 99.433594 193.589844 C 99.386719 193.550781 99.339844 193.511719 99.292969 193.472656 C 99.210938 193.402344 99.128906 193.332031 99.042969 193.261719 C 98.9375 193.171875 98.832031 193.082031 98.726562 192.988281 C 97.871094 192.246094 97.003906 191.417969 96.167969 190.511719 C 96.085938 190.421875 96.003906 190.328125 95.921875 190.238281 C 95.914062 190.234375 95.910156 190.226562 95.90625 190.21875 C 95.832031 190.136719 95.757812 190.054688 95.683594 189.972656 C 95.605469 189.878906 95.527344 189.789062 95.449219 189.695312 C 95.371094 189.605469 95.289062 189.507812 95.210938 189.414062 C 92.765625 186.445312 90.855469 182.769531 90.984375 178.582031 C 91 178.003906 91.058594 177.410156 91.15625 176.8125 C 91.15625 176.8125 91.550781 177.582031 92.734375 178.574219 C 92.734375 178.574219 92.734375 178.574219 92.738281 178.578125 C 94.367188 179.941406 97.484375 181.722656 103.105469 182.507812 L 103.117188 182.507812 C 106.316406 182.953125 110.324219 183.078125 115.332031 182.617188 C 115.523438 182.597656 115.714844 182.582031 115.910156 182.5625 C 115.910156 182.558594 115.914062 182.558594 115.914062 182.558594 C 115.992188 182.554688 116.070312 182.546875 116.148438 182.539062 C 116.148438 182.539062 116.203125 182.5 116.300781 182.417969 C 116.300781 182.417969 116.300781 182.417969 116.304688 182.417969 C 116.667969 182.121094 117.597656 181.261719 118.386719 179.6875 C 118.386719 179.6875 118.386719 179.683594 118.390625 179.683594 C 119.6875 177.078125 120.59375 172.511719 117.871094 165.289062 L 121.371094 167.832031 L 121.375 167.832031 L 121.375 167.835938 L 143.882812 184.199219 L 149.699219 189.277344 L 149.703125 189.277344 L 149.707031 189.285156 L 161.859375 199.890625 L 162.109375 200.109375 L 162.113281 200.109375 L 162.117188 200.117188 L 163.539062 201.355469 L 169.210938 206.308594 C 169.210938 206.308594 171.777344 208.683594 174.8125 212.992188 C 174.8125 212.992188 174.8125 212.996094 174.816406 212.996094 C 175.460938 213.910156 176.125 214.914062 176.792969 216 L 126.246094 216 " fill-opacity="1" fill-rule="nonzero"/></g><path fill="#ff3b29" d="M 120.152344 181.261719 C 120.152344 181.261719 116.625 182.902344 114.714844 183.191406 C 112.804688 183.480469 110.1875 190.601562 110.1875 190.601562 C 110.1875 190.601562 110.597656 191.765625 117.714844 190.328125 C 124.832031 188.886719 122.371094 181.046875 122.371094 181.046875 L 120.152344 181.261719 " fill-opacity="1" fill-rule="nonzero"/><path fill="#f5a97b" d="M 127.320312 125.417969 C 127.320312 125.417969 123.953125 128.757812 116.222656 126.019531 C 108.492188 123.28125 99.125 120.253906 96.613281 119.921875 C 94.101562 119.59375 89.121094 121.878906 88.089844 122.867188 C 87.066406 123.859375 81.839844 118.921875 74.710938 124.191406 C 67.578125 129.464844 72.84375 157.601562 73.894531 160.34375 C 74.941406 163.085938 77.871094 165.660156 81.246094 165.976562 C 84.621094 166.292969 87.523438 166.496094 87.523438 166.496094 L 92.734375 178.574219 C 92.734375 178.574219 103.089844 185.128906 115.335938 182.617188 C 115.335938 182.617188 119.367188 183.257812 119.351562 172.394531 L 116.84375 164.855469 C 116.84375 164.855469 114.460938 159.1875 116.210938 156.816406 C 117.960938 154.445312 119.714844 147.632812 117.898438 145.039062 C 116.082031 142.441406 113.863281 142.101562 113.863281 142.101562 L 113.34375 139.539062 C 113.34375 139.539062 120.660156 142.386719 123.425781 140.851562 C 126.191406 139.316406 136.082031 137.476562 136.082031 137.476562 C 136.082031 137.476562 135.894531 126.53125 127.320312 125.417969 " fill-opacity="1" fill-rule="nonzero"/><path fill="#78533c" d="M 81.246094 165.976562 C 79.289062 165.800781 76.507812 165.027344 74.5 161.132812 C 72.496094 157.242188 77.210938 154.535156 80.066406 154.390625 C 82.921875 154.242188 86.632812 154.367188 86.632812 154.367188 L 86.503906 151.636719 C 86.503906 151.636719 82.59375 150.242188 80.769531 148.621094 C 78.953125 147 77.296875 142.824219 77.296875 142.824219 C 74.800781 140.378906 73.234375 134.960938 73.234375 134.960938 C 71.929688 125.453125 80.894531 124.625 82.84375 124.53125 C 84.792969 124.433594 87.828125 122.992188 87.828125 122.992188 L 87.582031 122.441406 C 87.582031 122.441406 88.632812 119.738281 88.539062 118.101562 C 88.449219 116.464844 84.90625 113.203125 86.152344 115.355469 C 87.402344 117.511719 84.324219 120.082031 84.324219 120.082031 L 83.921875 118.097656 C 80.902344 109.929688 71.945312 114.246094 71.945312 114.246094 L 75.332031 117.660156 C 72.894531 117.183594 66.171875 118.941406 66.171875 118.941406 C 66.171875 118.941406 61.003906 120.898438 64.074219 120.414062 C 67.144531 119.933594 71.050781 121.5 71.050781 121.5 C 60.070312 124.195312 58.917969 130.957031 58.917969 130.957031 C 58.917969 130.957031 55.621094 134.523438 52.628906 141.953125 C 49.636719 149.382812 56.867188 162.328125 56.867188 162.328125 C 56.867188 162.328125 61.851562 170.800781 71.203125 175.972656 C 80.554688 181.144531 90.542969 175.800781 90.542969 175.800781 C 91.773438 174.75 86.425781 165.726562 86.425781 165.726562 C 86.425781 165.726562 83.207031 166.152344 81.246094 165.976562 " fill-opacity="1" fill-rule="nonzero"/><path fill="#e7cac8" d="M 128.179688 125.570312 C 128.179688 125.570312 136.445312 128.976562 136.089844 136.460938 L 137.46875 136.828125 C 137.46875 136.828125 146.050781 120.996094 144.171875 117.75 C 144.171875 117.75 129.898438 122.921875 128.179688 125.570312 " fill-opacity="1" fill-rule="nonzero"/><g clip-path="url(#a9c9207c6d)"><path fill="#000000" d="M 117.257812 162.34375 C 116.6875 161.167969 116.21875 160.210938 115.691406 159.121094 C 117.585938 156.507812 118.441406 153.421875 118.824219 150.167969 C 118.839844 150.035156 118.875 149.902344 118.910156 149.773438 C 119.945312 145.746094 118.820312 143.539062 114.925781 141.890625 C 114.613281 141.757812 114.367188 141.464844 114.207031 140.9375 C 114.621094 140.996094 115.0625 140.96875 115.4375 141.117188 C 118.929688 142.449219 122.425781 142.019531 125.75 140.742188 C 129.878906 139.15625 134.097656 138.128906 138.4375 137.394531 C 141.03125 136.957031 143.582031 136.105469 146.070312 135.207031 C 149.15625 134.085938 152.339844 133.613281 155.519531 133.035156 C 155.601562 133.175781 155.6875 133.316406 155.765625 133.457031 C 154.0625 136.320312 152.460938 139.257812 150.628906 142.03125 C 147.960938 146.074219 143.941406 148.070312 139.398438 149.089844 C 138.800781 149.21875 138.085938 149.042969 137.472656 148.855469 C 133.960938 147.78125 132.953125 148.074219 130.613281 151.058594 C 128.296875 154.011719 126.046875 156.992188 123.273438 159.5625 C 121.472656 161.230469 119.234375 161.339844 117.257812 162.34375 Z M 109.015625 191.464844 C 109.003906 191.488281 108.992188 191.507812 108.980469 191.527344 C 108.925781 191.625 108.867188 191.722656 108.8125 191.820312 C 108.800781 191.839844 108.789062 191.859375 108.777344 191.878906 C 108.734375 191.957031 108.6875 192.03125 108.644531 192.109375 C 108.578125 192.226562 108.511719 192.34375 108.445312 192.460938 C 107.570312 193.980469 106.699219 195.492188 105.832031 197.007812 C 104.027344 196.070312 102.320312 194.972656 100.726562 193.722656 C 100.652344 193.664062 100.578125 193.605469 100.503906 193.542969 C 100.464844 193.515625 100.425781 193.484375 100.386719 193.453125 C 100.320312 193.398438 100.253906 193.347656 100.1875 193.289062 C 100.125 193.238281 100.0625 193.1875 100 193.136719 C 99.890625 193.046875 99.785156 192.953125 99.675781 192.863281 C 98.792969 192.109375 97.945312 191.308594 97.136719 190.457031 C 97.042969 190.363281 96.949219 190.265625 96.859375 190.167969 C 96.839844 190.148438 96.820312 190.125 96.804688 190.105469 C 96.71875 190.015625 96.636719 189.925781 96.554688 189.835938 C 96.492188 189.765625 96.429688 189.695312 96.367188 189.628906 C 96.285156 189.53125 96.203125 189.4375 96.117188 189.34375 C 95.257812 188.355469 94.445312 187.316406 93.6875 186.21875 C 92.6875 184.78125 92.238281 182.933594 91.648438 181.230469 C 91.449219 180.644531 91.597656 179.9375 91.574219 178.816406 C 95.179688 181.371094 98.847656 182.207031 102.574219 182.863281 C 106.207031 183.503906 109.851562 184.027344 113.605469 183.480469 C 112.523438 185.363281 111.460938 187.214844 110.410156 189.042969 C 110.40625 189.042969 110.40625 189.046875 110.40625 189.046875 C 110.367188 189.113281 110.328125 189.183594 110.289062 189.25 C 110.28125 189.261719 110.277344 189.269531 110.273438 189.277344 C 110.257812 189.304688 110.242188 189.328125 110.230469 189.351562 C 110.230469 189.355469 110.226562 189.359375 110.226562 189.363281 C 110.21875 189.371094 110.214844 189.378906 110.210938 189.386719 C 110.179688 189.441406 110.148438 189.496094 110.117188 189.546875 C 110.113281 189.554688 110.109375 189.566406 110.101562 189.570312 C 110.085938 189.601562 110.070312 189.632812 110.050781 189.664062 C 109.992188 189.761719 109.9375 189.859375 109.882812 189.957031 C 109.824219 190.054688 109.769531 190.15625 109.710938 190.253906 C 109.480469 190.65625 109.246094 191.0625 109.015625 191.464844 Z M 136.359375 119.914062 C 133.703125 121.644531 131.539062 123.355469 128.871094 124.242188 C 128.851562 124.074219 128.816406 123.988281 128.84375 123.949219 C 131.039062 120.777344 133.011719 117.421875 135.957031 114.855469 C 136.355469 114.511719 136.796875 114.109375 137.277344 113.988281 C 137.726562 113.878906 138.257812 114.109375 138.980469 114.230469 C 138.058594 115.191406 137.390625 115.878906 136.566406 116.738281 L 139.121094 116.207031 C 137.375 117.605469 135.984375 118.71875 134.378906 120 C 135.042969 119.972656 135.492188 119.949219 136.359375 119.914062 Z M 81.890625 167.207031 C 83.457031 168.320312 85.132812 169.273438 86.757812 170.292969 C 87.34375 170.660156 87.925781 171.027344 88.511719 171.394531 C 84.289062 172.152344 82.179688 170.929688 78.933594 166.457031 C 80.082031 166.335938 80.976562 166.554688 81.890625 167.207031 Z M 86.113281 168.671875 C 84.714844 168.414062 83.636719 168.277344 82.929688 166.828125 C 83.558594 166.628906 84.035156 166.480469 84.621094 166.292969 C 85.085938 167.03125 85.515625 167.71875 86.113281 168.671875 Z M 104.382812 122.414062 C 109.96875 125.054688 115.777344 126.871094 121.847656 127.839844 C 122.363281 127.921875 122.949219 127.722656 123.46875 127.550781 C 124.792969 127.121094 126.085938 126.605469 127.414062 126.195312 C 127.757812 126.085938 128.222656 126.140625 128.558594 126.289062 C 131.96875 127.824219 134.4375 130.210938 135.082031 134.109375 C 135.449219 136.3125 135.152344 136.597656 133.039062 137.148438 C 130.984375 137.6875 128.921875 138.253906 126.949219 139.03125 C 122.691406 140.707031 118.445312 141.109375 114.136719 139.335938 C 113.589844 139.113281 113.058594 138.828125 112.570312 138.5 C 111.3125 137.648438 110.183594 136.617188 108.632812 136.242188 C 107.695312 136.011719 107.429688 135.113281 107.257812 134.195312 C 106.902344 132.3125 106.359375 131.847656 104.5 131.636719 C 102.167969 131.367188 100.199219 132.558594 98.890625 135.019531 C 98.164062 136.382812 97.472656 137.769531 96.664062 139.082031 C 96.25 139.753906 95.6875 140.386719 95.066406 140.863281 C 94.601562 141.21875 93.9375 141.292969 93.015625 141.613281 C 93.238281 140.570312 93.339844 139.929688 93.519531 139.316406 C 93.761719 138.472656 94.238281 137.667969 94.308594 136.820312 C 94.554688 133.90625 96.160156 131.921875 98.300781 130.207031 C 99.179688 129.496094 99.984375 128.667969 100.734375 127.816406 C 101.652344 126.773438 102.726562 126.148438 104.09375 126.078125 C 102.84375 125.113281 101.648438 125.796875 100.761719 126.558594 C 98.839844 128.210938 96.964844 129.96875 95.332031 131.90625 C 93.535156 134.03125 92.097656 136.464844 90.378906 138.664062 C 89.449219 139.855469 88.316406 140.917969 87.15625 141.886719 C 86.683594 142.28125 85.882812 142.265625 84.855469 142.539062 C 85.132812 141.695312 85.207031 141.253906 85.410156 140.878906 C 86.675781 138.511719 87.949219 136.152344 89.261719 133.8125 C 89.683594 133.058594 90.136719 132.273438 90.746094 131.679688 C 93.085938 129.390625 95.523438 127.203125 97.867188 124.910156 C 98.945312 123.855469 100.101562 123.621094 101.515625 123.960938 C 103.105469 124.34375 104.71875 124.609375 106.355469 124.742188 C 104.316406 123.726562 102.148438 123.300781 99.917969 123.273438 C 98.519531 123.253906 97.394531 124.019531 96.402344 124.960938 C 94.367188 126.898438 92.207031 128.726562 90.355469 130.828125 C 89.046875 132.308594 88.140625 134.15625 87.097656 135.867188 C 86.292969 137.183594 85.574219 138.558594 84.78125 139.886719 C 83.589844 141.886719 82.445312 141.96875 80.769531 140.253906 C 82.171875 137.257812 83.59375 134.300781 84.9375 131.296875 C 85.828125 129.304688 87.191406 127.863281 89.109375 126.863281 C 91.113281 125.816406 93.007812 124.535156 95.046875 123.570312 C 96.503906 122.875 98.121094 122.53125 99.566406 122.0625 C 98.582031 121.449219 97.289062 121.363281 96.140625 121.984375 C 92.808594 123.789062 89.472656 125.609375 86.296875 127.679688 C 85.214844 128.386719 84.566406 129.828125 83.804688 130.992188 C 83.367188 131.65625 83.15625 132.476562 82.726562 133.15625 C 82.496094 133.523438 82.023438 133.742188 81.601562 134.078125 C 81.4375 133.679688 81.320312 133.535156 81.351562 133.449219 C 82.359375 130.882812 83.386719 128.324219 84.386719 125.753906 C 84.652344 125.070312 85.09375 124.726562 85.761719 124.433594 C 87.578125 123.628906 89.449219 122.855469 91.101562 121.765625 C 93.449219 120.21875 95.941406 119.898438 98.53125 120.476562 C 100.527344 120.917969 102.53125 121.542969 104.382812 122.414062 Z M 63.699219 169.933594 C 61.785156 167.378906 61.261719 164.886719 61.464844 162.179688 C 62.167969 164.625 62.871094 167.066406 63.699219 169.933594 Z M 78.378906 177.21875 C 74.019531 177.164062 71.320312 174.433594 68.78125 171.191406 C 69.070312 172.042969 69.359375 172.890625 69.648438 173.742188 C 69.578125 173.808594 69.507812 173.871094 69.4375 173.933594 C 68.945312 173.472656 68.28125 173.101562 67.992188 172.527344 C 65.792969 168.21875 64.855469 163.617188 65.59375 158.804688 C 66.257812 154.46875 68.625 151.171875 71.722656 148.382812 C 72.109375 148.039062 72.507812 147.695312 72.917969 147.363281 C 73.679688 146.738281 74.46875 146.144531 75.484375 145.347656 C 74.316406 145.59375 72.960938 146.351562 71.613281 147.421875 C 69.359375 149.210938 67.140625 151.871094 65.914062 154.464844 C 64.441406 157.585938 63.359375 159.566406 64.832031 168.0625 C 64.375 167.421875 64.042969 167.109375 63.898438 166.726562 C 63.128906 164.714844 62.390625 162.6875 61.671875 160.65625 C 61.539062 160.285156 61.425781 159.84375 61.492188 159.472656 C 62.089844 156.230469 62.464844 152.898438 64.875 150.347656 C 65.332031 149.863281 65.734375 149.328125 66.226562 148.742188 C 62.171875 150.804688 60.167969 155.980469 59.902344 163.945312 C 57.984375 160.9375 58.589844 157.445312 61.902344 150.886719 C 60.816406 152.519531 59.730469 154.15625 58.617188 155.832031 C 58.523438 155.753906 58.351562 155.605469 58.09375 155.378906 C 57.039062 157.398438 57.585938 159.554688 57.664062 162.015625 C 55.867188 160.121094 55.320312 158.242188 55.664062 156.15625 C 55.789062 155.410156 56.429688 154.769531 56.738281 154.039062 C 58.03125 150.980469 59.953125 148.464844 62.710938 146.625 C 65.726562 144.613281 68.425781 142.210938 70.8125 139.476562 C 70.894531 139.382812 70.972656 139.285156 71.050781 139.1875 C 71.644531 138.414062 72.082031 137.503906 72.605469 136.667969 C 72.480469 136.574219 72.355469 136.476562 72.226562 136.382812 C 71.828125 136.878906 71.4375 137.386719 71.035156 137.886719 C 70.769531 138.222656 70.5 138.550781 70.21875 138.875 C 68.097656 141.3125 65.746094 143.496094 63.101562 145.335938 C 60.113281 147.410156 57.390625 149.722656 56.125 153.523438 C 55.863281 153.128906 55.730469 152.925781 55.535156 152.632812 C 55.253906 153.097656 55 153.527344 54.746094 153.945312 C 54.589844 153.898438 54.421875 153.898438 54.375 153.824219 C 52.332031 150.671875 51.714844 147.292969 52.664062 143.59375 C 53.84375 138.976562 55.902344 134.902344 59.375 131.617188 C 59.910156 131.113281 60.386719 130.546875 60.878906 129.996094 C 60.964844 129.90625 61.003906 129.765625 61.125 129.535156 C 60.769531 129.453125 60.445312 129.378906 59.964844 129.265625 C 61.273438 127.050781 62.785156 125.082031 65.152344 124.160156 C 68.058594 123.023438 71.035156 122.046875 74.03125 121.183594 C 75.972656 120.625 76.257812 120.90625 76.953125 122.820312 C 76.953125 122.828125 76.957031 122.832031 76.957031 122.839844 C 77.121094 123.28125 77.285156 123.722656 77.476562 124.148438 C 77.519531 124.246094 77.675781 124.289062 77.785156 124.355469 C 78.113281 123.671875 78.222656 122.957031 78.152344 122.316406 C 78.011719 121.011719 77.125 120.011719 75.800781 120.191406 C 72.722656 120.609375 69.722656 119.675781 66.683594 120.046875 C 66.09375 120.117188 65.496094 120.113281 64.871094 120 C 66.859375 118.816406 69.054688 118.363281 71.3125 118.191406 C 72.371094 118.113281 73.441406 118.179688 74.5 118.214844 C 77.269531 118.296875 79.261719 119.519531 80.546875 121.769531 C 80.746094 122.117188 80.925781 122.488281 81.089844 122.882812 C 81.15625 123.039062 81.28125 123.171875 81.410156 123.359375 C 81.5 122.796875 81.492188 122.246094 81.402344 121.71875 C 81.070312 119.816406 79.636719 118.226562 77.578125 117.515625 C 76.355469 117.09375 75.191406 116.484375 74.070312 115.796875 C 76.90625 114.945312 78.769531 116.757812 81.03125 118.464844 C 79.53125 114.835938 76.867188 114.078125 73.640625 114.335938 C 75.203125 113.390625 76.414062 113.152344 77.960938 113.585938 C 80.527344 114.304688 82.480469 115.894531 83.5625 118.371094 C 83.875 119.09375 83.726562 120.0625 83.652344 120.910156 C 83.628906 121.234375 83.472656 121.546875 83.316406 121.859375 C 83.238281 122.007812 83.164062 122.15625 83.101562 122.308594 C 83.234375 122.378906 83.363281 122.449219 83.488281 122.519531 C 83.59375 122.324219 83.710938 122.136719 83.835938 121.953125 C 84.996094 120.238281 86.824219 118.941406 86.808594 116.441406 C 88.105469 117.796875 88.359375 118.871094 87.78125 120.375 C 87.613281 120.8125 87.40625 121.242188 87.289062 121.691406 C 87.191406 122.070312 87.199219 122.480469 87.160156 122.875 C 87.144531 122.886719 87.125 122.898438 87.105469 122.910156 C 86.863281 123.070312 86.667969 123.261719 86.441406 123.304688 C 85.605469 123.46875 84.949219 123.800781 84.425781 124.253906 L 84.421875 124.253906 C 83.539062 125.019531 83.027344 126.136719 82.609375 127.417969 C 81.90625 129.582031 80.941406 131.65625 80.058594 133.859375 C 80.757812 134.265625 81.308594 134.585938 81.964844 134.96875 C 81.28125 136.335938 80.609375 137.636719 79.980469 138.964844 C 79.148438 140.71875 80.070312 142.234375 82.011719 142.191406 C 82.945312 142.171875 83.695312 142.273438 84.59375 142.695312 C 85.414062 143.078125 86.664062 142.75 87.652344 142.460938 C 89.101562 142.035156 90.117188 140.914062 90.988281 139.691406 C 91.457031 139.042969 91.894531 138.371094 92.679688 137.8125 C 92.46875 138.605469 92.242188 139.398438 92.050781 140.195312 C 91.703125 141.621094 92.265625 142.304688 93.699219 142.042969 C 95.097656 141.792969 96.40625 141.191406 97.257812 139.992188 C 98.109375 138.796875 98.816406 137.488281 99.570312 136.222656 C 100.015625 135.46875 100.363281 134.652344 100.875 133.953125 C 102.09375 132.277344 103.742188 131.945312 105.421875 133.054688 C 105.804688 133.308594 106.21875 133.921875 106.191406 134.347656 C 106.058594 136.511719 107.464844 137.070312 109.101562 137.460938 C 109.550781 137.566406 109.992188 137.691406 110.800781 137.902344 C 110.269531 138.410156 109.953125 138.765625 109.585938 139.050781 C 107.03125 141.050781 105.867188 143.726562 105.824219 146.957031 C 105.820312 147.191406 105.914062 147.429688 106.285156 147.710938 C 106.585938 146.5 106.90625 145.296875 107.179688 144.082031 C 107.566406 142.371094 108.433594 140.972656 109.769531 139.867188 C 110.492188 139.269531 110.496094 139.269531 111.972656 139.316406 C 112.746094 140.5 113 141.5625 111.675781 142.644531 C 110.929688 143.253906 110.476562 144.195312 110.480469 145.410156 C 111.539062 144.429688 112.453125 143.578125 113.363281 142.730469 C 114.039062 143.039062 114.683594 143.347656 115.339844 143.632812 C 117.769531 144.695312 118.867188 146.761719 118.164062 149.371094 C 117.410156 152.164062 116.535156 154.925781 115.59375 157.65625 C 115.160156 158.914062 114.847656 160.085938 115.375 161.375 C 115.828125 162.484375 115.699219 163.589844 115.386719 164.738281 C 114.484375 168.039062 115.0625 171.152344 116.742188 174.082031 C 116.859375 174.285156 117.058594 174.433594 117.507812 174.492188 L 116.003906 167.019531 C 117.203125 167.519531 117.355469 168.441406 117.664062 169.167969 C 118.160156 170.34375 118.5625 171.570312 118.886719 172.804688 C 119.070312 173.503906 119.1875 174.300781 119.046875 174.992188 C 118.664062 176.835938 118.105469 178.636719 117.664062 180.46875 C 117.40625 181.550781 116.671875 182.046875 115.691406 182.179688 C 113.980469 182.40625 112.253906 182.75 110.546875 182.707031 C 105.605469 182.578125 100.785156 181.648438 96.09375 180.035156 C 94.191406 179.375 93 178.179688 92.316406 176.214844 C 91.632812 174.257812 90.617188 172.417969 89.730469 170.539062 C 89.300781 169.636719 88.828125 168.757812 88.484375 168.085938 C 89.402344 166.476562 90.1875 165.101562 91.054688 163.585938 C 92.8125 163.769531 94.714844 163.925781 96.601562 164.179688 C 98.355469 164.414062 100.046875 164.238281 101.710938 163.660156 C 103.339844 163.09375 105.007812 162.617188 106.589844 161.9375 C 108.640625 161.066406 110.421875 159.773438 111.699219 157.871094 C 111.863281 157.628906 111.945312 157.328125 112.132812 156.902344 C 110.382812 158.335938 108.925781 159.84375 107.195312 160.871094 C 104.609375 162.410156 101.6875 163.371094 98.707031 163.464844 C 96.5 163.535156 94.265625 162.796875 92.042969 162.414062 C 91.535156 162.324219 91.035156 162.199219 90.664062 162.117188 C 90.074219 163.15625 89.695312 164.175781 89.011719 164.917969 C 88.183594 165.828125 87.023438 165.199219 85.984375 165.195312 C 84.667969 165.191406 83.351562 165.535156 82.035156 165.488281 C 78.636719 165.375 76.332031 163.566406 74.949219 160.457031 C 74.324219 159.054688 74.589844 157.820312 75.582031 156.722656 C 77.144531 155.003906 79.007812 154.230469 81.324219 154.882812 C 81.960938 155.0625 82.617188 155.1875 83.273438 155.285156 C 84.613281 155.484375 85.902344 155.347656 87.226562 154.585938 L 86.621094 151.578125 C 86.535156 151.578125 86.449219 151.582031 86.363281 151.582031 L 86.359375 151.582031 C 86.347656 151.582031 86.332031 151.582031 86.320312 151.582031 C 86.199219 152.4375 86.082031 153.292969 85.960938 154.148438 C 85.851562 154.15625 85.746094 154.164062 85.636719 154.167969 L 85.210938 152.046875 C 85.113281 152.03125 85.019531 152.019531 84.921875 152.007812 C 84.679688 152.65625 84.445312 153.304688 84.132812 154.148438 C 83.316406 153.996094 82.492188 153.832031 81.660156 153.6875 C 78.148438 153.074219 74.488281 155.457031 73.597656 158.976562 C 73.582031 159.035156 73.566406 159.09375 73.550781 159.152344 C 72.90625 161.765625 72.667969 164.414062 73.195312 167.121094 C 73.480469 165.546875 73.765625 163.976562 74.113281 162.082031 C 76.007812 164.386719 77.738281 166.390625 79.359375 168.488281 C 80.710938 170.242188 82.191406 171.675781 84.476562 172.046875 C 85.902344 172.285156 87.304688 172.683594 88.710938 173.050781 C 89.042969 173.136719 89.335938 173.386719 89.945312 173.730469 C 87.074219 175.039062 84.472656 174.34375 81.890625 174.109375 C 78.941406 173.835938 77.367188 171.496094 75.347656 169.785156 C 76.652344 171.96875 77.5625 174.5625 80.757812 174.648438 C 81.339844 174.664062 81.914062 174.953125 82.496094 175.089844 C 84.921875 175.65625 87.351562 175.757812 89.890625 175.007812 C 88.621094 176.636719 83.042969 177.089844 79.292969 176.144531 C 75.324219 175.148438 73.480469 171.917969 71.488281 168.792969 C 72.441406 172.75 74.882812 175.414062 78.378906 177.21875 Z M 120.371094 188.222656 C 120.332031 188.273438 120.292969 188.324219 120.25 188.375 C 120.242188 188.382812 120.234375 188.390625 120.230469 188.398438 C 120.214844 188.417969 120.195312 188.4375 120.179688 188.457031 C 120.144531 188.5 120.109375 188.542969 120.070312 188.585938 C 120.050781 188.609375 120.03125 188.632812 120.007812 188.652344 C 120 188.660156 119.996094 188.667969 119.988281 188.671875 C 119.945312 188.714844 119.894531 188.757812 119.84375 188.792969 C 119.839844 188.796875 119.835938 188.800781 119.832031 188.804688 C 119.828125 188.808594 119.824219 188.808594 119.820312 188.8125 C 119.773438 188.847656 119.726562 188.878906 119.675781 188.910156 C 119.609375 188.949219 119.539062 188.988281 119.46875 189.027344 C 119.332031 189.09375 119.191406 189.152344 119.050781 189.207031 C 118.996094 189.230469 118.941406 189.25 118.886719 189.273438 C 117.609375 189.742188 116.320312 189.828125 115 189.746094 C 114.734375 189.730469 114.472656 189.707031 114.207031 189.679688 C 114.074219 189.664062 113.945312 189.652344 113.8125 189.632812 C 113.707031 189.621094 113.597656 189.605469 113.488281 189.59375 C 113.484375 189.59375 113.476562 189.589844 113.472656 189.589844 C 113.242188 189.558594 113.007812 189.527344 112.769531 189.492188 C 112.6875 189.480469 112.605469 189.46875 112.523438 189.457031 C 112.4375 189.441406 112.351562 189.429688 112.265625 189.417969 C 112.1875 189.40625 112.113281 189.394531 112.039062 189.382812 C 111.945312 189.367188 111.851562 189.355469 111.761719 189.339844 L 111.761719 189.328125 C 111.761719 189.328125 111.761719 189.324219 111.761719 189.324219 C 111.761719 189.257812 111.761719 189.195312 111.765625 189.128906 C 111.765625 189.125 111.765625 189.117188 111.769531 189.109375 C 111.828125 187.839844 112.320312 186.632812 113.128906 185.570312 C 114.453125 183.828125 116.628906 182.476562 119.148438 181.890625 C 119.148438 181.890625 119.148438 181.890625 119.152344 181.890625 C 119.351562 181.847656 119.554688 181.804688 119.761719 181.769531 C 120.417969 181.648438 121.089844 181.585938 121.773438 181.578125 C 122.550781 184.101562 121.917969 186.277344 120.371094 188.222656 Z M 140.703125 128.328125 C 139.632812 126.578125 138.398438 125.050781 136.152344 123.980469 C 137.351562 125.417969 138.292969 126.5 139.183594 127.625 C 140.210938 128.9375 140.519531 130.226562 139.4375 131.796875 C 138.480469 133.1875 137.851562 134.808594 136.894531 136.296875 C 136.363281 134.023438 136.164062 131.757812 134.734375 129.871094 C 133.328125 128.015625 131.507812 126.710938 129.128906 125.421875 C 134.082031 122.800781 138.554688 120.097656 143.496094 118.199219 C 143.75 120.558594 142.179688 126.230469 140.703125 128.328125 Z M 167.5 186.414062 C 167 185.25 166.304688 184.023438 166.289062 182.820312 C 166.246094 179.113281 166.453125 175.40625 166.644531 171.707031 C 166.683594 170.9375 166.9375 170.097656 167.332031 169.449219 C 170.199219 164.742188 173.289062 160.167969 175.992188 155.371094 C 178.566406 150.808594 180.925781 146.085938 182.117188 140.902344 C 183.144531 136.4375 184.1875 131.964844 184.984375 127.453125 C 185.792969 122.867188 186.339844 118.238281 186.042969 113.550781 C 185.800781 109.695312 185.003906 105.949219 184.175781 102.191406 C 183.828125 100.628906 183.082031 99.746094 181.71875 99.386719 C 180.714844 99.125 179.617188 98.984375 178.589844 99.085938 C 177.078125 99.238281 175.5625 99.5625 174.089844 99.96875 C 170.503906 100.960938 166.910156 101.964844 163.371094 103.121094 C 159.894531 104.25 156.378906 105.34375 153.078125 106.882812 C 150.199219 108.226562 147.574219 110.136719 144.886719 111.875 C 144.046875 112.421875 143.242188 112.632812 142.261719 112.511719 C 141.011719 112.347656 139.75 112.273438 138.492188 112.222656 C 138.046875 112.203125 137.476562 112.214844 137.167969 112.46875 C 135.773438 113.605469 134.265625 114.675781 133.148438 116.0625 C 131.089844 118.617188 129.246094 121.355469 127.375 124.058594 C 125.761719 126.382812 123.46875 127.0625 120.933594 126.574219 C 118.265625 126.058594 115.648438 125.234375 113.054688 124.402344 C 108.621094 122.980469 104.222656 121.457031 99.8125 119.960938 C 96.578125 118.855469 93.53125 119.253906 90.628906 121.042969 C 89.851562 121.523438 89.027344 121.929688 88.226562 122.367188 C 88.109375 122.304688 87.992188 122.238281 87.875 122.175781 C 89.007812 120.289062 89.839844 118.308594 88.613281 116.304688 C 87.484375 114.460938 85.554688 113.699219 83.265625 112.835938 C 84.265625 113.894531 85.195312 114.535156 85.625 115.421875 C 86.097656 116.394531 86.117188 117.597656 85.242188 118.773438 C 84.957031 118.207031 84.742188 117.800781 84.539062 117.382812 C 83.066406 114.328125 79.386719 111.332031 74.769531 112.707031 C 72.792969 113.292969 70.820312 113.882812 68.859375 114.519531 C 68.4375 114.65625 68.082031 115.011719 67.695312 115.261719 C 69.972656 114.90625 72.109375 114.636719 73.691406 116.910156 C 66.367188 117.820312 60.609375 120.167969 59.074219 122.847656 C 62.6875 121.035156 67.601562 120.332031 69.910156 121.367188 C 69.472656 121.554688 69.132812 121.753906 68.765625 121.851562 C 63.613281 123.230469 59.894531 126.289062 57.832031 131.351562 C 57.535156 132.085938 57.09375 132.8125 56.566406 133.394531 C 53.859375 136.363281 52.476562 139.980469 51.464844 143.800781 C 50.769531 146.421875 50.773438 148.988281 51.726562 151.554688 C 52.707031 154.195312 53.679688 156.84375 54.523438 159.527344 C 55.53125 162.734375 57.273438 165.332031 60.019531 167.246094 C 60.484375 167.570312 60.871094 168.082031 61.148438 168.59375 C 61.976562 170.109375 63.128906 171.277344 64.558594 172.207031 C 65.957031 173.113281 67.308594 174.101562 68.722656 174.980469 C 73.585938 178 78.769531 179.570312 84.503906 178.28125 C 86.226562 177.894531 87.929688 177.398438 89.785156 176.917969 C 89.5 177.277344 89.257812 177.578125 89.023438 177.878906 C 87.867188 179.359375 86.714844 180.839844 85.558594 182.320312 C 83.796875 184.570312 83.011719 187.019531 84 189.863281 C 84.074219 190.074219 84.121094 190.285156 84.140625 190.488281 C 84.148438 190.542969 84.152344 190.601562 84.152344 190.652344 C 84.15625 190.699219 84.15625 190.746094 84.15625 190.792969 C 84.15625 190.851562 84.152344 190.90625 84.148438 190.960938 C 84.140625 191.074219 84.128906 191.1875 84.105469 191.296875 C 84.089844 191.402344 84.0625 191.511719 84.03125 191.617188 C 83.964844 191.863281 83.867188 192.109375 83.75 192.367188 C 83.328125 193.289062 82.871094 194.1875 82.386719 195.058594 C 82.320312 195.175781 82.253906 195.289062 82.1875 195.40625 C 82.15625 195.464844 82.125 195.519531 82.089844 195.578125 C 82.023438 195.699219 81.949219 195.820312 81.878906 195.941406 C 81.792969 196.085938 81.707031 196.230469 81.617188 196.375 C 81.542969 196.5 81.46875 196.621094 81.394531 196.742188 C 78.75 200.984375 75.382812 204.628906 71.527344 207.894531 C 68.722656 210.265625 65.984375 212.714844 63.265625 215.191406 C 62.984375 215.445312 62.738281 215.714844 62.523438 216 L 63.902344 216 C 64.476562 215.179688 65.226562 214.453125 66.148438 213.808594 C 67.902344 212.585938 69.628906 211.324219 71.398438 210.128906 C 76.304688 206.8125 80.082031 202.429688 83.210938 197.414062 C 83.445312 197.039062 83.699219 196.671875 83.960938 196.304688 C 84.046875 196.179688 84.136719 196.058594 84.226562 195.933594 C 84.339844 195.777344 84.453125 195.625 84.566406 195.464844 C 84.65625 195.34375 84.746094 195.222656 84.835938 195.097656 C 84.84375 195.089844 84.847656 195.082031 84.855469 195.074219 C 84.941406 194.957031 85.023438 194.839844 85.109375 194.71875 C 85.140625 194.675781 85.171875 194.632812 85.203125 194.589844 C 85.234375 194.628906 85.265625 194.664062 85.292969 194.695312 C 85.390625 194.808594 85.480469 194.902344 85.558594 194.984375 C 85.660156 195.09375 85.742188 195.179688 85.800781 195.269531 C 85.832031 195.316406 85.855469 195.359375 85.875 195.40625 C 85.90625 195.484375 85.9375 195.566406 85.96875 195.644531 C 86.007812 195.746094 86.050781 195.847656 86.089844 195.949219 C 87.15625 198.636719 88.234375 201.316406 89.238281 204.027344 C 89.988281 206.050781 90.613281 206.609375 92.703125 206.691406 C 93.367188 206.714844 94.035156 206.667969 94.699219 206.648438 C 96.351562 206.609375 98.003906 206.570312 99.933594 206.523438 C 99.558594 207.398438 99.25 208.050781 98.992188 208.71875 C 98.484375 210.039062 98.007812 211.371094 97.507812 212.691406 C 97.121094 213.726562 97.390625 214.515625 98.289062 215.140625 C 98.6875 215.414062 99.078125 215.707031 99.464844 216 L 102.445312 216 C 101.527344 215.5 100.609375 215 99.695312 214.496094 C 99.121094 214.179688 98.617188 213.734375 98 213.296875 C 99.1875 210.035156 101.199219 207.226562 102.214844 203.9375 C 98.433594 204.40625 94.851562 204.851562 91.171875 205.308594 C 90.890625 204.621094 90.632812 204.085938 90.441406 203.523438 C 89.550781 200.90625 88.660156 198.292969 87.769531 195.679688 C 87.738281 195.574219 87.703125 195.472656 87.667969 195.371094 C 87.628906 195.253906 87.585938 195.136719 87.546875 195.019531 C 87.515625 194.929688 87.484375 194.839844 87.457031 194.746094 C 87.453125 194.734375 87.445312 194.722656 87.441406 194.710938 C 87.410156 194.621094 87.382812 194.53125 87.351562 194.4375 C 87.003906 193.414062 86.65625 192.386719 86.3125 191.359375 C 86.28125 191.257812 86.246094 191.160156 86.214844 191.058594 C 86.1875 190.984375 86.164062 190.910156 86.136719 190.835938 C 86.105469 190.746094 86.078125 190.660156 86.046875 190.570312 C 86.042969 190.558594 86.039062 190.542969 86.035156 190.53125 C 86.011719 190.457031 85.984375 190.382812 85.960938 190.308594 C 85.957031 190.296875 85.953125 190.285156 85.949219 190.273438 C 85.027344 187.5 85.132812 184.867188 87.089844 182.503906 C 87.980469 181.429688 88.804688 180.300781 89.832031 178.964844 C 90.027344 179.484375 90.203125 179.75 90.214844 180.027344 C 90.382812 183.804688 92.121094 186.8125 94.582031 189.464844 C 94.644531 189.53125 94.707031 189.597656 94.769531 189.664062 C 94.792969 189.691406 94.820312 189.71875 94.847656 189.746094 C 94.949219 189.851562 95.050781 189.957031 95.152344 190.0625 C 95.214844 190.125 95.273438 190.191406 95.335938 190.253906 C 95.359375 190.277344 95.382812 190.300781 95.40625 190.324219 C 95.476562 190.398438 95.550781 190.46875 95.621094 190.542969 C 96.480469 191.410156 97.363281 192.246094 98.277344 193.046875 C 98.378906 193.140625 98.484375 193.230469 98.589844 193.320312 C 98.683594 193.398438 98.773438 193.476562 98.863281 193.554688 C 98.902344 193.589844 98.941406 193.621094 98.980469 193.652344 C 99.042969 193.707031 99.105469 193.757812 99.167969 193.8125 C 99.214844 193.847656 99.261719 193.886719 99.304688 193.925781 C 100.328125 194.769531 101.390625 195.574219 102.496094 196.328125 C 105.136719 198.128906 107.617188 200.195312 110.03125 202.308594 C 114.964844 206.621094 119.878906 210.960938 124.652344 215.449219 C 124.847656 215.632812 125.042969 215.816406 125.238281 216 L 127.035156 216 C 126.367188 215.328125 125.695312 214.65625 125.019531 213.988281 C 120.460938 209.476562 115.46875 205.414062 110.660156 201.160156 C 109.320312 199.980469 107.945312 198.839844 106.445312 197.5625 C 107.464844 196.21875 108.410156 195.015625 109.308594 193.777344 C 109.90625 192.957031 110.570312 192.3125 111.304688 191.84375 C 112.316406 191.199219 113.460938 190.890625 114.765625 190.910156 C 115.074219 190.917969 115.394531 190.941406 115.722656 190.984375 C 116.46875 191.082031 117.277344 191.027344 118.015625 190.84375 C 118.09375 190.824219 118.167969 190.804688 118.242188 190.78125 C 118.414062 190.730469 118.582031 190.675781 118.742188 190.617188 C 118.894531 190.5625 119.039062 190.507812 119.183594 190.445312 C 119.613281 190.257812 120.015625 190.039062 120.378906 189.792969 C 120.457031 189.738281 120.539062 189.679688 120.617188 189.621094 C 120.734375 189.535156 120.84375 189.445312 120.953125 189.351562 C 120.980469 189.328125 121.011719 189.304688 121.035156 189.277344 C 121.066406 189.253906 121.097656 189.222656 121.128906 189.195312 C 121.183594 189.144531 121.234375 189.09375 121.289062 189.042969 C 121.371094 188.960938 121.449219 188.875 121.527344 188.789062 C 122.574219 187.625 123.160156 186.085938 123.351562 184.277344 C 123.46875 183.171875 123.859375 182.503906 124.800781 182.121094 C 126.332031 181.492188 127.878906 180.886719 129.433594 180.316406 C 130.414062 179.957031 131.417969 179.675781 132.414062 179.355469 C 132.390625 179.285156 132.371094 179.214844 132.351562 179.140625 C 127.839844 179.738281 123.328125 180.335938 118.722656 180.945312 C 119.179688 179.289062 119.792969 177.707031 120.019531 176.066406 C 120.25 174.421875 120.289062 172.695312 120.046875 171.0625 C 119.8125 169.496094 119.113281 168 118.527344 166.183594 C 119.035156 166.460938 119.234375 166.515625 119.363281 166.644531 C 122.023438 169.332031 124.925781 171.710938 127.921875 173.960938 C 127.925781 173.960938 127.925781 173.960938 127.925781 173.960938 C 130.050781 175.554688 132.222656 177.082031 134.398438 178.609375 C 136.769531 180.269531 139.179688 181.882812 141.507812 183.609375 C 142.078125 184.03125 142.644531 184.460938 143.199219 184.898438 C 148.519531 189.058594 153.726562 193.367188 158.988281 197.605469 C 159.210938 197.785156 160.714844 199.082031 161.964844 200.136719 C 161.996094 200.195312 162.03125 200.25 162.074219 200.292969 C 165.171875 203.445312 168.199219 206.671875 171.402344 209.707031 C 173.410156 211.605469 175.261719 213.558594 176.496094 216 L 179.628906 216 C 179.550781 215.921875 179.46875 215.84375 179.386719 215.765625 C 176.066406 212.558594 172.734375 209.367188 169.367188 206.21875 C 167.410156 204.390625 165.382812 202.648438 163.363281 200.890625 C 163.105469 200.667969 162.816406 200.476562 162.527344 200.289062 C 161.339844 199.074219 159.640625 197.402344 159.417969 197.191406 C 153.96875 192.039062 148.421875 186.996094 142.382812 182.558594 C 138.832031 179.953125 135.101562 177.59375 131.550781 174.984375 C 127.351562 171.902344 123.203125 168.746094 119.492188 165.042969 C 118.9375 164.488281 118.304688 164.003906 117.46875 163.285156 C 118.441406 162.917969 119.257812 162.390625 120.105469 162.335938 C 123.945312 162.089844 127.792969 161.929688 131.640625 161.851562 C 132.886719 161.828125 134.140625 162.140625 135.386719 162.328125 C 136.289062 162.464844 136.765625 163.003906 136.867188 163.957031 C 136.996094 165.164062 137.175781 166.371094 137.402344 167.5625 C 137.546875 168.332031 137.8125 169.082031 138.042969 169.894531 L 142.296875 169.011719 C 142.75 168.914062 143.230469 168.878906 143.660156 168.714844 C 145.492188 168.023438 146.695312 168.863281 147.691406 170.332031 C 149.988281 173.71875 152.335938 177.078125 154.609375 180.480469 C 158.414062 186.175781 162.179688 191.894531 165.945312 197.609375 C 166.753906 198.832031 167.496094 200.097656 168.523438 201.257812 C 168.484375 200.992188 168.5 200.699219 168.394531 200.460938 C 167.136719 197.636719 165.847656 194.84375 164.089844 192.265625 C 159.28125 185.226562 154.679688 178.046875 149.828125 171.039062 C 147.039062 167.015625 147.019531 166.882812 142.066406 168.125 C 140.789062 168.449219 139.535156 168.839844 138.132812 169.234375 C 138.136719 167.5625 138.164062 166.027344 138.128906 164.5 C 138.074219 162.136719 137.597656 161.417969 135.285156 161.148438 C 132.855469 160.867188 130.390625 160.90625 127.941406 160.847656 C 127.101562 160.828125 126.257812 160.933594 125.4375 160.980469 C 125.402344 160.753906 125.363281 160.648438 125.390625 160.625 C 128.097656 158.242188 129.789062 155.066406 131.730469 152.101562 C 133.273438 149.746094 135.421875 149.117188 137.96875 149.757812 C 139.609375 150.171875 141.121094 149.710938 142.632812 149.320312 C 146.859375 148.226562 150.179688 145.753906 152.777344 142.230469 C 153.289062 141.53125 153.820312 140.851562 154.542969 139.902344 C 154.933594 142.105469 154.183594 143.949219 154.179688 145.824219 C 154.175781 147.710938 153.964844 149.59375 153.9375 151.480469 C 153.914062 153.425781 154.003906 155.375 154.257812 157.339844 C 155.460938 149.785156 155.234375 142.003906 157.769531 134.679688 C 158.796875 145.253906 158.152344 155.914062 160.019531 166.40625 C 160.769531 164.734375 160.550781 163 160.5 161.285156 C 160.28125 154.070312 159.988281 146.855469 159.871094 139.640625 C 159.824219 136.960938 160.1875 134.273438 160.382812 131.316406 C 161.15625 131.300781 161.914062 131.234375 162.664062 131.289062 C 165.925781 131.527344 169.171875 131.5 172.386719 130.816406 C 173.140625 130.65625 173.863281 130.339844 174.574219 129.957031 C 170.933594 130.386719 167.3125 130.738281 163.582031 130.351562 C 167.394531 127.9375 171.449219 125.910156 174.179688 122.105469 C 168.160156 126.1875 162.050781 130.070312 154.910156 131.820312 C 153.710938 132.117188 152.488281 132.328125 151.28125 132.582031 C 151.230469 132.453125 151.179688 132.324219 151.132812 132.195312 C 151.628906 131.847656 152.132812 131.5 152.632812 131.148438 C 152.585938 131.050781 152.535156 130.945312 152.484375 130.847656 C 150.230469 131.898438 147.996094 132.992188 145.71875 133.988281 C 143.476562 134.972656 141.1875 135.832031 138.503906 136.023438 C 139.605469 133.976562 140.703125 132.167969 141.578125 130.253906 C 143.089844 126.945312 144.351562 123.535156 144.894531 119.894531 C 145.230469 117.652344 145.101562 117.382812 143.175781 116.414062 C 141.101562 115.371094 140.613281 114.957031 139.652344 113.449219 C 143.222656 113.355469 146.839844 113.386719 150.4375 113.125 C 153.964844 112.867188 157.484375 112.351562 160.773438 110.773438 C 156.621094 111.335938 152.464844 111.898438 147.917969 112.515625 C 148.371094 111.957031 148.496094 111.699219 148.695312 111.574219 C 152.59375 109.125 156.472656 106.710938 160.980469 105.441406 C 165.328125 104.214844 169.535156 102.480469 173.847656 101.128906 C 175.800781 100.515625 177.859375 100.214844 179.886719 99.917969 C 180.558594 99.820312 181.316406 100.101562 181.992188 100.335938 C 182.65625 100.570312 182.980469 101.082031 183.03125 101.882812 C 183.109375 103.15625 183.277344 104.445312 183.582031 105.679688 C 185.28125 112.628906 185.234375 119.59375 183.777344 126.558594 C 182.882812 130.847656 181.976562 135.144531 180.835938 139.371094 C 179.003906 146.140625 175.625 152.199219 171.996094 158.113281 C 170.878906 159.929688 169.671875 161.695312 168.390625 163.65625 C 167.902344 162.800781 168.019531 162 168.066406 161.257812 C 168.367188 156.339844 168.703125 151.425781 169.027344 146.511719 C 169.050781 146.183594 169.070312 145.855469 169.09375 145.527344 C 168.140625 147.445312 167.945312 149.53125 167.644531 151.589844 C 167.328125 153.722656 167.003906 155.855469 166.75 158 C 166.503906 160.074219 166.367188 162.167969 166.132812 164.246094 C 165.898438 166.390625 165.550781 168.523438 165.34375 170.667969 C 165.144531 172.789062 165.058594 174.925781 164.621094 177.070312 L 162.390625 166.003906 C 162.484375 171.820312 162.9375 177.578125 164.789062 183.113281 C 166.75 188.964844 169.695312 194.328125 173.042969 199.453125 C 176.535156 204.796875 179.652344 210.359375 182.632812 216 L 184.164062 216 C 181.890625 211.535156 179.449219 207.15625 176.789062 202.902344 C 173.445312 197.550781 170 192.253906 167.5 186.414062 Z M 110.210938 189.386719 C 110.179688 189.441406 110.148438 189.496094 110.117188 189.546875 C 110.113281 189.554688 110.109375 189.566406 110.101562 189.570312 C 110.242188 189.582031 110.402344 189.589844 110.578125 189.597656 C 110.585938 189.582031 110.59375 189.5625 110.601562 189.546875 C 110.613281 189.511719 110.628906 189.476562 110.644531 189.441406 C 110.492188 189.425781 110.347656 189.410156 110.210938 189.386719 Z M 113.878906 190.546875 L 113.777344 190.375 L 113.730469 190.300781 L 113.414062 189.777344 L 113.394531 189.742188 C 113.394531 189.742188 113.292969 189.734375 113.109375 189.71875 L 113.105469 189.71875 C 112.882812 189.699219 112.53125 189.671875 112.074219 189.644531 C 112.035156 189.644531 111.992188 189.640625 111.953125 189.640625 C 111.480469 189.625 110.988281 189.613281 110.578125 189.597656 C 110.402344 189.589844 110.242188 189.582031 110.101562 189.570312 C 110.085938 189.601562 110.070312 189.632812 110.050781 189.664062 C 109.992188 189.761719 109.9375 189.859375 109.882812 189.957031 C 109.824219 190.054688 109.769531 190.15625 109.710938 190.253906 C 109.910156 190.265625 110.109375 190.277344 110.304688 190.289062 C 111.371094 190.359375 112.390625 190.4375 113.117188 190.523438 C 113.316406 190.542969 113.496094 190.570312 113.648438 190.59375 C 113.761719 190.609375 113.859375 190.628906 113.941406 190.644531 L 113.878906 190.546875 " fill-opacity="1" fill-rule="nonzero"/></g><path fill="#000000" d="M 160.277344 198.457031 C 160.773438 198.90625 161.273438 199.359375 161.769531 199.808594 L 161.804688 199.765625 C 161.304688 199.316406 160.804688 198.863281 160.300781 198.410156 L 160.277344 198.457031 " fill-opacity="1" fill-rule="nonzero"/><path fill="#000000" d="M 143.089844 152.117188 C 142.601562 151.644531 142.152344 150.980469 141.042969 151.335938 C 144.925781 155.988281 148.691406 160.503906 152.460938 165.019531 C 152.566406 164.949219 152.671875 164.878906 152.777344 164.808594 C 152.308594 164.023438 151.867188 163.222656 151.367188 162.457031 C 148.933594 158.742188 146.269531 155.214844 143.089844 152.117188 " fill-opacity="1" fill-rule="nonzero"/><path fill="#000000" d="M 68.28125 125.59375 C 69.835938 125.542969 71.417969 124.230469 72.980469 125.914062 C 71.703125 126.253906 70.660156 126.464844 69.664062 126.8125 C 65.730469 128.1875 62.597656 130.730469 59.777344 133.777344 C 57.363281 136.378906 55.976562 139.613281 54.238281 142.632812 C 53.648438 143.652344 53.363281 144.847656 53.464844 146.105469 C 53.648438 146.070312 53.746094 146.078125 53.761719 146.042969 C 53.878906 145.804688 54 145.566406 54.078125 145.3125 C 55.183594 141.714844 57.519531 139.082031 60.589844 137.148438 C 63.125 135.546875 65.777344 134.140625 68.410156 132.710938 C 70.214844 131.730469 72.117188 130.925781 73.507812 129.179688 C 70.910156 130.5 68.277344 131.761719 65.722656 133.164062 C 63.179688 134.558594 60.710938 136.09375 57.890625 137.757812 C 59.703125 134.945312 61.667969 132.738281 63.972656 130.910156 C 67.179688 128.367188 70.6875 126.519531 74.980469 127.082031 C 75.292969 127.125 75.632812 126.960938 76.136719 126.855469 C 73.613281 124.804688 71.320312 122.996094 68.28125 125.59375 " fill-opacity="1" fill-rule="nonzero"/><path fill="#000000" d="M 58.4375 142.273438 C 55.773438 144.257812 54.425781 147.011719 54.472656 150.449219 C 54.566406 150.277344 54.703125 150.117188 54.746094 149.933594 C 55.660156 145.945312 58.015625 143.144531 61.453125 141.089844 C 64.472656 139.285156 67.402344 137.3125 70.308594 135.324219 C 71.074219 134.800781 71.617188 133.941406 72.257812 133.234375 C 69.328125 135.019531 66.53125 136.871094 63.738281 138.722656 C 61.964844 139.898438 60.140625 141 58.4375 142.273438 " fill-opacity="1" fill-rule="nonzero"/><path fill="#000000" d="M 86.757812 160.90625 C 85.933594 160.386719 85 160.003906 84.0625 159.722656 C 83.132812 159.449219 82.371094 159.136719 81.929688 158.136719 C 81.359375 156.835938 80.472656 156.433594 79.242188 156.664062 C 77.972656 156.902344 76.710938 158.042969 76.589844 159.105469 C 76.503906 159.84375 76.722656 160.429688 77.632812 160.679688 C 77.613281 160.304688 77.597656 159.988281 77.582031 159.671875 C 77.515625 158.253906 78.226562 157.535156 79.617188 157.761719 C 80.613281 157.921875 81.492188 158.367188 81.960938 159.390625 C 82.460938 160.5 84.074219 162.011719 85.136719 162.425781 C 85.320312 162.496094 85.515625 162.683594 85.675781 162.65625 C 86.152344 162.582031 86.832031 162.5625 87.015625 162.257812 C 87.203125 161.957031 87.039062 161.085938 86.757812 160.90625 " fill-opacity="1" fill-rule="nonzero"/><path fill="#000000" d="M 66.734375 165.511719 C 67.339844 161.632812 68.742188 158.3125 70.480469 155.109375 C 72.257812 151.828125 75.171875 149.789062 78.144531 147.785156 C 72.242188 148.886719 65.464844 159.371094 66.734375 165.511719 " fill-opacity="1" fill-rule="nonzero"/><path fill="#000000" d="M 69.308594 166.570312 C 71.148438 160.675781 73.070312 155.082031 77.875 151.128906 C 73.457031 153.039062 69.117188 160.957031 69.308594 166.570312 " fill-opacity="1" fill-rule="nonzero"/><path fill="#000000" d="M 76.777344 142.230469 C 76.804688 142.257812 76.835938 142.285156 76.867188 142.308594 C 76.847656 142.265625 76.832031 142.222656 76.816406 142.175781 L 76.777344 142.230469 " fill-opacity="1" fill-rule="nonzero"/><path fill="#000000" d="M 79.378906 146.039062 C 78.933594 145.066406 78.402344 144.128906 77.832031 143.226562 C 77.601562 142.863281 77.207031 142.601562 76.867188 142.308594 C 77.152344 143.082031 77.445312 143.851562 77.71875 144.625 C 78.570312 147.054688 80.058594 148.984375 82.175781 150.378906 C 82.554688 150.628906 83.117188 150.59375 83.59375 150.6875 C 81.761719 149.398438 80.285156 148.027344 79.378906 146.039062 " fill-opacity="1" fill-rule="nonzero"/><path fill="#000000" d="M 79.214844 158.417969 C 78.472656 160.910156 78.78125 162.003906 80.171875 162.949219 C 81.152344 163.617188 81.691406 163.574219 82.9375 162.566406 C 80.546875 162.394531 79.722656 160.804688 79.214844 158.417969 " fill-opacity="1" fill-rule="nonzero"/><path fill="#000000" d="M 95.660156 165.660156 C 95.691406 165.839844 95.722656 166.015625 95.75 166.191406 C 97.003906 166.09375 98.257812 165.996094 99.507812 165.898438 C 98.207031 165.257812 96.925781 164.890625 95.660156 165.660156 " fill-opacity="1" fill-rule="nonzero"/><path fill="#000000" d="M 103.089844 142.09375 C 102.042969 142 101.226562 141.847656 100.40625 140.46875 C 100.835938 142.160156 101.214844 142.417969 103.089844 142.09375 " fill-opacity="1" fill-rule="nonzero"/><path fill="#000000" d="M 104.097656 139.695312 C 104.082031 138.792969 104.1875 137.601562 104.121094 136.828125 C 102.699219 139.070312 102.746094 139.761719 103.648438 140.039062 C 103.875 140.105469 104.101562 139.933594 104.097656 139.695312 " fill-opacity="1" fill-rule="nonzero"/><path fill="#000000" d="M 98.140625 167.21875 C 98.140625 167.394531 98.140625 167.570312 98.144531 167.746094 C 98.957031 167.734375 100.582031 167.386719 100.582031 167.222656 C 99.769531 167.21875 98.953125 167.21875 98.140625 167.21875 " fill-opacity="1" fill-rule="nonzero"/><path fill="#000000" d="M 76.777344 142.230469 C 76.777344 142.230469 76.816406 142.175781 76.816406 142.175781 C 76.785156 142.160156 76.757812 142.144531 76.726562 142.128906 C 76.742188 142.160156 76.761719 142.195312 76.777344 142.230469 " fill-opacity="1" fill-rule="nonzero"/><path fill="#000000" d="M 75.011719 141.15625 C 75.582031 141.480469 76.15625 141.804688 76.726562 142.128906 C 76.289062 141.246094 76.242188 141.238281 75.011719 141.15625 " fill-opacity="1" fill-rule="nonzero"/><path fill="#000000" d="M 100.320312 169.949219 C 100.820312 169.957031 101.832031 169.761719 101.835938 169.65625 C 101.339844 169.617188 100.84375 169.582031 100.347656 169.546875 C 100.339844 169.679688 100.328125 169.816406 100.320312 169.949219 " fill-opacity="1" fill-rule="nonzero"/><path fill="#000000" d="M 104.152344 126.121094 C 104.175781 126.113281 104.199219 126.105469 104.222656 126.097656 C 104.210938 126.089844 104.195312 126.082031 104.179688 126.074219 C 104.179688 126.074219 104.152344 126.121094 104.152344 126.121094 " fill-opacity="1" fill-rule="nonzero"/><path fill="#000000" d="M 104.222656 126.097656 C 105.015625 126.472656 105.78125 127.023438 106.613281 127.171875 C 109.605469 127.707031 112.621094 128.101562 115.628906 128.53125 C 115.867188 128.566406 116.121094 128.476562 116.371094 128.441406 C 112.445312 127.394531 108.488281 126.699219 104.527344 126.011719 C 104.433594 125.996094 104.328125 126.050781 104.222656 126.097656 " fill-opacity="1" fill-rule="nonzero"/><path fill="#000000" d="M 112.644531 185.785156 C 112.644531 185.785156 119.285156 182.886719 119.882812 181.578125 C 120.480469 180.269531 113.972656 183.816406 112.644531 185.785156 " fill-opacity="1" fill-rule="nonzero"/><path fill="#000000" d="M 149.75 214.808594 C 149.292969 215.234375 148.746094 215.097656 148.226562 214.425781 C 148.179688 214.363281 148.132812 214.304688 148.09375 214.238281 C 147.863281 213.820312 147.605469 213.390625 148.136719 212.929688 C 148.695312 212.441406 149.039062 212.816406 149.378906 213.148438 C 149.433594 213.203125 149.484375 213.257812 149.535156 213.316406 C 150.058594 213.9375 150.132812 214.449219 149.75 214.808594 Z M 147.921875 212.636719 C 147.21875 213.246094 147.195312 214.265625 147.871094 215.050781 C 148.460938 215.738281 149.203125 215.78125 149.921875 215.171875 C 150.691406 214.519531 150.710938 213.632812 149.96875 212.800781 C 149.34375 212.097656 148.613281 212.039062 147.921875 212.636719 " fill-opacity="1" fill-rule="nonzero"/><g clip-path="url(#b681be2436)"><path fill="#ff3b29" d="M 148.179688 206.074219 C 152.332031 209.585938 157.3125 213.980469 159.59375 216 L 149.4375 216 C 149.3125 215.863281 149.1875 215.726562 149.058594 215.589844 C 148.523438 215.011719 147.960938 214.417969 147.378906 213.820312 C 142.710938 209.011719 136.6875 203.734375 130.015625 200.152344 L 118.742188 190.617188 L 118.574219 190.472656 L 118.382812 190.3125 C 118.382812 190.3125 118.398438 190.242188 118.457031 190.144531 C 118.484375 190.097656 118.523438 190.046875 118.574219 189.992188 C 118.621094 189.941406 118.679688 189.890625 118.753906 189.839844 C 118.914062 189.734375 119.144531 189.636719 119.46875 189.589844 C 119.53125 189.582031 119.59375 189.574219 119.660156 189.570312 C 119.730469 189.566406 119.796875 189.5625 119.871094 189.5625 C 120.039062 189.5625 120.226562 189.570312 120.433594 189.597656 C 120.492188 189.605469 121.089844 188.910156 121.152344 188.921875 C 123.308594 189.25 126.988281 191.761719 135.207031 197.816406 C 135.210938 197.816406 135.210938 197.816406 135.210938 197.816406 C 135.34375 197.886719 143.804688 202.378906 148.179688 206.074219 " fill-opacity="1" fill-rule="nonzero"/></g><g clip-path="url(#528ed7e11c)"><path fill="#000000" d="M 120.59375 188.921875 Z M 146.96875 205.019531 C 145.003906 203.386719 142.976562 201.824219 140.863281 200.382812 C 137.355469 197.992188 133.835938 195.613281 130.167969 193.445312 C 128.121094 192.234375 124.261719 189.722656 121.574219 188.378906 C 121.441406 188.3125 121.710938 188.152344 121.585938 188.089844 C 121.429688 188.011719 121.132812 188.105469 120.863281 188.175781 L 121.4375 186.902344 C 121.4375 186.902344 120.203125 181.859375 120.328125 182.492188 C 120.777344 184.753906 120.371094 187.007812 120.011719 188.136719 C 119.953125 188.21875 119.898438 188.378906 119.757812 188.582031 C 119.632812 188.765625 119.371094 189.039062 119.050781 189.207031 C 119.015625 189.226562 119.015625 189.277344 119 189.3125 C 118.773438 189.449219 118.542969 189.582031 118.335938 189.707031 C 118.171875 189.761719 118.011719 189.816406 117.847656 189.875 C 117.457031 190.023438 117.382812 190.128906 117.558594 190.273438 C 117.550781 190.289062 117.554688 190.300781 117.5625 190.3125 C 117.570312 190.324219 117.582031 190.339844 117.59375 190.351562 C 117.734375 190.519531 117.875 190.683594 118.015625 190.84375 C 121.976562 195.347656 126.242188 197.175781 131.007812 200.925781 C 136.003906 204.855469 140.957031 208.84375 145.75 213.023438 C 146.441406 213.621094 147.105469 214.246094 147.746094 214.890625 C 147.898438 215.046875 148.050781 215.203125 148.203125 215.359375 C 148.40625 215.570312 148.609375 215.785156 148.808594 216 L 150.757812 216 C 150.5 215.707031 150.234375 215.417969 149.96875 215.128906 C 149.882812 215.035156 149.796875 214.941406 149.707031 214.847656 C 149.144531 214.246094 148.574219 213.65625 147.992188 213.078125 C 147.90625 212.992188 147.820312 212.910156 147.738281 212.824219 C 145.757812 210.882812 143.652344 209.074219 141.398438 207.425781 C 135.410156 203.035156 129.421875 198.648438 123.523438 194.140625 C 121.707031 192.75 120.730469 191.882812 119.183594 190.445312 C 119.125 190.390625 119.066406 190.335938 119.007812 190.28125 L 119.003906 190.28125 C 119.277344 190.148438 119.546875 189.996094 119.792969 189.878906 C 119.894531 189.828125 120.03125 189.777344 120.167969 189.722656 C 120.171875 189.722656 120.179688 189.722656 120.183594 189.714844 C 120.527344 189.574219 120.84375 189.394531 120.554688 189.085938 C 120.542969 189.070312 120.53125 189.058594 120.519531 189.050781 C 120.929688 189.195312 121.378906 189.347656 121.75 189.476562 C 123.296875 190.367188 125.0625 191.832031 125.671875 192.183594 C 128.867188 194.039062 132.09375 195.847656 135.207031 197.816406 C 135.210938 197.816406 135.210938 197.816406 135.210938 197.816406 C 138.0625 199.621094 140.820312 201.5625 143.550781 203.53125 C 147.320312 206.242188 155.796875 212.140625 159.269531 216 L 160.441406 216 C 156.648438 212.171875 150.578125 208.019531 146.96875 205.019531 " fill-opacity="1" fill-rule="nonzero"/></g><path fill="#ffffff" d="M 89.164062 103.1875 C 88.578125 101.800781 87.75 101.074219 86.539062 100.082031 C 85.820312 99.492188 84.921875 97.972656 86.496094 97.640625 C 89.457031 97.023438 89.222656 102.84375 89.164062 103.1875 " fill-opacity="1" fill-rule="nonzero"/><g clip-path="url(#8ba431c2dd)"><path fill="#ffffff" d="M 104.777344 100.410156 C 105.554688 98.78125 105.484375 97.492188 105.320312 95.664062 C 105.222656 94.574219 106.152344 93.109375 107.597656 93.621094 C 110.953125 94.816406 105.160156 100.175781 104.777344 100.410156 " fill-opacity="1" fill-rule="nonzero"/></g><path fill="#ffffff" d="M 113.5625 109.402344 C 115.277344 108.523438 116.703125 108.441406 118.738281 108.382812 C 119.949219 108.347656 121.460938 107.355469 120.738281 106.121094 C 119.058594 103.257812 113.78125 109.035156 113.5625 109.402344 " fill-opacity="1" fill-rule="nonzero"/><g clip-path="url(#64e747f01d)"><path fill="#000000" d="M 105.257812 99.695312 C 105.285156 99.625 105.316406 99.550781 105.339844 99.480469 C 105.460938 99.15625 105.550781 98.804688 105.617188 98.4375 C 105.738281 97.703125 105.726562 96.953125 105.699219 96.316406 L 105.667969 95.792969 L 105.660156 95.664062 C 105.65625 95.644531 105.65625 95.628906 105.65625 95.617188 L 105.652344 95.550781 C 105.65625 95.480469 105.660156 95.402344 105.667969 95.328125 C 105.707031 95.027344 105.816406 94.734375 105.984375 94.480469 C 106.070312 94.347656 106.171875 94.234375 106.28125 94.140625 C 106.386719 94.046875 106.507812 93.972656 106.644531 93.921875 C 106.769531 93.875 106.90625 93.851562 107.046875 93.855469 C 107.179688 93.859375 107.320312 93.890625 107.480469 93.945312 C 107.632812 94 107.769531 94.070312 107.878906 94.152344 C 107.992188 94.234375 108.082031 94.332031 108.144531 94.445312 C 108.207031 94.554688 108.25 94.679688 108.261719 94.816406 C 108.277344 94.945312 108.269531 95.089844 108.242188 95.253906 C 108.199219 95.519531 108.097656 95.8125 107.929688 96.167969 C 107.863281 96.3125 107.785156 96.464844 107.695312 96.617188 C 107.609375 96.773438 107.519531 96.921875 107.429688 97.058594 C 107.089844 97.582031 106.6875 98.121094 106.15625 98.753906 C 105.917969 99.046875 105.664062 99.328125 105.449219 99.566406 C 105.363281 99.660156 105.28125 99.746094 105.199219 99.832031 Z M 108.8125 94.140625 C 108.707031 93.945312 108.546875 93.769531 108.355469 93.628906 C 108.183594 93.5 107.984375 93.394531 107.761719 93.316406 C 107.523438 93.230469 107.289062 93.183594 107.070312 93.179688 C 106.816406 93.171875 106.570312 93.214844 106.347656 93.300781 C 106.132812 93.386719 105.929688 93.515625 105.761719 93.664062 C 105.605469 93.808594 105.46875 93.96875 105.355469 94.152344 C 105.136719 94.503906 105.011719 94.878906 104.980469 95.265625 C 104.96875 95.351562 104.96875 95.445312 104.972656 95.566406 L 104.976562 95.648438 C 104.980469 95.671875 104.980469 95.695312 104.984375 95.710938 L 105.054688 96.355469 C 105.121094 97.007812 105.175781 97.707031 105.128906 98.390625 C 105.105469 98.707031 105.054688 99.035156 104.972656 99.394531 C 104.957031 99.460938 104.941406 99.527344 104.917969 99.601562 L 104.875 99.761719 L 104.777344 100.070312 L 104.753906 100.136719 C 104.742188 100.160156 104.734375 100.1875 104.726562 100.210938 C 104.707031 100.265625 104.6875 100.320312 104.667969 100.371094 L 104.472656 100.785156 L 104.847656 100.496094 C 104.925781 100.453125 104.992188 100.402344 105.058594 100.351562 L 105.085938 100.332031 C 105.160156 100.273438 105.234375 100.214844 105.304688 100.160156 C 105.429688 100.054688 105.566406 99.941406 105.730469 99.796875 C 105.980469 99.574219 106.238281 99.335938 106.539062 99.035156 C 107.105469 98.464844 107.578125 97.917969 107.976562 97.363281 C 108.226562 97.019531 108.410156 96.71875 108.566406 96.421875 C 108.769531 96.039062 108.894531 95.699219 108.960938 95.363281 C 109.003906 95.15625 109.015625 94.953125 109 94.761719 C 108.980469 94.535156 108.917969 94.328125 108.8125 94.140625 " fill-opacity="1" fill-rule="nonzero"/></g><path fill="#000000" d="M 86.796875 99.882812 C 86.78125 99.867188 86.761719 99.855469 86.75 99.839844 L 86.71875 99.816406 C 86.695312 99.792969 86.671875 99.769531 86.648438 99.746094 C 86.59375 99.6875 86.550781 99.640625 86.511719 99.59375 C 86.324219 99.371094 86.183594 99.148438 86.09375 98.925781 C 86.042969 98.804688 86.011719 98.6875 86 98.585938 C 85.992188 98.539062 85.996094 98.492188 86 98.4375 C 86.003906 98.390625 86.015625 98.347656 86.027344 98.3125 L 86.03125 98.308594 C 86.042969 98.273438 86.066406 98.246094 86.09375 98.207031 C 86.121094 98.175781 86.152344 98.148438 86.191406 98.121094 C 86.269531 98.070312 86.375 98.027344 86.496094 97.996094 C 86.511719 97.992188 86.527344 97.988281 86.542969 97.984375 C 86.558594 97.980469 86.578125 97.972656 86.59375 97.972656 L 86.695312 97.953125 L 86.789062 97.941406 C 86.808594 97.941406 86.828125 97.9375 86.84375 97.9375 C 86.859375 97.9375 86.871094 97.9375 86.886719 97.9375 C 87.011719 97.933594 87.128906 97.945312 87.242188 97.976562 C 87.457031 98.03125 87.660156 98.160156 87.84375 98.359375 C 88 98.527344 88.144531 98.746094 88.277344 99.023438 C 88.332031 99.136719 88.386719 99.261719 88.4375 99.402344 C 88.484375 99.523438 88.527344 99.65625 88.570312 99.800781 C 88.714844 100.28125 88.824219 100.8125 88.910156 101.472656 C 88.945312 101.726562 88.972656 102 89 102.328125 C 89.007812 102.378906 89.011719 102.433594 89.015625 102.484375 C 88.855469 102.148438 88.664062 101.832031 88.441406 101.539062 C 88.054688 101.027344 87.589844 100.589844 87.144531 100.191406 C 87.03125 100.085938 86.914062 99.984375 86.796875 99.882812 Z M 89.199219 99.667969 C 89.125 99.347656 89.035156 99.058594 88.921875 98.785156 C 88.78125 98.457031 88.613281 98.179688 88.410156 97.945312 C 88.285156 97.804688 88.148438 97.683594 87.996094 97.582031 C 87.828125 97.46875 87.648438 97.382812 87.460938 97.332031 C 87.273438 97.277344 87.070312 97.253906 86.859375 97.257812 L 86.816406 97.261719 C 86.785156 97.261719 86.75 97.265625 86.710938 97.265625 L 86.578125 97.28125 L 86.433594 97.304688 C 86.398438 97.3125 86.363281 97.324219 86.332031 97.328125 L 86.292969 97.339844 C 86.074219 97.398438 85.890625 97.476562 85.738281 97.582031 C 85.65625 97.632812 85.574219 97.707031 85.496094 97.796875 L 85.492188 97.800781 C 85.414062 97.902344 85.359375 97.992188 85.328125 98.082031 C 85.285156 98.183594 85.269531 98.289062 85.257812 98.375 L 85.257812 98.378906 C 85.25 98.488281 85.253906 98.578125 85.265625 98.660156 C 85.289062 98.828125 85.335938 98.992188 85.414062 99.164062 C 85.542969 99.449219 85.730469 99.726562 85.96875 99.984375 C 86.019531 100.042969 86.078125 100.097656 86.148438 100.164062 C 86.179688 100.195312 86.214844 100.222656 86.25 100.253906 C 86.28125 100.28125 86.316406 100.308594 86.34375 100.328125 C 86.464844 100.425781 86.585938 100.519531 86.707031 100.613281 C 87.136719 100.957031 87.632812 101.355469 88.050781 101.804688 C 88.242188 102.011719 88.429688 102.242188 88.601562 102.488281 C 88.636719 102.539062 88.671875 102.589844 88.707031 102.644531 L 88.78125 102.757812 L 88.894531 102.945312 L 88.953125 103.042969 C 88.964844 103.066406 88.976562 103.085938 88.988281 103.105469 C 89.011719 103.148438 89.035156 103.1875 89.050781 103.222656 L 89.269531 103.90625 L 89.285156 103.199219 C 89.339844 102.917969 89.363281 102.648438 89.382812 102.324219 C 89.402344 102.046875 89.40625 101.757812 89.402344 101.441406 C 89.386719 100.789062 89.320312 100.207031 89.199219 99.667969 " fill-opacity="1" fill-rule="nonzero"/><path fill="#000000" d="M 115.238281 107.984375 C 115.878906 107.441406 116.425781 107.019531 116.964844 106.660156 C 117.109375 106.5625 117.265625 106.464844 117.425781 106.371094 C 117.582031 106.277344 117.742188 106.1875 117.894531 106.109375 C 118.265625 105.921875 118.574219 105.800781 118.867188 105.730469 C 119.046875 105.6875 119.203125 105.664062 119.347656 105.660156 C 119.355469 105.660156 119.367188 105.660156 119.375 105.660156 C 119.519531 105.660156 119.648438 105.679688 119.773438 105.722656 C 119.902344 105.765625 120.019531 105.832031 120.121094 105.925781 C 120.222656 106.015625 120.316406 106.128906 120.394531 106.261719 C 120.476562 106.394531 120.523438 106.515625 120.539062 106.636719 C 120.558594 106.761719 120.550781 106.886719 120.511719 107.003906 C 120.46875 107.128906 120.402344 107.246094 120.308594 107.355469 C 120.21875 107.460938 120.105469 107.5625 119.972656 107.65625 C 119.707031 107.835938 119.394531 107.964844 119.066406 108.035156 C 118.988281 108.050781 118.902344 108.0625 118.828125 108.070312 L 118.75 108.078125 C 118.734375 108.078125 118.71875 108.078125 118.699219 108.082031 L 117.976562 108.121094 C 117.273438 108.164062 116.445312 108.238281 115.644531 108.433594 L 115.363281 108.507812 L 115.078125 108.59375 C 115.015625 108.613281 114.957031 108.632812 114.898438 108.652344 C 114.863281 108.664062 114.832031 108.675781 114.800781 108.6875 L 114.734375 108.710938 L 114.53125 108.792969 C 114.453125 108.824219 114.375 108.859375 114.300781 108.890625 L 114.15625 108.957031 C 114.242188 108.875 114.328125 108.792969 114.421875 108.707031 C 114.660156 108.488281 114.941406 108.234375 115.238281 107.984375 Z M 121.285156 106.539062 C 121.253906 106.34375 121.179688 106.140625 121.058594 105.9375 C 120.945312 105.746094 120.804688 105.578125 120.648438 105.441406 C 120.46875 105.285156 120.257812 105.164062 120.03125 105.089844 C 119.8125 105.019531 119.566406 104.984375 119.324219 104.996094 C 119.109375 105.003906 118.890625 105.039062 118.664062 105.097656 C 118.300781 105.199219 117.941406 105.347656 117.542969 105.570312 C 117.230469 105.742188 116.921875 105.941406 116.570312 106.203125 C 116.003906 106.621094 115.453125 107.101562 114.882812 107.675781 C 114.589844 107.976562 114.351562 108.234375 114.136719 108.484375 C 113.996094 108.644531 113.882812 108.777344 113.785156 108.902344 C 113.730469 108.972656 113.671875 109.042969 113.617188 109.121094 L 113.597656 109.144531 C 113.550781 109.207031 113.503906 109.273438 113.460938 109.347656 L 113.183594 109.71875 L 113.621094 109.496094 C 113.671875 109.472656 113.730469 109.449219 113.789062 109.425781 C 113.816406 109.414062 113.84375 109.40625 113.871094 109.394531 L 113.9375 109.367188 L 114.265625 109.242188 L 114.445312 109.183594 C 114.519531 109.15625 114.589844 109.132812 114.667969 109.113281 C 115.050781 108.996094 115.40625 108.917969 115.753906 108.863281 C 116.503906 108.742188 117.277344 108.710938 118.003906 108.699219 L 118.722656 108.691406 C 118.742188 108.691406 118.765625 108.6875 118.789062 108.6875 L 118.886719 108.683594 C 119.019531 108.671875 119.121094 108.660156 119.210938 108.644531 C 119.636719 108.570312 120.039062 108.414062 120.40625 108.179688 C 120.589844 108.058594 120.753906 107.917969 120.894531 107.761719 C 121.042969 107.597656 121.15625 107.402344 121.226562 107.199219 C 121.300781 106.992188 121.320312 106.765625 121.285156 106.539062 " fill-opacity="1" fill-rule="nonzero"/><path stroke-linecap="butt" transform="matrix(1.195188, 0, 0, 1.195188, 1.924478, -7.239229)" fill="none" stroke-linejoin="miter" d="M 62.465136 10.485549 L 62.465136 19.032194 L 38.057356 19.032194 C 37.344863 19.032194 36.746761 18.773997 36.240172 18.270677 C 35.733583 17.806576 35.475387 17.175791 35.475387 16.453493 L 35.475387 10.485549 L 32.059997 10.485549 L 32.059997 16.453493 C 32.059997 18.146481 32.648294 19.538783 33.834692 20.685962 C 34.968798 21.862555 36.364368 22.460657 38.057356 22.460657 L 62.465136 22.460657 L 62.465136 25.032821 C 62.465136 25.755119 62.206939 26.343416 61.70035 26.85981 C 61.193761 27.366399 60.595659 27.614791 59.883166 27.614791 L 38.057356 27.614791 C 37.344863 27.614791 36.746761 27.366399 36.240172 26.85981 C 35.733583 26.343416 35.475387 25.755119 35.475387 25.032821 L 32.059997 25.032821 C 32.059997 26.683321 32.648294 28.078891 33.834692 29.26529 C 35.011286 30.451689 36.364368 31.000766 38.057356 31.000766 L 59.925655 31.000766 C 61.618642 31.000766 62.971725 30.451689 64.10583 29.26529 C 65.292228 28.036403 65.880525 26.725809 65.880525 25.124334 L 65.880525 10.485549 Z M 104.69504 12.217757 C 103.518446 11.041163 102.165364 10.485549 100.472376 10.485549 L 78.604077 10.485549 C 76.91109 10.485549 75.561276 11.041163 74.423902 12.217757 C 73.237503 13.446643 72.649207 14.760506 72.649207 16.368517 L 72.649207 25.032821 C 72.649207 26.683321 73.237503 28.078891 74.423902 29.26529 C 75.561276 30.451689 76.953578 31.000766 78.646565 31.000766 L 100.514864 31.000766 C 102.207852 31.000766 103.560934 30.451689 104.69504 29.26529 C 105.884707 28.036403 106.473003 26.683321 106.473003 25.032821 L 106.473003 16.453493 C 106.473003 14.799726 105.884707 13.407423 104.69504 12.217757 Z M 102.28956 26.807517 C 101.786239 27.323911 101.184869 27.572303 100.472376 27.572303 L 78.139977 27.572303 C 77.675876 27.490595 77.211775 27.232398 76.829382 26.85981 C 76.322793 26.343416 76.064596 25.755119 76.064596 25.032821 L 76.064596 16.453493 C 76.064596 15.731196 76.322793 15.139631 76.829382 14.63631 C 77.335971 14.129721 77.934073 13.871524 78.646565 13.871524 L 100.472376 13.871524 C 101.184869 13.871524 101.786239 14.129721 102.28956 14.63631 C 102.796148 15.139631 103.054345 15.731196 103.054345 16.453493 L 103.054345 25.032821 C 103.054345 25.712631 102.796148 26.300928 102.28956 26.807517 Z M 143.643555 10.485549 L 143.643555 25.032821 C 143.643555 25.712631 143.385358 26.300928 142.882038 26.807517 C 142.375449 27.323911 141.774079 27.572303 141.064854 27.572303 L 118.732455 27.572303 C 118.265085 27.490595 117.800985 27.232398 117.418592 26.85981 C 116.915271 26.343416 116.657074 25.755119 116.657074 25.032821 L 116.657074 10.485549 L 113.238416 10.485549 L 113.238416 25.032821 C 113.238416 26.683321 113.826713 28.078891 115.013112 29.26529 C 116.150485 30.451689 117.542788 31.000766 119.235775 31.000766 L 141.104074 31.000766 C 142.797061 31.000766 144.150144 30.451689 145.287518 29.26529 C 146.473916 28.036403 147.062213 26.683321 147.062213 25.032821 L 147.062213 10.485549 Z M 143.643555 10.485549 " stroke="#780017" stroke-width="3.172282" stroke-opacity="1" stroke-miterlimit="4"/><path stroke-linecap="butt" transform="matrix(1.195188, 0, 0, 1.195188, 1.924478, -7.239229)" fill="none" stroke-linejoin="miter" d="M 21.993585 52.571648 C 20.094694 52.571648 18.483414 51.901643 17.17282 50.591048 C 15.819737 49.237966 15.179148 47.626686 15.179148 45.767015 L 15.179148 35.484894 L 11.76049 35.484894 L 11.76049 45.767015 C 11.76049 48.554888 12.773667 50.973441 14.754267 52.996529 C 16.747939 54.986933 19.153419 56.00011 21.993585 56.00011 L 45.584286 56.00011 L 45.584286 52.571648 Z M 84.398801 37.22037 C 83.222207 36.043776 81.869125 35.484894 80.176137 35.484894 L 58.307838 35.484894 C 56.614851 35.484894 55.261768 36.043776 54.127663 37.22037 C 52.941264 38.449256 52.352968 39.759851 52.352968 41.37113 L 52.352968 50.032166 C 52.352968 51.682666 52.941264 53.078236 54.127663 54.264635 C 55.261768 55.454302 56.657339 56.00011 58.350326 56.00011 L 80.218625 56.00011 C 81.911613 56.00011 83.264695 55.454302 84.398801 54.264635 C 85.585199 53.035748 86.176764 51.682666 86.176764 50.032166 L 86.176764 41.452838 C 86.176764 39.799071 85.585199 38.406768 84.398801 37.22037 Z M 81.99332 51.806862 C 81.486732 52.323256 80.88863 52.571648 80.176137 52.571648 L 57.843738 52.571648 C 57.379637 52.48994 56.915536 52.231743 56.533143 51.859155 C 56.026554 51.342761 55.768357 50.754464 55.768357 50.032166 L 55.768357 41.452838 C 55.768357 40.730541 56.026554 40.142244 56.533143 39.635655 C 57.039732 39.129066 57.637834 38.870869 58.350326 38.870869 L 80.176137 38.870869 C 80.88863 38.870869 81.486732 39.129066 81.99332 39.635655 C 82.499909 40.142244 82.758106 40.730541 82.758106 41.452838 L 82.758106 50.032166 C 82.758106 50.715244 82.499909 51.303541 81.99332 51.806862 Z M 124.98801 45.851991 C 123.853905 44.662324 122.458334 44.074027 120.765347 44.074027 L 98.897048 44.074027 C 98.187824 44.074027 97.586454 43.81583 97.083133 43.31251 C 96.576544 42.805921 96.357567 42.217624 96.357567 41.495326 C 96.357567 40.822053 96.576544 40.223952 97.083133 39.717363 C 97.586454 39.210774 98.187824 38.952577 98.897048 38.952577 L 125.929285 38.952577 L 125.929285 35.537187 L 98.897048 35.537187 C 97.246549 35.537187 95.854246 36.125484 94.674384 37.311883 C 93.530474 38.449256 92.942177 39.884047 92.942177 41.495326 C 92.942177 43.145826 93.530474 44.580616 94.674384 45.727795 C 95.854246 46.904389 97.246549 47.50249 98.897048 47.50249 L 120.765347 47.50249 C 121.47784 47.50249 122.07921 47.750882 122.58253 48.214983 C 123.089119 48.721572 123.347316 49.362162 123.347316 50.032166 C 123.347316 50.754464 123.089119 51.342761 122.58253 51.859155 C 122.07921 52.365744 121.47784 52.614136 120.765347 52.614136 L 93.788671 52.614136 L 93.788671 56.00011 L 120.765347 56.00011 C 122.458334 56.00011 123.853905 55.454302 124.98801 54.264635 C 126.177677 53.078236 126.765974 51.682666 126.765974 50.032166 C 126.765974 48.391472 126.177677 46.995901 124.98801 45.851991 Z M 137.711562 39.635655 C 138.093955 39.253262 138.558056 38.995065 139.025425 38.913357 L 167.355184 38.913357 L 167.355184 35.484894 L 139.528746 35.484894 C 137.835758 35.484894 136.443456 36.043776 135.306082 37.22037 C 134.119684 38.449256 133.531387 39.799071 133.531387 41.452838 L 133.531387 50.032166 C 133.531387 51.682666 134.119684 53.035748 135.306082 54.264635 C 136.443456 55.454302 137.835758 56.00011 139.528746 56.00011 L 167.355184 56.00011 L 167.355184 52.571648 L 139.025425 52.571648 C 138.558056 52.48994 138.093955 52.231743 137.711562 51.859155 C 137.208242 51.342761 136.950045 50.754464 136.950045 50.032166 L 136.950045 47.460002 L 163.763305 47.460002 L 163.763305 44.034808 L 136.950045 44.034808 L 136.950045 41.452838 C 136.950045 40.730541 137.208242 40.142244 137.711562 39.635655 Z M 137.711562 39.635655 " stroke="#780017" stroke-width="3.172282" stroke-opacity="1" stroke-miterlimit="4"/><g fill="#ef3a5d" fill-opacity="1"><g transform="translate(36.192746, 29.811585)"><g><path d="M 40.386719 -24.515625 L 40.386719 -14.304688 L 11.222656 -14.304688 C 10.363281 -14.304688 9.652344 -14.605469 9.046875 -15.214844 C 8.441406 -15.769531 8.136719 -16.527344 8.136719 -17.386719 L 8.136719 -24.515625 L 4.042969 -24.515625 L 4.042969 -17.386719 C 4.042969 -15.367188 4.75 -13.699219 6.167969 -12.332031 C 7.53125 -10.917969 9.199219 -10.210938 11.222656 -10.210938 L 40.386719 -10.210938 L 40.386719 -7.125 C 40.386719 -6.265625 40.082031 -5.558594 39.476562 -4.953125 C 38.867188 -4.347656 38.160156 -4.042969 37.300781 -4.042969 L 11.222656 -4.042969 C 10.363281 -4.042969 9.652344 -4.347656 9.046875 -4.953125 C 8.441406 -5.558594 8.136719 -6.265625 8.136719 -7.125 L 4.042969 -7.125 C 4.042969 -5.15625 4.75 -3.488281 6.167969 -2.074219 C 7.582031 -0.65625 9.199219 0 11.222656 0 L 37.351562 0 C 39.375 0 40.992188 -0.65625 42.355469 -2.074219 C 43.773438 -3.539062 44.480469 -5.105469 44.480469 -7.027344 L 44.480469 -24.515625 Z M 40.386719 -24.515625 "/></g></g></g><g fill="#ef3a5d" fill-opacity="1"><g transform="translate(84.705296, 29.811585)"><g><path d="M 42.355469 -22.441406 C 40.941406 -23.855469 39.324219 -24.515625 37.300781 -24.515625 L 11.171875 -24.515625 C 9.148438 -24.515625 7.53125 -23.855469 6.167969 -22.441406 C 4.75 -20.976562 4.042969 -19.410156 4.042969 -17.488281 L 4.042969 -7.125 C 4.042969 -5.15625 4.75 -3.488281 6.167969 -2.074219 C 7.53125 -0.65625 9.199219 0 11.222656 0 L 37.351562 0 C 39.375 0 40.992188 -0.65625 42.355469 -2.074219 C 43.773438 -3.539062 44.480469 -5.15625 44.480469 -7.125 L 44.480469 -17.386719 C 44.480469 -19.359375 43.773438 -21.027344 42.355469 -22.441406 Z M 39.476562 -5.003906 C 38.867188 -4.398438 38.160156 -4.09375 37.300781 -4.09375 L 10.613281 -4.09375 C 10.058594 -4.195312 9.503906 -4.5 9.046875 -4.953125 C 8.441406 -5.558594 8.136719 -6.265625 8.136719 -7.125 L 8.136719 -17.386719 C 8.136719 -18.246094 8.441406 -18.953125 9.046875 -19.5625 C 9.652344 -20.167969 10.363281 -20.46875 11.222656 -20.46875 L 37.300781 -20.46875 C 38.160156 -20.46875 38.867188 -20.167969 39.476562 -19.5625 C 40.082031 -18.953125 40.386719 -18.246094 40.386719 -17.386719 L 40.386719 -7.125 C 40.386719 -6.316406 40.082031 -5.609375 39.476562 -5.003906 Z M 39.476562 -5.003906 "/></g></g></g><g fill="#ef3a5d" fill-opacity="1"><g transform="translate(133.217846, 29.811585)"><g><path d="M 40.386719 -24.515625 L 40.386719 -7.125 C 40.386719 -6.316406 40.082031 -5.609375 39.476562 -5.003906 C 38.867188 -4.398438 38.160156 -4.09375 37.300781 -4.09375 L 10.613281 -4.09375 C 10.058594 -4.195312 9.503906 -4.5 9.046875 -4.953125 C 8.441406 -5.558594 8.136719 -6.265625 8.136719 -7.125 L 8.136719 -24.515625 L 4.042969 -24.515625 L 4.042969 -7.125 C 4.042969 -5.15625 4.75 -3.488281 6.167969 -2.074219 C 7.53125 -0.65625 9.199219 0 11.222656 0 L 37.351562 0 C 39.375 0 40.992188 -0.65625 42.355469 -2.074219 C 43.773438 -3.539062 44.480469 -5.15625 44.480469 -7.125 L 44.480469 -24.515625 Z M 40.386719 -24.515625 "/></g></g></g><g fill="#ef3a5d" fill-opacity="1"><g transform="translate(181.725507, 29.811585)"><g/></g></g><g fill="#ef3a5d" fill-opacity="1"><g transform="translate(11.934174, 59.691274)"><g><path d="M 16.273438 -4.09375 C 14 -4.09375 12.082031 -4.902344 10.511719 -6.46875 C 8.894531 -8.085938 8.136719 -10.007812 8.136719 -12.230469 L 8.136719 -24.515625 L 4.042969 -24.515625 L 4.042969 -12.230469 C 4.042969 -8.894531 5.257812 -6.015625 7.632812 -3.589844 C 10.007812 -1.214844 12.890625 0 16.273438 0 L 44.480469 0 L 44.480469 -4.09375 Z M 16.273438 -4.09375 "/></g></g></g><g fill="#ef3a5d" fill-opacity="1"><g transform="translate(60.446723, 59.691274)"><g><path d="M 42.355469 -22.441406 C 40.941406 -23.855469 39.324219 -24.515625 37.300781 -24.515625 L 11.171875 -24.515625 C 9.148438 -24.515625 7.53125 -23.855469 6.167969 -22.441406 C 4.75 -20.976562 4.042969 -19.410156 4.042969 -17.488281 L 4.042969 -7.125 C 4.042969 -5.15625 4.75 -3.488281 6.167969 -2.074219 C 7.53125 -0.65625 9.199219 0 11.222656 0 L 37.351562 0 C 39.375 0 40.992188 -0.65625 42.355469 -2.074219 C 43.773438 -3.539062 44.480469 -5.15625 44.480469 -7.125 L 44.480469 -17.386719 C 44.480469 -19.359375 43.773438 -21.027344 42.355469 -22.441406 Z M 39.476562 -5.003906 C 38.867188 -4.398438 38.160156 -4.09375 37.300781 -4.09375 L 10.613281 -4.09375 C 10.058594 -4.195312 9.503906 -4.5 9.046875 -4.953125 C 8.441406 -5.558594 8.136719 -6.265625 8.136719 -7.125 L 8.136719 -17.386719 C 8.136719 -18.246094 8.441406 -18.953125 9.046875 -19.5625 C 9.652344 -20.167969 10.363281 -20.46875 11.222656 -20.46875 L 37.300781 -20.46875 C 38.160156 -20.46875 38.867188 -20.167969 39.476562 -19.5625 C 40.082031 -18.953125 40.386719 -18.246094 40.386719 -17.386719 L 40.386719 -7.125 C 40.386719 -6.316406 40.082031 -5.609375 39.476562 -5.003906 Z M 39.476562 -5.003906 "/></g></g></g><g fill="#ef3a5d" fill-opacity="1"><g transform="translate(108.959273, 59.691274)"><g><path d="M 42.355469 -12.128906 C 40.992188 -13.546875 39.324219 -14.253906 37.300781 -14.253906 L 11.171875 -14.253906 C 10.3125 -14.253906 9.601562 -14.558594 8.996094 -15.164062 C 8.390625 -15.769531 8.136719 -16.476562 8.136719 -17.335938 C 8.136719 -18.144531 8.390625 -18.851562 8.996094 -19.460938 C 9.601562 -20.066406 10.3125 -20.371094 11.171875 -20.371094 L 43.46875 -20.371094 L 43.46875 -24.464844 L 11.171875 -24.464844 C 9.199219 -24.464844 7.53125 -23.757812 6.117188 -22.339844 C 4.75 -20.976562 4.042969 -19.257812 4.042969 -17.335938 C 4.042969 -15.367188 4.75 -13.648438 6.117188 -12.28125 C 7.53125 -10.867188 9.199219 -10.160156 11.171875 -10.160156 L 37.300781 -10.160156 C 38.160156 -10.160156 38.867188 -9.855469 39.476562 -9.300781 C 40.082031 -8.695312 40.386719 -7.933594 40.386719 -7.125 C 40.386719 -6.265625 40.082031 -5.558594 39.476562 -4.953125 C 38.867188 -4.347656 38.160156 -4.042969 37.300781 -4.042969 L 5.054688 -4.042969 L 5.054688 0 L 37.300781 0 C 39.324219 0 40.992188 -0.65625 42.355469 -2.074219 C 43.773438 -3.488281 44.480469 -5.15625 44.480469 -7.125 C 44.480469 -9.097656 43.773438 -10.765625 42.355469 -12.128906 Z M 42.355469 -12.128906 "/></g></g></g><g fill="#ef3a5d" fill-opacity="1"><g transform="translate(157.471823, 59.691274)"><g><path d="M 9.046875 -19.5625 C 9.503906 -20.015625 10.058594 -20.320312 10.613281 -20.421875 L 44.480469 -20.421875 L 44.480469 -24.515625 L 11.222656 -24.515625 C 9.199219 -24.515625 7.53125 -23.855469 6.167969 -22.441406 C 4.75 -20.976562 4.042969 -19.359375 4.042969 -17.386719 L 4.042969 -7.125 C 4.042969 -5.15625 4.75 -3.539062 6.167969 -2.074219 C 7.53125 -0.65625 9.199219 0 11.222656 0 L 44.480469 0 L 44.480469 -4.09375 L 10.613281 -4.09375 C 10.058594 -4.195312 9.503906 -4.5 9.046875 -4.953125 C 8.441406 -5.558594 8.136719 -6.265625 8.136719 -7.125 L 8.136719 -10.210938 L 40.183594 -10.210938 L 40.183594 -14.304688 L 8.136719 -14.304688 L 8.136719 -17.386719 C 8.136719 -18.246094 8.441406 -18.953125 9.046875 -19.5625 Z M 9.046875 -19.5625 "/></g></g></g></svg>