<svg xmlns="http://www.w3.org/2000/svg" xmlns:xlink="http://www.w3.org/1999/xlink" width="600" zoomAndPan="magnify" viewBox="0 0 450 299.999988" height="400" preserveAspectRatio="xMidYMid meet" version="1.0"><defs><clipPath id="b871f66dd7"><path d="M 186 260 L 208 260 L 208 285.878906 L 186 285.878906 Z M 186 260 " clip-rule="nonzero"/></clipPath><clipPath id="bf453a9693"><path d="M 172 259 L 190 259 L 190 285.878906 L 172 285.878906 Z M 172 259 " clip-rule="nonzero"/></clipPath><clipPath id="de07b25304"><path d="M 228 260 L 247 260 L 247 285.878906 L 228 285.878906 Z M 228 260 " clip-rule="nonzero"/></clipPath><clipPath id="4ee54621b7"><path d="M 250 260 L 272 260 L 272 285.878906 L 250 285.878906 Z M 250 260 " clip-rule="nonzero"/></clipPath></defs><path fill="#d9d9d9" d="M 259.308594 184.550781 C 244.675781 193.304688 222.5625 228.128906 202.253906 228.636719 C 187.613281 229.003906 160.628906 222.402344 155.289062 198.128906 C 155.289062 198.128906 149.726562 160.832031 152.582031 149.144531 C 152.582031 149.144531 154.945312 126.929688 156.28125 120.730469 C 156.28125 120.730469 159.824219 105.675781 152.65625 92.878906 C 149.761719 88.707031 159.351562 78.746094 169.953125 95.128906 C 169.953125 95.128906 175.375 103.808594 175.367188 125.949219 C 175.367188 125.949219 175.355469 135.089844 180.730469 139.265625 C 180.730469 139.265625 187.207031 148.425781 203.949219 120.417969 C 203.949219 120.417969 227.539062 66.429688 230.589844 57.414062 C 233.578125 51.382812 247.226562 47.574219 243.804688 64.199219 C 243.804688 64.199219 225.570312 116.554688 224.871094 117.867188 C 222.128906 123.003906 225.355469 131.5 231.515625 121.195312 L 264.902344 68.542969 C 268.707031 62.898438 280.757812 63.347656 275.90625 75.5625 C 275.90625 75.5625 250.019531 123.046875 245.652344 130.382812 C 242.078125 135.253906 243.363281 145.289062 251.574219 135.894531 L 284.074219 100.449219 C 290.25 93.394531 303.042969 95.65625 294.402344 109.511719 C 294.402344 109.511719 277.898438 130.625 273.742188 136.132812 C 273.742188 136.132812 258.261719 154.691406 256.265625 157.796875 C 254.269531 160.90625 255.527344 167.039062 261.8125 163.136719 C 268.101562 159.238281 288.035156 151.417969 292.445312 149.039062 C 297.863281 146.109375 307.527344 150.40625 296.1875 160.082031 C 296.1875 160.082031 261.722656 183.871094 259.308594 184.550781 Z M 259.308594 184.550781 " fill-opacity="1" fill-rule="evenodd"/><path fill="#333333" d="M 202.117188 119.480469 C 203.347656 116.667969 225.683594 65.503906 228.644531 56.757812 C 228.652344 56.738281 228.660156 56.71875 228.667969 56.699219 L 228.726562 56.5625 L 228.75 56.503906 C 230.054688 53.871094 233.003906 51.550781 236.089844 50.648438 C 238.339844 49.988281 240.636719 50.082031 242.480469 51.097656 C 245.277344 52.636719 247.464844 56.59375 245.816406 64.613281 C 245.796875 64.699219 245.773438 64.789062 245.742188 64.875 C 245.742188 64.875 227.386719 117.511719 226.679688 118.832031 C 225.941406 120.21875 225.769531 121.929688 226.082031 123.195312 C 226.136719 123.414062 226.195312 123.621094 226.28125 123.800781 C 226.316406 123.878906 226.332031 123.964844 226.382812 124.003906 C 226.414062 123.996094 226.457031 123.980469 226.488281 123.964844 C 226.632812 123.898438 226.785156 123.792969 226.957031 123.664062 C 227.785156 123.039062 228.703125 121.898438 229.753906 120.144531 C 229.761719 120.128906 229.769531 120.113281 229.78125 120.101562 L 263.167969 67.445312 L 263.199219 67.398438 C 264.914062 64.851562 267.957031 63.273438 270.878906 63.039062 C 272.976562 62.867188 275 63.386719 276.507812 64.589844 C 278.839844 66.453125 280.25 70.183594 277.8125 76.320312 C 277.78125 76.398438 277.746094 76.472656 277.707031 76.542969 C 277.707031 76.542969 251.789062 124.089844 247.414062 131.433594 C 247.410156 131.445312 247.402344 131.457031 247.390625 131.46875 L 247.332031 131.558594 L 247.304688 131.597656 C 246.289062 132.980469 245.773438 134.894531 245.828125 136.429688 C 245.839844 136.792969 245.871094 137.136719 245.957031 137.425781 C 245.988281 137.539062 246.019531 137.644531 246.078125 137.71875 C 246.175781 137.691406 246.414062 137.625 246.585938 137.542969 C 247.519531 137.105469 248.640625 136.136719 250.027344 134.546875 C 250.039062 134.535156 250.050781 134.523438 250.0625 134.511719 C 250.0625 134.511719 276.386719 105.800781 281.636719 100.070312 C 282.164062 99.496094 282.476562 99.15625 282.535156 99.09375 L 282.535156 99.089844 C 285.183594 96.074219 288.863281 94.53125 291.992188 94.507812 C 294.421875 94.492188 296.535156 95.367188 297.871094 97.011719 C 299.808594 99.394531 300.308594 103.917969 296.144531 110.597656 C 296.109375 110.660156 296.066406 110.71875 296.019531 110.773438 C 296.019531 110.773438 279.53125 131.863281 275.382812 137.367188 L 275.320312 137.445312 C 275.320312 137.445312 259.972656 155.824219 257.992188 158.90625 C 257.535156 159.617188 257.351562 160.578125 257.484375 161.398438 C 257.535156 161.730469 257.617188 162.050781 257.851562 162.238281 C 257.992188 162.351562 258.195312 162.363281 258.4375 162.339844 C 259.066406 162.277344 259.816406 161.964844 260.730469 161.398438 C 267.039062 157.480469 287.042969 149.625 291.464844 147.234375 C 293.949219 145.894531 297.132812 145.757812 299.515625 146.691406 C 301.394531 147.425781 302.792969 148.785156 303.304688 150.617188 C 303.632812 151.792969 303.609375 153.195312 302.984375 154.8125 C 302.25 156.707031 300.59375 159.019531 297.519531 161.640625 C 297.46875 161.6875 297.410156 161.730469 297.355469 161.769531 C 297.355469 161.769531 275.253906 177.023438 265.175781 183.472656 C 262.796875 184.996094 261.015625 186.035156 260.242188 186.378906 C 251.558594 191.648438 240.269531 206.109375 228.273438 216.941406 C 219.753906 224.632812 210.839844 230.472656 202.304688 230.6875 C 186.980469 231.070312 158.871094 223.972656 153.28125 198.570312 C 153.269531 198.523438 153.261719 198.476562 153.257812 198.429688 C 153.257812 198.429688 147.726562 160.832031 150.550781 148.804688 C 150.746094 147 152.984375 126.269531 154.269531 120.300781 L 154.28125 120.261719 C 154.28125 120.261719 157.640625 106.046875 150.894531 93.941406 C 149.640625 92.027344 149.855469 89.347656 151.46875 87.199219 C 154.40625 83.285156 162.945312 80.523438 171.675781 94.019531 C 171.683594 94.027344 171.6875 94.035156 171.691406 94.039062 C 171.691406 94.039062 177.425781 103.011719 177.417969 125.949219 C 177.417969 125.949219 177.417969 125.953125 177.417969 125.949219 C 177.417969 125.949219 177.421875 128.933594 178.46875 132.136719 C 179.121094 134.128906 180.171875 136.234375 181.988281 137.648438 C 182.136719 137.761719 182.265625 137.894531 182.375 138.042969 C 182.433594 138.101562 183.390625 139.058594 185.421875 138.398438 C 188.929688 137.253906 194.226562 132.65625 202.117188 119.480469 Z M 241.820312 63.660156 C 242.398438 60.792969 242.4375 58.625 242.039062 57.027344 C 241.75 55.871094 241.230469 55.089844 240.5 54.6875 C 239.5625 54.171875 238.390625 54.246094 237.246094 54.582031 C 235.28125 55.15625 233.355469 56.554688 232.484375 58.21875 C 229.222656 67.683594 205.828125 121.238281 205.828125 121.238281 C 205.820312 121.257812 205.8125 121.277344 205.804688 121.292969 L 205.738281 121.417969 L 205.710938 121.472656 C 198.746094 133.117188 193.425781 138.527344 189.628906 140.890625 C 186.878906 142.601562 184.738281 142.878906 183.1875 142.703125 C 180.984375 142.449219 179.734375 141.257812 179.277344 140.730469 C 176.90625 138.808594 175.433594 136.0625 174.566406 133.410156 C 173.429688 129.9375 173.324219 126.679688 173.316406 126.0625 C 173.316406 126.042969 173.316406 126.023438 173.316406 126.003906 C 173.316406 125.984375 173.3125 125.96875 173.3125 125.949219 C 173.320312 106.703125 169.164062 97.976562 168.335938 96.433594 C 168.273438 96.320312 168.230469 96.25 168.21875 96.230469 C 165.367188 91.824219 162.664062 89.472656 160.25 88.539062 C 158.351562 87.804688 156.730469 88.054688 155.617188 88.832031 C 154.847656 89.363281 154.324219 90.121094 154.207031 90.878906 C 154.160156 91.175781 154.175781 91.476562 154.34375 91.714844 C 154.351562 91.726562 154.359375 91.738281 154.367188 91.75 L 154.421875 91.839844 L 154.445312 91.878906 C 161.234375 103.992188 158.910156 118.035156 158.378906 120.707031 C 158.328125 120.964844 158.292969 121.121094 158.285156 121.164062 C 156.957031 127.316406 154.621094 149.363281 154.621094 149.363281 C 154.621094 149.382812 154.617188 149.402344 154.613281 149.425781 L 154.585938 149.574219 L 154.574219 149.632812 C 151.835938 160.835938 157.039062 195.953125 157.304688 197.753906 C 162.429688 220.847656 188.253906 226.9375 202.199219 226.585938 C 209.914062 226.394531 217.820312 220.847656 225.519531 213.898438 C 237.789062 202.824219 249.394531 188.09375 258.25 182.792969 C 258.40625 182.699219 258.574219 182.625 258.75 182.578125 C 259.183594 182.457031 260.722656 181.453125 262.960938 180.019531 C 272.632812 173.832031 293.402344 159.511719 294.929688 158.457031 C 296.898438 156.769531 298.167969 155.285156 298.859375 153.976562 C 299.332031 153.078125 299.523438 152.335938 299.351562 151.722656 C 299.183594 151.117188 298.640625 150.75 298.019531 150.507812 C 296.65625 149.972656 294.839844 150.074219 293.417969 150.839844 C 289.027344 153.214844 269.160156 160.992188 262.894531 164.878906 C 259.269531 167.128906 256.753906 166.613281 255.285156 165.441406 C 254.296875 164.648438 253.652344 163.441406 253.429688 162.046875 C 253.148438 160.28125 253.554688 158.21875 254.539062 156.691406 C 256.5 153.636719 271.359375 135.789062 272.132812 134.859375 C 276.179688 129.496094 291.542969 109.839844 292.714844 108.34375 C 294.207031 105.933594 294.996094 103.9375 295.203125 102.3125 C 295.351562 101.132812 295.191406 100.21875 294.683594 99.59375 C 294.089844 98.863281 293.101562 98.597656 292.023438 98.605469 C 289.894531 98.621094 287.421875 99.742188 285.621094 101.796875 C 285.609375 101.808594 285.597656 101.820312 285.589844 101.832031 C 285.589844 101.832031 259.261719 130.546875 254.011719 136.273438 C 253.484375 136.847656 253.171875 137.191406 253.113281 137.25 L 253.113281 137.253906 C 250.773438 139.925781 248.839844 141.183594 247.414062 141.605469 C 245.851562 142.070312 244.628906 141.753906 243.691406 141.0625 C 242.5625 140.230469 241.796875 138.609375 241.722656 136.578125 C 241.644531 134.257812 242.414062 131.378906 243.929688 129.265625 C 248.28125 121.9375 272.648438 77.246094 274.039062 74.699219 C 274.78125 72.800781 275.078125 71.269531 274.988281 70.058594 C 274.914062 69.035156 274.554688 68.28125 273.941406 67.789062 C 273.214844 67.210938 272.21875 67.042969 271.207031 67.125 C 269.46875 67.261719 267.640625 68.164062 266.613281 69.671875 L 233.261719 122.277344 C 231.523438 125.171875 229.917969 126.742188 228.628906 127.460938 C 227.25 128.230469 226.035156 128.242188 225.03125 127.886719 C 223.683594 127.402344 222.566406 126.082031 222.097656 124.179688 C 221.574219 122.074219 221.824219 119.214844 223.058594 116.90625 C 223.734375 115.636719 240.816406 66.546875 241.820312 63.660156 Z M 168.257812 96.285156 C 168.347656 96.414062 168.453125 96.503906 168.5625 96.5625 C 168.667969 96.621094 168.78125 96.648438 168.886719 96.65625 C 168.640625 96.625 168.410156 96.496094 168.257812 96.285156 Z M 168.257812 96.285156 " fill-opacity="1" fill-rule="evenodd"/><g clip-path="url(#b871f66dd7)"><path fill="#000000" d="M 194.542969 260.257812 L 199.503906 260.300781 L 207.945312 285.148438 L 203.53125 285.203125 L 201.707031 279.835938 L 192.691406 279.835938 L 191.027344 285.15625 L 186.628906 285.148438 Z M 194.003906 275.644531 L 200.285156 275.644531 L 197.015625 266.027344 Z M 194.003906 275.644531 " fill-opacity="1" fill-rule="evenodd"/></g><g clip-path="url(#bf453a9693)"><path fill="#000000" d="M 172.914062 260.75 L 172.878906 260.355469 C 175.007812 260.175781 177.992188 259.792969 180.714844 259.96875 C 182.867188 260.113281 184.863281 260.617188 186.347656 261.640625 C 191.070312 264.886719 189.832031 271.363281 185.585938 274.3125 C 183.035156 276.085938 180.046875 276.277344 177.09375 275.972656 L 177.085938 285.121094 L 172.890625 285.117188 Z M 177.097656 271.761719 C 179.207031 272.046875 181.371094 272.136719 183.191406 270.875 C 185.140625 269.519531 186.136719 266.582031 183.96875 265.089844 C 183.042969 264.453125 181.777344 264.238281 180.441406 264.152344 C 179.34375 264.078125 178.207031 264.109375 177.105469 264.183594 Z M 177.097656 271.761719 " fill-opacity="1" fill-rule="evenodd"/></g><path fill="#000000" d="M 209.808594 260.167969 L 209.777344 259.769531 C 211.90625 259.589844 214.890625 259.207031 217.613281 259.386719 C 219.765625 259.527344 221.761719 260.03125 223.246094 261.054688 C 227.96875 264.300781 226.730469 270.78125 222.484375 273.730469 C 219.933594 275.503906 216.941406 275.695312 213.992188 275.386719 L 213.984375 284.539062 L 209.789062 284.535156 Z M 213.996094 271.175781 C 216.105469 271.460938 218.269531 271.554688 220.085938 270.289062 C 222.039062 268.933594 223.035156 265.996094 220.867188 264.503906 C 219.941406 263.871094 218.675781 263.65625 217.335938 263.566406 C 216.242188 263.496094 215.101562 263.527344 214.003906 263.597656 Z M 213.996094 271.175781 " fill-opacity="1" fill-rule="evenodd"/><g clip-path="url(#de07b25304)"><path fill="#000000" d="M 228.417969 265.089844 L 228.410156 265.089844 L 228.324219 260.382812 C 234.222656 260.273438 239.582031 260.382812 246.273438 260.347656 L 246.300781 265.054688 C 241.445312 265.082031 237.296875 265.027344 233.132812 265.039062 C 233.144531 266.554688 233.160156 268.054688 233.179688 269.554688 C 237.683594 269.503906 240.457031 269.582031 246.273438 269.550781 L 246.300781 274.261719 C 240.5 274.289062 237.738281 274.210938 233.25 274.261719 C 233.28125 276.265625 233.320312 278.3125 233.355469 280.449219 C 237.429688 280.4375 241.421875 280.488281 246.273438 280.464844 L 246.300781 285.171875 C 239.632812 285.207031 234.605469 285.09375 228.722656 285.203125 L 228.710938 284.445312 L 228.703125 284.445312 C 228.691406 283.582031 228.675781 282.734375 228.664062 281.902344 L 228.636719 280.496094 L 228.640625 280.496094 C 228.546875 275.042969 228.457031 270.164062 228.417969 265.089844 Z M 228.417969 265.089844 " fill-opacity="1" fill-rule="evenodd"/></g><g clip-path="url(#4ee54621b7)"><path fill="#000000" d="M 250.269531 260.972656 C 250.269531 260.972656 257.304688 260.773438 259.820312 260.886719 C 262.113281 260.992188 264.289062 261.457031 266.089844 262.492188 C 266.234375 262.574219 266.367188 262.671875 266.492188 262.785156 C 271.472656 267.269531 268.484375 273.15625 264.789062 274.734375 C 264.667969 274.792969 264.550781 274.851562 264.429688 274.902344 C 267.242188 278.289062 269.730469 282.417969 271.765625 285.136719 L 265.921875 285.203125 C 263.480469 281.945312 262.375 279.011719 259.007812 275.960938 C 258.863281 275.964844 258.714844 275.964844 258.570312 275.964844 C 257.460938 275.96875 256.34375 275.898438 255.242188 275.855469 C 255.269531 279.023438 255.296875 282.140625 255.347656 285.03125 L 250.632812 285.117188 C 250.5 277.722656 250.546875 268.359375 250.269531 260.972656 Z M 255.195312 271.148438 C 256.308594 271.191406 257.441406 271.257812 258.558594 271.257812 C 260.015625 271.253906 261.453125 271.144531 262.734375 270.496094 C 262.792969 270.464844 262.855469 270.4375 262.917969 270.414062 C 264.152344 269.914062 264.996094 267.976562 263.507812 266.449219 C 262.027344 265.6875 260.179688 265.542969 258.3125 265.574219 C 257.242188 265.589844 256.160156 265.675781 255.109375 265.78125 C 255.148438 267.539062 255.175781 269.335938 255.195312 271.148438 Z M 255.195312 271.148438 " fill-opacity="1" fill-rule="evenodd"/></g></svg>