<svg xmlns="http://www.w3.org/2000/svg" xmlns:xlink="http://www.w3.org/1999/xlink" width="600" zoomAndPan="magnify" viewBox="0 0 450 299.999988" height="400" preserveAspectRatio="xMidYMid meet" version="1.0"><rect x="-45" width="540" fill="#ffffff" y="-29.999999" height="359.999986" fill-opacity="1"/><rect x="-45" width="540" fill="#ffffff" y="-29.999999" height="359.999986" fill-opacity="1"/><rect x="-45" width="540" fill="#ffffff" y="-29.999999" height="359.999986" fill-opacity="1"/><path fill="#1a2634" d="M 161.183594 184.40625 C 161.183594 184.40625 164.640625 205.824219 184.144531 217.726562 C 207.449219 231.949219 231.195312 232.246094 262.339844 202.398438 C 276.269531 184.832031 283.714844 157.714844 286.6875 132.277344 C 281.3125 107.828125 278.777344 100.367188 270.933594 79.015625 L 262.199219 73.855469 L 257.773438 73.855469 L 255.007812 70.648438 L 249.914062 65.992188 L 242.347656 64.179688 L 236.152344 66.140625 L 231.25 70.648438 L 227.636719 75.6875 L 223.753906 73.855469 L 219.558594 70.65625 L 212.554688 70.65625 L 206.042969 73.855469 L 201.015625 79.015625 L 199.226562 86.15625 L 196.152344 86.164062 L 191.554688 84.238281 L 183.480469 85.378906 L 176.792969 89.894531 L 174.070312 96.441406 L 173.835938 103.753906 L 173.4375 105.675781 L 169.390625 103.464844 L 163.019531 104.679688 L 156.707031 111.257812 L 155.617188 127.417969 L 154.5 141.136719 L 154.5 164.109375 Z M 161.183594 184.40625 " fill-opacity="1" fill-rule="evenodd"/><path fill="#ffffff" d="M 227.042969 72.992188 C 227.070312 72.949219 227.089844 72.90625 227.113281 72.863281 C 229.535156 68.5625 235.214844 62.28125 242.945312 62.214844 C 247.832031 62.175781 253.667969 64.570312 260.015625 71.914062 C 261.726562 71.824219 263.242188 71.988281 264.566406 72.28125 C 267.574219 72.945312 270.089844 74.613281 270.90625 75.199219 C 271.195312 75.285156 271.5 75.457031 271.804688 75.769531 C 271.882812 75.855469 272.011719 76.003906 272.140625 76.242188 C 272.21875 76.390625 272.4375 76.953125 272.742188 77.878906 C 275.492188 86.230469 288.566406 130.027344 288.566406 130.027344 L 288.648438 130.570312 C 288.976562 164.75 274.765625 192.585938 257.871094 209.457031 C 246.460938 220.859375 233.789062 227.242188 223.457031 227.457031 C 202.808594 232.296875 179.933594 219.21875 168.894531 206.261719 C 160.90625 196.882812 151.105469 167.65625 152.703125 148.785156 C 153.976562 133.761719 153.300781 120.136719 155.039062 112.117188 C 155.933594 107.988281 157.554688 105.207031 159.941406 103.949219 C 164.398438 101.601562 167.757812 101.09375 170.46875 101.957031 C 170.921875 102.101562 171.363281 102.285156 171.789062 102.511719 C 171.722656 100.605469 171.78125 98.367188 172.152344 96.136719 C 172.851562 91.984375 174.660156 87.917969 178.414062 85.699219 C 181.4375 83.910156 186.464844 82.203125 191.351562 82.472656 C 193.425781 82.585938 195.472656 83.050781 197.347656 83.984375 C 198.34375 73.042969 207.582031 69.386719 212.832031 68.839844 C 218.039062 68.296875 222.191406 69.191406 225.277344 71.4375 C 225.910156 71.894531 226.5 72.414062 227.042969 72.992188 Z M 187.117188 144.976562 C 186.988281 144.371094 186.882812 143.933594 186.832031 143.730469 C 180.507812 128.585938 177.410156 117.3125 173.988281 110.820312 C 172.570312 108.121094 171.199219 106.3125 169.277344 105.699219 C 167.328125 105.082031 164.976562 105.734375 161.773438 107.421875 C 160.828125 107.921875 160.203125 108.90625 159.6875 110.199219 C 159.023438 111.863281 158.601562 113.996094 158.308594 116.503906 C 157.34375 124.609375 157.703125 136.351562 156.621094 149.117188 C 155.105469 167.03125 164.304688 194.8125 171.886719 203.714844 C 182.1875 215.804688 203.496094 228.21875 222.75 223.589844 L 223.1875 223.535156 C 232.769531 223.417969 244.46875 217.296875 255.09375 206.679688 C 271.332031 190.460938 284.957031 163.710938 284.71875 130.882812 C 283.625 127.210938 271.628906 87.058594 269.007812 79.105469 C 268.945312 78.910156 268.878906 78.714844 268.820312 78.542969 C 268.054688 77.992188 266.367188 76.699219 263.71875 76.113281 C 260.710938 75.449219 256.507812 75.734375 251.039062 78.839844 C 237.027344 86.796875 219.582031 86.488281 211.558594 84.058594 C 211.148438 83.933594 210.808594 84.191406 210.503906 84.539062 C 209.851562 85.289062 209.417969 86.476562 209.226562 87.882812 C 208.125 95.941406 215.203125 109.679688 244.296875 108.261719 C 244.800781 108.238281 245.296875 108.410156 245.679688 108.738281 C 245.679688 108.738281 257.804688 118.96875 249.859375 138.558594 C 249.617188 139.148438 249.105469 139.589844 248.480469 139.734375 C 248.480469 139.734375 217.152344 147.050781 207.011719 180.738281 C 206.699219 181.777344 205.601562 182.363281 204.5625 182.054688 C 203.527344 181.742188 202.933594 180.644531 203.246094 179.605469 C 212.945312 147.386719 240.863281 137.820312 246.566406 136.183594 C 251.746094 122.429688 245.503906 114.273438 243.613281 112.222656 C 239.589844 112.382812 235.957031 112.261719 232.679688 111.90625 L 236.644531 131.304688 C 237.105469 132.757812 236.972656 134.46875 236.246094 136.238281 C 235.324219 138.488281 233.425781 140.894531 231.007812 142.839844 C 227.324219 145.800781 222.46875 147.632812 218.265625 146.644531 C 217.445312 146.449219 216.640625 146.152344 215.871094 145.742188 C 215.515625 148.121094 214.199219 150.507812 212.199219 152.503906 C 208.308594 156.378906 201.953125 158.667969 196.363281 156.460938 C 194.808594 155.847656 193.292969 154.886719 191.90625 153.496094 C 191.875 154.230469 191.808594 154.945312 191.691406 155.617188 C 191.175781 158.574219 189.730469 160.746094 187.277344 161.386719 C 185.972656 161.730469 184.277344 161.640625 182.132812 160.765625 C 179.546875 159.710938 176.105469 157.414062 171.601562 153.3125 C 171.457031 153.179688 171.332031 153.027344 171.234375 152.859375 C 171.234375 152.859375 162.660156 138.363281 159.175781 131.167969 C 158.703125 130.191406 159.113281 129.015625 160.089844 128.542969 C 161.0625 128.070312 162.238281 128.480469 162.714844 129.453125 C 165.882812 135.996094 173.3125 148.648438 174.46875 150.605469 C 177.75 153.578125 180.382812 155.503906 182.496094 156.601562 C 184.160156 157.472656 185.371094 157.828125 186.285156 157.585938 C 186.84375 157.441406 187.164062 156.980469 187.402344 156.425781 C 187.8125 155.480469 187.960938 154.277344 188 153.011719 C 188.082031 150.175781 187.546875 147.039062 187.164062 145.203125 C 187.144531 145.128906 187.128906 145.050781 187.117188 144.976562 Z M 210.597656 138.925781 C 206.992188 125.847656 198.816406 93.511719 197.652344 88.898438 C 195.269531 86.75 192.144531 86.203125 189.144531 86.410156 C 185.765625 86.644531 182.511719 87.839844 180.417969 89.078125 C 177.679688 90.695312 176.539062 93.761719 176.03125 96.789062 C 175.273438 101.296875 175.988281 105.839844 176.148438 106.746094 C 176.597656 107.425781 177.039062 108.175781 177.46875 108.992188 C 180.933594 115.566406 184.089844 126.992188 190.515625 142.355469 C 190.550781 142.441406 190.582031 142.527344 190.605469 142.617188 C 190.605469 142.617188 190.75 143.1875 190.945312 144.125 C 192.546875 148.984375 195.003906 151.703125 197.808594 152.808594 C 201.921875 154.433594 206.558594 152.578125 209.425781 149.722656 C 211.285156 147.867188 212.480469 145.5625 211.902344 143.445312 C 211.683594 142.753906 211.378906 141.71875 211.011719 140.40625 C 210.925781 140.238281 210.84375 140.0625 210.765625 139.890625 C 210.625 139.578125 210.570312 139.246094 210.597656 138.925781 Z M 227.121094 81.578125 C 226.355469 78.417969 224.996094 76.089844 222.960938 74.609375 C 220.558594 72.859375 217.292969 72.324219 213.242188 72.746094 C 208.78125 73.210938 200.65625 76.59375 201.222656 87.085938 C 201.265625 87.183594 201.300781 87.285156 201.328125 87.386719 C 201.328125 87.386719 211.039062 125.945312 214.683594 138.960938 C 215.546875 140.605469 216.613281 141.703125 217.835938 142.332031 C 221.199219 144.058594 225.40625 142.300781 228.542969 139.78125 C 230.398438 138.289062 231.902344 136.480469 232.609375 134.753906 C 232.945312 133.925781 233.125 133.136719 232.886719 132.464844 C 232.855469 132.382812 232.832031 132.296875 232.816406 132.207031 L 228.546875 111.308594 C 208.859375 107.675781 204.308594 94.851562 205.332031 87.351562 C 205.714844 84.535156 206.898438 82.34375 208.335938 81.191406 C 209.621094 80.167969 211.125 79.824219 212.695312 80.300781 C 216.074219 81.320312 221.257812 81.921875 227.121094 81.578125 Z M 255.417969 72.703125 C 250.316406 67.433594 245.789062 65.777344 241.898438 66.207031 C 237.589844 66.683594 234.246094 69.660156 232.109375 72.4375 C 231.101562 73.742188 230.363281 75.011719 229.933594 75.996094 C 229.796875 76.3125 229.675781 76.691406 229.625 76.847656 C 230.230469 78.140625 230.714844 79.589844 231.070312 81.210938 C 237.011719 80.445312 243.363281 78.679688 249.097656 75.425781 C 251.382812 74.128906 253.488281 73.257812 255.417969 72.703125 Z M 272.199219 77.863281 C 272.207031 77.84375 272.214844 77.824219 272.222656 77.804688 C 272.230469 77.785156 272.234375 77.765625 272.242188 77.746094 Z M 269.597656 75.324219 C 269.335938 75.421875 269.113281 75.566406 268.933594 75.761719 C 268.75 75.960938 268.609375 76.214844 268.507812 76.519531 C 268.738281 75.8125 269.199219 75.496094 269.597656 75.324219 Z M 269.597656 75.324219 " fill-opacity="1" fill-rule="evenodd"/><path fill="#000000" d="M 194.679688 278.777344 C 194.679688 278.777344 197.214844 287.40625 205.152344 286.71875 C 205.261719 286.710938 205.367188 286.691406 205.46875 286.664062 C 213.820312 284.589844 216.015625 276.496094 213.320312 267.996094 C 212.398438 265.078125 209.992188 262.796875 207.152344 261.726562 C 204.257812 260.632812 200.960938 260.800781 198.382812 262.640625 C 195.289062 264.847656 192.984375 269.734375 194.636719 278.601562 Z M 204.640625 282.644531 C 210.402344 281.109375 211.296875 275.191406 209.40625 269.234375 C 208.859375 267.503906 207.382812 266.199219 205.699219 265.5625 C 204.074219 264.949219 202.214844 264.945312 200.769531 265.976562 C 198.507812 267.59375 197.464844 271.296875 198.660156 277.761719 C 198.863281 278.449219 200.347656 282.902344 204.640625 282.644531 Z M 204.640625 282.644531 " fill-opacity="1" fill-rule="evenodd"/><path fill="#000000" d="M 217.082031 277.53125 C 215.902344 273.191406 216.734375 269.449219 218.515625 266.671875 C 221.171875 262.539062 225.976562 260.582031 229.949219 261.636719 C 232.6875 262.363281 235.167969 264.449219 236.328125 268.414062 L 231.957031 269.6875 C 231.355469 267.625 230.207031 266.410156 228.78125 266.03125 C 226.511719 265.425781 223.863281 266.765625 222.347656 269.128906 C 221.15625 270.980469 220.683594 273.488281 221.484375 276.386719 L 221.511719 276.5 C 222.269531 279.925781 224.253906 281.820312 226.523438 281.898438 C 228.828125 281.976562 231.097656 280.222656 232.253906 277.039062 L 236.53125 278.597656 C 234.550781 284.03125 230.308594 286.574219 226.371094 286.441406 C 222.402344 286.308594 218.417969 283.5 217.082031 277.53125 Z M 217.082031 277.53125 " fill-opacity="1" fill-rule="evenodd"/><path fill="#000000" d="M 243.75 272.277344 C 247.96875 268.453125 249.480469 265.726562 253.820312 261.457031 L 260.527344 261.515625 C 257.734375 264.265625 253.5625 268.921875 251.238281 271.519531 C 254.207031 276.28125 258.0625 282.507812 260.625 286.839844 L 254.375 286.839844 C 252.015625 282.847656 250.695312 279.726562 247.78125 275.132812 C 246.609375 276.253906 245.351562 277.351562 243.933594 278.417969 C 244.019531 281.140625 244.09375 283.859375 244.113281 286.578125 L 239.257812 286.613281 C 239.195312 278.195312 238.617188 269.777344 238.863281 261.355469 L 243.714844 261.496094 C 243.609375 265.089844 243.65625 268.683594 243.75 272.277344 Z M 243.75 272.277344 " fill-opacity="1" fill-rule="evenodd"/><path fill="#000000" d="M 173.398438 261.480469 C 173.398438 261.480469 180.644531 261.273438 183.230469 261.390625 C 185.59375 261.5 187.835938 261.980469 189.6875 263.046875 C 189.835938 263.128906 189.976562 263.230469 190.105469 263.347656 C 195.234375 267.96875 192.152344 274.03125 188.347656 275.660156 C 188.226562 275.71875 188.101562 275.777344 187.976562 275.832031 C 190.875 279.320312 193.4375 283.574219 195.535156 286.375 L 189.515625 286.445312 C 187 283.089844 185.863281 280.066406 182.398438 276.921875 C 182.246094 276.925781 182.097656 276.925781 181.945312 276.925781 C 180.804688 276.929688 179.652344 276.859375 178.519531 276.8125 C 178.546875 280.078125 178.574219 283.289062 178.628906 286.269531 L 173.773438 286.355469 C 173.632812 278.738281 173.683594 269.09375 173.398438 261.480469 Z M 178.472656 271.964844 C 179.617188 272.007812 180.78125 272.078125 181.933594 272.074219 C 183.433594 272.074219 184.914062 271.960938 186.234375 271.292969 C 186.296875 271.261719 186.355469 271.234375 186.421875 271.207031 C 187.691406 270.691406 188.5625 268.695312 187.03125 267.121094 C 185.503906 266.335938 183.605469 266.1875 181.679688 266.21875 C 180.578125 266.238281 179.464844 266.324219 178.382812 266.4375 C 178.421875 268.242188 178.449219 270.097656 178.472656 271.964844 Z M 178.472656 271.964844 " fill-opacity="1" fill-rule="evenodd"/></svg>