<svg xmlns="http://www.w3.org/2000/svg" xmlns:xlink="http://www.w3.org/1999/xlink" width="600" zoomAndPan="magnify" viewBox="0 0 450 299.999988" height="400" preserveAspectRatio="xMidYMid meet" version="1.0"><defs><clipPath id="18667343a5"><path d="M 282 261 L 298.9375 261 L 298.9375 287 L 282 287 Z M 282 261 " clip-rule="nonzero"/></clipPath></defs><path fill="#ff4136" d="M 211.664062 227.238281 L 222.546875 228.566406 L 234.984375 226.777344 L 251.1875 220.964844 L 255.824219 216.328125 L 260.371094 209.183594 L 262.792969 198.15625 L 265.445312 189.425781 L 270.003906 178.722656 L 276.917969 160.628906 L 278.640625 152.511719 L 276.097656 145.347656 L 268.195312 137.15625 L 259.351562 129.0625 L 255.566406 122.140625 L 256.347656 112.679688 L 260.527344 88.296875 L 265.28125 55.300781 L 267.398438 36.714844 L 266.066406 31.625 L 261.949219 27.625 L 257.921875 27.0625 L 252.988281 29.773438 L 250.488281 35.632812 L 248.613281 45.882812 L 245.640625 58.886719 L 243.175781 73.566406 L 239.058594 88.390625 L 236.386719 100.871094 L 234.984375 107.535156 L 230.449219 110.078125 L 228.003906 106.1875 L 228.285156 95.03125 L 228.414062 72.039062 L 225.6875 39.425781 L 223.578125 25.382812 L 221.152344 18.820312 L 217.050781 15.714844 L 212.203125 16.820312 L 207.691406 22.003906 L 207.136719 29.992188 L 209.570312 110.078125 L 206.203125 110.078125 L 198.386719 112.679688 L 192.71875 119.109375 L 191.164062 124.269531 L 185.882812 123.421875 L 179.445312 127.226562 L 176.511719 135.53125 L 174.632812 150.355469 L 176.953125 172.386719 L 183.5 193.527344 L 189.648438 209.582031 L 197.191406 219.554688 Z M 211.664062 227.238281 " fill-opacity="1" fill-rule="evenodd"/><path fill="#333333" d="M 189.523438 214.210938 L 189.503906 214.183594 C 189.503906 214.183594 189.5 214.171875 189.507812 214.183594 L 189.496094 214.167969 C 189.472656 214.128906 189.449219 214.085938 189.433594 214.054688 C 189.070312 213.375 179.710938 195.671875 175.070312 174.074219 C 171.875 159.199219 170.945312 142.507812 176.53125 128.175781 C 176.542969 128.140625 176.558594 128.109375 176.570312 128.078125 C 176.570312 128.078125 178.726562 123.257812 183.832031 121.742188 C 185.476562 121.253906 187.433594 121.09375 189.726562 121.578125 C 190.113281 120.132812 190.765625 118.199219 191.8125 116.253906 C 193.273438 113.546875 195.492188 110.847656 198.738281 109.292969 C 201.070312 108.175781 203.949219 107.621094 207.507812 108.144531 L 205.003906 25.753906 C 204.898438 23.394531 205.921875 20.5 207.714844 18.144531 C 209.546875 15.734375 212.144531 13.933594 214.886719 13.628906 C 218.457031 13.230469 222.695312 15.191406 225.757812 22.691406 C 225.816406 22.835938 225.855469 22.984375 225.882812 23.136719 C 225.882812 23.136719 231.480469 55.910156 230.167969 81.078125 C 230.234375 82.484375 230.921875 97.316406 230.597656 103.53125 C 230.53125 105.070312 230.710938 106.355469 231.128906 107.234375 C 231.203125 107.390625 231.257812 107.539062 231.335938 107.636719 C 231.378906 107.609375 231.429688 107.574219 231.464844 107.546875 C 232.058594 107.066406 232.632812 106.1875 233.21875 104.898438 C 233.765625 102.488281 238.832031 80.371094 241.0625 72.90625 C 241.492188 70.730469 248.929688 33.109375 249.105469 32.546875 C 250.796875 27.144531 257.152344 23.816406 262.40625 25.753906 C 265.738281 26.980469 268.835938 30.3125 269.660156 36.949219 C 269.679688 37.128906 269.679688 37.3125 269.65625 37.492188 C 269.65625 37.492188 262.332031 93.113281 257.917969 118.859375 C 258.039062 124.09375 261.09375 127.902344 264.761719 131.382812 C 268.96875 135.375 273.992188 138.9375 277.386719 143.179688 C 277.414062 143.210938 277.4375 143.246094 277.460938 143.28125 C 277.464844 143.28125 277.464844 143.28125 277.464844 143.285156 C 277.464844 143.285156 282.839844 150.964844 279.867188 159.167969 C 279.847656 159.21875 279.828125 159.265625 279.808594 159.316406 C 279.808594 159.316406 270.75 179.519531 264.117188 202.355469 C 262.460938 207.851562 262.164062 212.871094 255.796875 219.828125 C 253.554688 222.277344 246.082031 226.65625 236.417969 229.03125 C 222.082031 232.546875 203.007812 231.757812 189.65625 214.398438 C 189.625 214.359375 189.597656 214.320312 189.578125 214.292969 Z M 242.625 114.820312 C 241.519531 114.757812 236.867188 115.035156 230.117188 121.996094 C 229.945312 122.171875 229.742188 122.320312 229.523438 122.425781 C 229.519531 122.425781 229.519531 122.429688 229.519531 122.429688 C 229.519531 122.429688 216.917969 128.550781 207.300781 129.273438 C 207.1875 129.28125 207.074219 129.28125 206.964844 129.273438 C 206.894531 129.308594 206.75 129.390625 206.65625 129.449219 C 206.105469 129.796875 205.539062 130.410156 205.265625 131.175781 C 204.925781 132.125 205.160156 133.273438 206.300781 134.480469 C 207.996094 136.269531 211.253906 138 216.847656 139.523438 C 218.296875 139.730469 231.492188 141.558594 237.398438 139.320312 C 238 139.09375 238.667969 139.148438 239.222656 139.46875 C 239.777344 139.785156 240.160156 140.339844 240.261719 140.964844 C 240.261719 140.964844 242.367188 153.148438 256.347656 159.699219 C 257.414062 160.199219 257.875 161.472656 257.375 162.539062 C 256.871094 163.605469 255.601562 164.0625 254.535156 163.5625 C 242.285156 157.820312 238 148.269531 236.640625 143.953125 C 233.113281 144.691406 228.421875 144.699219 224.40625 144.488281 C 226.855469 151.089844 228.546875 161.386719 227.496094 168.046875 C 226.847656 172.164062 225.027344 174.96875 222.390625 175.773438 C 217.132812 177.382812 213.1875 175.226562 210.375 171.984375 C 209.472656 170.941406 208.695312 169.78125 208.035156 168.621094 C 207.453125 169.140625 206.609375 169.6875 205.476562 169.960938 C 204.226562 170.261719 202.558594 170.25 200.441406 169.269531 C 196.441406 167.410156 190.089844 161.414062 181.003906 144.847656 C 180.4375 143.816406 180.816406 142.519531 181.851562 141.953125 C 182.882812 141.386719 184.179688 141.765625 184.75 142.796875 C 193.070312 157.964844 198.578125 163.699219 202.242188 165.398438 C 203.191406 165.839844 203.921875 165.945312 204.480469 165.8125 C 205.074219 165.667969 205.386719 165.253906 205.472656 165.128906 C 205.488281 165.105469 205.503906 165.078125 205.523438 165.054688 C 205.527344 165.019531 205.527344 164.976562 205.535156 164.933594 C 205.578125 164.578125 205.558594 164.15625 205.507812 163.667969 C 205.296875 161.757812 204.542969 159.121094 203.492188 156.125 C 200.058594 146.324219 193.453125 132.882812 190.609375 127.535156 C 190.289062 126.933594 189.972656 126.371094 189.75 125.984375 C 187.882812 125.425781 186.324219 125.453125 185.046875 125.832031 C 182.054688 126.71875 180.667969 129.410156 180.484375 129.789062 C 175.226562 143.339844 176.226562 159.121094 179.246094 173.179688 C 183.59375 193.410156 192.195312 210.132812 193.128906 211.914062 C 205.214844 227.507812 222.460938 228.0625 235.402344 224.886719 C 243.953125 222.789062 250.664062 219.117188 252.648438 216.949219 C 258.390625 210.675781 258.535156 206.085938 260.019531 201.148438 C 266.484375 178.886719 275.242188 159.078125 275.875 157.65625 C 277.949219 151.820312 274.394531 146.363281 274 145.78125 C 270.722656 141.710938 265.863281 138.316406 261.820312 134.476562 C 259.742188 132.503906 257.871094 130.417969 256.445312 128.113281 C 256.34375 128.015625 256.25 127.90625 256.167969 127.785156 C 256.167969 127.785156 256.167969 127.785156 256.164062 127.78125 C 256.164062 127.78125 249.75 118.457031 242.625 114.820312 Z M 189.566406 214.277344 L 189.570312 214.28125 C 189.5625 214.269531 189.5625 214.273438 189.5625 214.273438 Z M 189.539062 214.234375 C 189.53125 214.222656 189.535156 214.226562 189.535156 214.226562 Z M 189.519531 214.207031 L 189.523438 214.210938 C 189.523438 214.210938 189.523438 214.207031 189.519531 214.207031 Z M 189.496094 214.167969 L 189.5 214.171875 C 189.492188 214.160156 189.492188 214.164062 189.492188 214.164062 Z M 210.710938 113.355469 C 206.34375 111.785156 203.054688 111.957031 200.585938 113.140625 C 198.210938 114.277344 196.640625 116.296875 195.574219 118.277344 C 194.304688 120.628906 193.746094 122.964844 193.539062 124.011719 C 193.777344 124.421875 194.058594 124.933594 194.382812 125.535156 C 197.28125 130.992188 204.019531 144.710938 207.523438 154.714844 C 208.207031 156.667969 208.765625 158.484375 209.160156 160.089844 C 209.179688 160.148438 209.199219 160.207031 209.214844 160.273438 C 209.214844 160.273438 210.480469 165.585938 213.601562 169.191406 C 215.375 171.234375 217.828125 172.707031 221.140625 171.695312 C 221.644531 171.542969 221.992188 171.128906 222.289062 170.609375 C 222.773438 169.761719 223.078125 168.65625 223.28125 167.382812 C 224.339844 160.652344 222.273438 149.820312 219.648438 144.128906 C 217.507812 143.921875 216.109375 143.726562 216.109375 143.726562 C 216.09375 143.722656 216.074219 143.71875 216.054688 143.71875 L 215.910156 143.6875 L 215.855469 143.675781 C 198.671875 139.03125 199.710938 131.246094 202.3125 127.765625 C 203.105469 126.703125 204.121094 125.914062 205.046875 125.472656 C 205.796875 125.117188 206.523438 124.980469 207.128906 125.007812 C 209.601562 124.808594 212.277344 124.222656 214.851562 123.484375 C 213.484375 118.699219 211.515625 114.832031 210.710938 113.355469 Z M 221.714844 24.089844 C 220.699219 21.660156 219.613281 20.003906 218.464844 18.996094 C 217.449219 18.097656 216.402344 17.753906 215.359375 17.867188 C 213.707031 18.054688 212.222656 19.269531 211.113281 20.726562 C 209.96875 22.234375 209.203125 24.046875 209.273438 25.558594 C 209.273438 25.570312 209.273438 25.582031 209.273438 25.59375 L 211.8125 109.21875 C 212.191406 109.351562 212.578125 109.492188 212.972656 109.648438 C 213.414062 109.820312 213.785156 110.136719 214.027344 110.542969 C 214.027344 110.542969 217 115.535156 218.921875 122.183594 C 222.996094 120.753906 226.300781 119.234375 227.320312 118.75 C 237.074219 108.855469 243.738281 110.671875 243.738281 110.671875 C 243.765625 110.675781 243.789062 110.683594 243.8125 110.691406 L 244.089844 110.789062 L 244.183594 110.828125 C 247.652344 112.511719 251.003906 115.421875 253.695312 118.207031 C 257.921875 93.601562 264.824219 41.480469 265.386719 37.214844 C 264.800781 32.933594 263.117188 30.5625 260.929688 29.757812 C 257.851562 28.621094 254.171875 30.65625 253.179688 33.820312 C 253 34.394531 245.230469 73.832031 245.230469 73.832031 C 245.226562 73.84375 245.226562 73.859375 245.222656 73.871094 L 245.191406 73.992188 L 245.179688 74.03125 C 242.859375 81.75 237.332031 106.054688 237.332031 106.054688 C 237.324219 106.082031 237.320312 106.109375 237.308594 106.136719 L 237.234375 106.367188 L 237.203125 106.445312 C 235.980469 109.199219 234.574219 110.722656 233.363281 111.398438 C 232.035156 112.136719 230.769531 112.121094 229.652344 111.601562 C 228.742188 111.179688 227.882812 110.34375 227.273438 109.066406 C 226.625 107.703125 226.230469 105.734375 226.332031 103.328125 C 226.667969 96.90625 225.898438 81.179688 225.898438 81.179688 C 225.898438 81.164062 225.894531 81.148438 225.894531 81.132812 L 225.898438 81.007812 L 225.898438 80.960938 C 227.144531 57.421875 222.207031 27.046875 221.714844 24.089844 Z M 221.714844 24.089844 " fill-opacity="1" fill-rule="evenodd"/><path fill="#000000" d="M 240.414062 278.921875 C 240.414062 278.921875 242.832031 287.144531 250.394531 286.492188 C 250.496094 286.480469 250.597656 286.464844 250.699219 286.4375 C 258.65625 284.460938 260.75 276.746094 258.179688 268.648438 C 257.296875 265.871094 255.003906 263.695312 252.300781 262.675781 C 249.542969 261.632812 246.398438 261.792969 243.945312 263.546875 C 240.996094 265.648438 238.796875 270.308594 240.375 278.753906 Z M 249.90625 282.605469 C 255.398438 281.144531 256.25 275.503906 254.449219 269.828125 C 253.925781 268.179688 252.519531 266.9375 250.917969 266.332031 C 249.367188 265.746094 247.597656 265.742188 246.21875 266.726562 C 244.0625 268.265625 243.070312 271.796875 244.207031 277.953125 C 244.398438 278.609375 245.816406 282.855469 249.90625 282.605469 Z M 249.90625 282.605469 " fill-opacity="1" fill-rule="evenodd"/><path fill="#000000" d="M 194.679688 261.371094 C 194.753906 269.753906 194.609375 277.558594 194.703125 286.527344 L 198.980469 286.480469 C 198.882812 277.515625 199.027344 269.714844 198.953125 261.332031 Z M 194.679688 261.371094 " fill-opacity="1" fill-rule="evenodd"/><g clip-path="url(#18667343a5)"><path fill="#000000" d="M 298.3125 269.425781 C 298.0625 266.425781 296.542969 264.121094 294.0625 262.730469 C 289.542969 260.191406 283.882812 263.53125 283.355469 268.542969 C 282.796875 273.851562 286.6875 275.253906 290.828125 276.273438 C 291.707031 276.492188 292.582031 276.703125 293.351562 277 C 293.949219 277.226562 294.488281 277.46875 294.804688 277.925781 C 295.089844 278.332031 295.109375 278.894531 294.96875 279.660156 C 294.644531 281.398438 293.382812 282.34375 291.957031 282.542969 C 289.613281 282.871094 286.867188 281.355469 286.574219 278.226562 L 282.773438 278.582031 C 283.667969 288.128906 297.101562 289.085938 298.722656 280.351562 C 299.066406 278.492188 298.765625 277.125 298.148438 276.070312 C 297.28125 274.59375 295.667969 273.6875 293.71875 273.09375 C 292.300781 272.667969 290.699219 272.386719 289.316406 271.890625 C 288.507812 271.601562 287.761719 271.28125 287.378906 270.601562 C 287.140625 270.179688 287.078125 269.636719 287.152344 268.941406 C 287.40625 266.554688 290.039062 264.847656 292.191406 266.054688 C 293.554688 266.820312 294.371094 268.097656 294.507812 269.742188 Z M 298.3125 269.425781 " fill-opacity="1" fill-rule="evenodd"/></g><path fill="#000000" d="M 218.410156 268.980469 C 218.152344 265.871094 216.574219 263.480469 214.007812 262.039062 C 209.324219 259.410156 203.457031 262.871094 202.914062 268.066406 C 202.335938 273.5625 206.363281 275.015625 210.65625 276.078125 C 211.566406 276.300781 212.472656 276.519531 213.269531 276.824219 C 213.886719 277.0625 214.445312 277.3125 214.773438 277.785156 C 215.070312 278.210938 215.089844 278.789062 214.945312 279.582031 C 214.609375 281.386719 213.304688 282.363281 211.824219 282.570312 C 209.394531 282.910156 206.550781 281.339844 206.246094 278.097656 L 202.308594 278.46875 C 203.238281 288.359375 217.15625 289.351562 218.835938 280.300781 C 219.191406 278.375 218.878906 276.957031 218.238281 275.863281 C 217.339844 274.335938 215.667969 273.394531 213.648438 272.78125 C 212.183594 272.335938 210.519531 272.046875 209.085938 271.535156 C 208.25 271.234375 207.476562 270.902344 207.082031 270.199219 C 206.835938 269.761719 206.769531 269.199219 206.847656 268.476562 C 207.109375 266.003906 209.835938 264.234375 212.070312 265.488281 C 213.480469 266.277344 214.324219 267.601562 214.46875 269.308594 Z M 218.410156 268.980469 " fill-opacity="1" fill-rule="evenodd"/><path fill="#000000" d="M 237.246094 269.289062 C 236.992188 266.234375 235.445312 263.886719 232.921875 262.46875 C 228.320312 259.886719 222.558594 263.289062 222.019531 268.390625 C 221.453125 273.792969 225.414062 275.21875 229.628906 276.261719 C 230.523438 276.480469 231.414062 276.695312 232.199219 276.996094 C 232.804688 277.226562 233.351562 277.476562 233.675781 277.9375 C 233.964844 278.355469 233.984375 278.925781 233.839844 279.703125 C 233.511719 281.476562 232.230469 282.4375 230.777344 282.640625 C 228.390625 282.972656 225.597656 281.433594 225.296875 278.246094 L 221.429688 278.609375 C 222.339844 288.324219 236.015625 289.300781 237.664062 280.410156 C 238.015625 278.519531 237.707031 277.125 237.078125 276.050781 C 236.195312 274.550781 234.554688 273.625 232.570312 273.023438 C 231.128906 272.585938 229.496094 272.300781 228.089844 271.796875 C 227.265625 271.503906 226.503906 271.175781 226.117188 270.484375 C 225.875 270.054688 225.8125 269.503906 225.886719 268.792969 C 226.144531 266.363281 228.824219 264.625 231.015625 265.855469 C 232.402344 266.632812 233.234375 267.933594 233.375 269.609375 Z M 237.246094 269.289062 " fill-opacity="1" fill-rule="evenodd"/><path fill="#000000" d="M 169.996094 269.222656 C 169.734375 266.09375 168.148438 263.6875 165.5625 262.238281 C 160.851562 259.59375 154.945312 263.074219 154.394531 268.300781 C 153.8125 273.835938 157.871094 275.300781 162.191406 276.367188 C 163.105469 276.59375 164.019531 276.8125 164.824219 277.121094 C 165.441406 277.355469 166.003906 277.609375 166.335938 278.085938 C 166.632812 278.511719 166.652344 279.097656 166.507812 279.894531 C 166.167969 281.707031 164.855469 282.691406 163.367188 282.902344 C 160.921875 283.242188 158.058594 281.664062 157.753906 278.402344 L 153.789062 278.773438 C 154.722656 288.726562 168.734375 289.726562 170.421875 280.617188 C 170.78125 278.679688 170.46875 277.25 169.820312 276.152344 C 168.917969 274.613281 167.234375 273.667969 165.203125 273.046875 C 163.726562 272.601562 162.054688 272.308594 160.613281 271.792969 C 159.769531 271.492188 158.988281 271.15625 158.589844 270.449219 C 158.34375 270.007812 158.28125 269.445312 158.355469 268.71875 C 158.617188 266.226562 161.367188 264.445312 163.613281 265.707031 C 165.03125 266.503906 165.882812 267.835938 166.027344 269.554688 Z M 169.996094 269.222656 " fill-opacity="1" fill-rule="evenodd"/><path fill="#000000" d="M 172.898438 278.054688 C 171.730469 273.75 172.558594 270.042969 174.324219 267.296875 C 176.953125 263.199219 181.714844 261.261719 185.652344 262.304688 C 188.363281 263.023438 190.820312 265.09375 191.96875 269.019531 L 187.640625 270.28125 C 187.042969 268.238281 185.90625 267.035156 184.492188 266.660156 C 182.242188 266.0625 179.621094 267.386719 178.117188 269.726562 C 176.941406 271.5625 176.472656 274.046875 177.261719 276.921875 L 177.289062 277.03125 C 178.042969 280.425781 180.007812 282.300781 182.257812 282.378906 C 184.539062 282.457031 186.785156 280.71875 187.933594 277.566406 L 192.171875 279.109375 C 190.207031 284.492188 186.007812 287.011719 182.105469 286.878906 C 178.171875 286.746094 174.226562 283.96875 172.898438 278.054688 Z M 172.898438 278.054688 " fill-opacity="1" fill-rule="evenodd"/><path fill="#000000" d="M 261.304688 262.148438 C 261.304688 262.148438 268.332031 261.949219 270.84375 262.0625 C 273.136719 262.167969 275.308594 262.632812 277.105469 263.667969 C 277.25 263.75 277.386719 263.847656 277.507812 263.957031 C 282.484375 268.441406 279.496094 274.324219 275.804688 275.898438 C 275.6875 275.957031 275.566406 276.015625 275.449219 276.070312 C 278.257812 279.453125 280.742188 283.578125 282.777344 286.292969 L 276.9375 286.363281 C 274.5 283.105469 273.398438 280.175781 270.035156 277.125 C 269.886719 277.128906 269.742188 277.128906 269.59375 277.128906 C 268.488281 277.132812 267.371094 277.0625 266.273438 277.019531 C 266.300781 280.1875 266.324219 283.300781 266.378906 286.1875 L 261.671875 286.273438 C 261.535156 278.886719 261.582031 269.53125 261.304688 262.148438 Z M 266.226562 272.316406 C 267.335938 272.359375 268.46875 272.425781 269.585938 272.425781 C 271.039062 272.421875 272.476562 272.3125 273.757812 271.664062 C 273.816406 271.632812 273.875 271.605469 273.9375 271.582031 C 275.171875 271.082031 276.011719 269.148438 274.53125 267.621094 C 273.046875 266.859375 271.207031 266.714844 269.339844 266.746094 C 268.269531 266.761719 267.1875 266.847656 266.140625 266.953125 C 266.179688 268.707031 266.207031 270.507812 266.226562 272.316406 Z M 266.226562 272.316406 " fill-opacity="1" fill-rule="evenodd"/></svg>